<svg width="50" height="45" viewBox="0 0 50 45" fill="none" xmlns="http://www.w3.org/2000/svg">
<path d="M50.175 24.6598V24.6584L49.4794 23.9066L49.5398 23.7423L49.5397 23.7423L38.3202 19.6134V6.37653V6.20153H38.3193C38.3384 5.78651 38.0896 5.39231 37.6844 5.24632C37.6842 5.24624 37.684 5.24615 37.6837 5.24607L25.8309 0.884792C25.8308 0.884743 25.8306 0.884694 25.8305 0.884645C25.6172 0.805119 25.3828 0.805119 25.1695 0.884644C25.1694 0.884693 25.1692 0.884742 25.1691 0.884792L13.315 5.24652L13.3144 5.24673C13.0502 5.34503 12.8444 5.55329 12.7456 5.81362H12.6798V5.98862V19.6134L1.46019 23.7423L1.45961 23.7426C1.19537 23.8409 0.989598 24.0491 0.890798 24.3094H0.825V24.4844V38.6632V38.8382H0.825463C0.825294 39.2392 1.07159 39.6106 1.46032 39.7533L13.314 44.1149C13.314 44.1149 13.3141 44.1149 13.3142 44.115C13.5276 44.195 13.7625 44.195 13.976 44.115C13.9761 44.115 13.9762 44.1149 13.9763 44.1149L25.5 39.8745L37.0237 44.1149C37.0237 44.1149 37.0238 44.1149 37.0239 44.115C37.2374 44.195 37.4723 44.195 37.6858 44.115C37.6859 44.1149 37.6859 44.1149 37.686 44.1149L49.5398 39.7533C49.7906 39.661 49.9898 39.469 50.0942 39.2261H50.175V39.0511L50.175 24.8724L50.175 24.8716V24.8715L50.175 24.8712L50.175 24.87L50.175 24.8655L50.1749 24.8485L50.1748 24.7922C50.1747 24.7478 50.1747 24.6951 50.175 24.6598ZM12.6798 29.7034V41.8066L2.75565 38.1552V26.051L12.6798 29.7034ZM13.5829 21.3557L22.6193 24.6814L13.6452 27.9831L4.60971 24.6584L13.5829 21.3557ZM24.5347 26.051V38.1552L14.6105 41.8066V29.7034L24.5347 26.051ZM24.5347 11.2075V23.2658L14.6105 19.6134V7.5552L24.5347 11.2075ZM16.4646 6.16258L25.5 2.83785L34.5354 6.16258L25.5 9.48732L16.4646 6.16258ZM26.4653 11.2075L36.3895 7.5552V19.6134L26.4653 23.2658V11.2075ZM36.3895 29.7034V41.8066L26.4653 38.1552V26.051L36.3895 29.7034ZM46.3903 24.6584L37.3548 27.9831L28.3807 24.6814L37.4171 21.3557L46.3903 24.6584ZM48.2444 26.051V38.1552L38.3202 41.8066V29.7034L48.2444 26.051Z" fill="#FC85B4" stroke="#FC85B4" stroke-width="0.35"/>
</svg>
