<svg width="43" height="43" viewBox="0 0 43 43" fill="none" xmlns="http://www.w3.org/2000/svg">
<path d="M6.30311 0H1.26548C0.570005 0 0.00613403 0.563871 0.00613403 1.25943V6.38105C0.00613403 7.07661 0.569921 7.64048 1.26556 7.64048C1.96112 7.64048 2.52499 7.07661 2.52499 6.38105V2.51886H6.3032C6.99876 2.51886 7.56263 1.95499 7.56263 1.25943C7.56254 0.563871 6.99867 0 6.30311 0Z" fill="#F78CB6"/>
<path d="M41.7345 0H36.6969C36.0013 0 35.4375 0.563871 35.4375 1.25943C35.4375 1.95499 36.0013 2.51886 36.6969 2.51886H40.4751V6.38105C40.4751 7.07661 41.039 7.64048 41.7345 7.64048C42.4301 7.64048 42.994 7.07661 42.994 6.38105V1.25943C42.994 0.563871 42.4301 0 41.7345 0Z" fill="#F78CB6"/>
<path d="M6.30311 40.469H2.5249V36.6068C2.5249 35.9113 1.96103 35.3474 1.26547 35.3474C0.569914 35.3474 0.00604248 35.9113 0.00604248 36.6068V41.7285C0.00604248 42.424 0.56983 42.9879 1.26547 42.9879H6.30311C6.99867 42.9879 7.56254 42.424 7.56254 41.7285C7.56254 41.0329 6.99867 40.469 6.30311 40.469Z" fill="#F78CB6"/>
<path d="M41.7345 35.3474C41.039 35.3474 40.4751 35.9113 40.4751 36.6068V40.469H36.6969C36.0013 40.469 35.4375 41.0329 35.4375 41.7285C35.4375 42.424 36.0013 42.9879 36.6969 42.9879H41.7345C42.4301 42.9879 42.994 42.424 42.994 41.7285V36.6068C42.994 35.9113 42.4301 35.3474 41.7345 35.3474Z" fill="#F78CB6"/>
<path d="M39.6717 10.332L22.1313 0.16969C21.7409 -0.0565635 21.259 -0.0565635 20.8686 0.16969L3.32107 10.3319C2.93423 10.556 2.69278 10.9734 2.69278 11.4208C2.69278 11.4233 2.69303 11.4259 2.69303 11.4283V31.5782C2.69303 32.0299 2.93852 32.4527 3.33383 32.6753L20.8687 42.8303C21.0576 42.9397 21.2823 43 21.5001 43C21.7274 43 21.9496 42.9356 22.1315 42.8303L39.6592 32.6752C39.6621 32.6735 39.665 32.6718 39.6679 32.6701C40.0742 32.377 40.2931 32.1307 40.2992 31.5934C40.2993 31.5883 40.2997 31.5834 40.2997 31.5783V11.4285C40.2997 11.4259 40.3 11.4234 40.3 11.421C40.3 10.9731 40.0584 10.5557 39.6717 10.332ZM20.2406 39.5554L6.48174 31.5839L17.0889 25.501C17.6923 25.155 17.9009 24.3853 17.5548 23.782C17.2089 23.1786 16.4393 22.97 15.8358 23.316L5.21164 29.4042V13.5978L20.2406 22.2289V39.5554ZM21.5 20.0475L6.47989 11.4172L21.5 2.71492L36.5201 11.4172L21.5 20.0475ZM37.7891 29.4042L27.1642 23.316C26.5608 22.97 25.7912 23.1785 25.4452 23.7819C25.0991 24.3853 25.3077 25.1549 25.9111 25.5009L36.5183 31.5837L22.7593 39.5553V22.2289L37.789 13.5978V29.4042H37.7891Z" fill="#F78CB6"/>
</svg>
