<svg width="44" height="44" viewBox="0 0 44 44" fill="none" xmlns="http://www.w3.org/2000/svg">
<path d="M4.81756 18.2745L4.92152 18.3392L5.05362 18.127L4.92112 17.915L4.81728 17.9799L0.607921 15.36C0.230399 15.1251 0.000688682 14.7122 0 14.2675L0.250001 14.2672C0.250572 14.6256 0.435748 14.9584 0.739981 15.1477L0.740023 15.1477L5.18572 17.9147L5.52602 18.1265L5.18613 18.339L0.73845 21.119C0.434335 21.309 0.249741 21.6424 0.250087 22.001C0.250433 22.3596 0.43565 22.6927 0.740109 22.8822C0.740116 22.8823 0.740122 22.8823 0.740128 22.8823L5.18581 25.6493L5.52612 25.8611L5.18621 26.0735L0.738466 28.8533C0.738458 28.8533 0.73845 28.8533 0.738442 28.8533C0.43482 29.0431 0.250295 29.3758 0.250087 29.7339C0.249879 30.0919 0.434063 30.4248 0.737467 30.6149L0.610122 30.8182L0.737478 30.6149L21.4483 43.5914C21.6171 43.6972 21.8085 43.75 22 43.75C22.1915 43.75 22.383 43.6972 22.5516 43.5915L22.6804 43.7969L22.5517 43.5914L43.2625 30.6149C43.5669 30.4242 43.7512 30.0898 43.7499 29.7306C43.7486 29.3715 43.5618 29.0384 43.2561 28.8499L38.7844 26.0934L38.4409 25.8816L38.7835 25.6683L43.2599 22.8822L43.3728 23.0635L43.2599 22.8822C43.5653 22.6921 43.7507 22.3575 43.7499 21.9978C43.7491 21.6381 43.5623 21.3043 43.2561 21.1155L38.7844 18.359L38.4409 18.1472L38.7835 17.9339L43.2599 15.1477L43.3703 15.3251L43.2599 15.1477C43.5642 14.9583 43.7494 14.6255 43.7499 14.2672C43.7505 13.9087 43.5663 13.5754 43.2625 13.3851L43.3934 13.1762L43.2625 13.3851L22.5517 0.408561L22.6844 0.19671L22.5517 0.408561C22.2142 0.197146 21.7857 0.197146 21.4482 0.408561L21.3159 0.197285L21.4482 0.408561L0.737398 13.3851C0.737396 13.3851 0.737394 13.3851 0.737392 13.3851C0.433744 13.5753 0.249533 13.9087 0.250001 14.2672L4.81756 18.2745ZM3.59006 14.0503L3.25082 14.2628L3.5907 14.4744L21.8679 25.8502L22 25.9325L22.1321 25.8502L40.4093 14.4744L40.7492 14.2629L40.4099 14.0503L22.1327 2.59855L22 2.51538L21.8673 2.59855L3.59006 14.0503ZM40.4015 29.9552L40.7424 29.7416L40.4 29.5306L36.6021 27.1894L36.4703 27.1081L36.3389 27.1899L22.549 35.7728C22.381 35.8774 22.1906 35.9297 22 35.9297C21.8094 35.9297 21.619 35.8774 21.451 35.7728L21.3401 35.9509L21.451 35.7728L7.62299 27.1662L7.49061 27.0838L7.35838 27.1665L3.58669 29.5238L3.24791 29.7355L3.58645 29.9477L21.8673 41.4016L22 41.4848L22.1327 41.4016L40.4015 29.9552ZM21.8679 33.5846L22 33.6668L22.1321 33.5846L40.3951 22.2176L40.7376 22.0043L40.3941 21.7925L36.6021 19.455L36.4703 19.3738L36.3389 19.4556L22.549 28.0385C22.381 28.1431 22.1906 28.1954 22 28.1954C21.8094 28.1954 21.619 28.1431 21.451 28.0385L7.62299 19.4319L7.49061 19.3495L7.35839 19.4321L3.59245 21.7859L3.25254 21.9983L3.59284 22.2101L21.8679 33.5846Z" fill="#F78CB6" stroke="#F78CB6" stroke-width="0.5"/>
</svg>
