<svg width="532" height="532" viewBox="0 0 532 532" fill="none" xmlns="http://www.w3.org/2000/svg">
<path d="M464.422 248.905C469.494 259.288 474.707 270.483 472.969 281.889C470.898 295.522 459.448 305.786 447.733 313.245C438.334 319.225 428.099 324.38 419.881 331.706C418.189 333.174 417.021 335.154 416.556 337.345C416.09 339.536 416.352 341.82 417.301 343.849C428.398 366.967 436.657 391.343 441.897 416.446C442.086 417.363 442.066 418.31 441.839 419.219C441.612 420.127 441.184 420.972 440.586 421.692C439.988 422.413 439.235 422.989 438.384 423.379C437.533 423.768 436.605 423.961 435.669 423.944L395.769 423.378C393.67 423.539 391.568 423.117 389.694 422.16C387.771 420.598 386.416 418.446 385.84 416.036C376.855 390.71 367.87 365.383 358.885 340.058C357.419 335.926 355.931 331.546 356.772 327.253C357.671 322.642 361.076 318.964 364.445 315.662C371.187 309.053 378.355 302.892 385.902 297.22C389.697 294.37 393.705 291.511 396.033 287.397C400.36 279.747 397.702 270.242 394.952 261.907C410.959 246.758 442.968 243.479 464.422 248.905Z" fill="#74A3D7"/>
<path d="M282.753 323.225C285.058 318.232 290.77 315.88 295.975 313.974C313.719 307.475 324.383 300.975 342.127 294.478C347.178 292.628 352.459 290.621 355.949 286.562C359.439 282.503 360.309 275.707 356.337 272.107L356.323 271.863C360.659 266.73 365.997 262.536 372.01 259.538C378.024 256.54 384.586 254.802 391.295 254.429C393.582 254.299 395.877 254.418 398.138 254.784C396.364 256.005 394.68 257.355 393.102 258.822C392.978 258.944 392.889 259.097 392.845 259.265C392.801 259.433 392.802 259.61 392.85 259.777C394.191 263.566 395.208 267.462 395.89 271.423C396.633 275.399 396.268 279.502 394.836 283.285C393.03 286.926 390.322 290.045 386.97 292.345C380.08 297.707 373.219 302.999 366.798 308.932C361.154 314.151 353.761 320.156 353.823 328.574C353.997 331.984 354.741 335.341 356.025 338.505C351.553 339.581 347.029 340.546 342.502 341.5C341.487 341.706 340.526 342.121 339.681 342.719C338.835 343.317 338.123 344.083 337.589 344.971C337.056 345.858 336.712 346.847 336.581 347.874C336.45 348.901 336.534 349.944 336.827 350.937C342.017 368.247 351.739 387.259 352.964 404.861C353.338 410.225 355.61 416.772 349.731 419.124C348.245 419.673 346.651 419.871 345.075 419.702L325.784 419.75C320.067 419.267 313.912 418.606 309.647 414.811C306.583 412.085 304.976 408.143 303.508 404.332C295.301 383.038 288.926 359.088 283.095 337.038C281.894 332.5 280.775 327.503 282.753 323.225Z" fill="#74A3D7"/>
<path d="M247.557 150.604C250.973 147.449 255.906 145.107 259.852 142.647C274.38 133.48 289.609 125.475 305.398 118.707C338.141 104.857 373.154 97.7036 407.785 90.346C426.309 86.4057 465.347 107.528 485.184 151.115C505.02 194.701 515.011 235.775 480.683 248.183C423.951 268.688 367.236 278.005 310.656 298.929C310.656 298.929 252.881 171.893 249.065 162.26C247.591 158.536 244.286 153.626 247.557 150.604Z" fill="#F78CB6"/>
<path d="M245.702 148.751C249.426 145.373 253.956 143.191 258.204 140.583C262.856 137.726 267.513 134.892 272.262 132.204C281.719 126.821 291.451 121.937 301.419 117.572C321.685 109.036 342.65 102.265 364.081 97.3348C374.732 94.7492 385.445 92.4191 396.163 90.1333C402.678 88.7447 409.221 86.7178 415.942 87.4484C428.076 88.766 439.519 94.8539 449.205 102.004C462.528 111.955 473.658 124.545 481.9 138.989C486.627 147.539 490.742 156.415 494.214 165.548C497.659 173.947 500.525 182.572 502.793 191.362C506.214 205.116 508.291 221.106 501.486 234.202C498.361 240.046 493.56 244.822 487.7 247.917C483.512 249.984 479.164 251.709 474.698 253.076C469.229 254.968 463.732 256.782 458.206 258.52C436.586 265.337 414.646 271.061 392.742 276.871C370.802 282.691 348.879 288.628 327.347 295.833C321.984 297.625 316.651 299.5 311.346 301.458C310.789 301.612 310.196 301.577 309.661 301.359C309.125 301.141 308.677 300.751 308.386 300.252C306.269 295.599 304.153 290.944 302.038 286.287C297.012 275.22 291.988 264.151 286.964 253.08C280.935 239.772 274.912 226.461 268.894 213.144C263.734 201.714 258.591 190.278 253.466 178.834C251.839 175.191 250.224 171.543 248.62 167.89C248.063 166.616 247.514 165.337 246.972 164.055C245.766 161.629 244.738 159.118 243.897 156.543C243.461 155.204 243.397 153.771 243.712 152.399C244.027 151.026 244.71 149.765 245.686 148.751C246.183 148.285 246.841 148.031 247.522 148.042C248.203 148.053 248.852 148.328 249.334 148.81C249.815 149.291 250.091 149.94 250.102 150.621C250.113 151.302 249.86 151.96 249.395 152.457C249.102 152.712 248.891 153.047 248.786 153.421C248.681 153.794 248.687 154.19 248.804 154.56C249.048 155.683 249.423 156.774 249.921 157.809C250.542 159.196 251.163 160.574 251.744 161.978L251.962 162.51C252.157 162.987 251.71 161.925 251.836 162.212C251.888 162.331 251.937 162.452 251.989 162.567C252.225 163.118 252.462 163.668 252.698 164.218C254.159 167.587 255.651 170.937 257.144 174.29C262.016 185.225 266.922 196.143 271.863 207.046C277.804 220.217 283.759 233.381 289.727 246.539C294.907 257.973 300.092 269.402 305.283 280.829L310.379 292.049C311.179 293.808 312.128 295.563 312.802 297.369C312.832 297.448 312.873 297.525 312.908 297.603L309.947 296.399C331.078 288.596 352.7 282.244 374.429 276.34C395.796 270.534 417.271 265.122 438.544 258.962C449.38 255.826 460.164 252.5 470.841 248.854C473.521 247.939 476.194 247.003 478.86 246.047C480.581 245.462 482.264 244.769 483.898 243.973C485.395 243.232 486.839 242.387 488.218 241.445C488.55 241.219 488.874 240.985 489.197 240.748C489.238 240.718 489.593 240.452 489.296 240.68C489.435 240.574 489.571 240.464 489.706 240.354C490.341 239.841 490.955 239.303 491.548 238.74C493.684 236.781 495.453 234.456 496.773 231.876C497.429 230.691 497.982 229.452 498.424 228.171C498.939 226.721 499.362 225.241 499.692 223.738C499.854 223.009 499.995 222.275 500.115 221.537C500.293 220.491 500.293 220.427 500.396 219.425C500.573 217.753 500.651 216.074 500.665 214.393C500.68 210.901 500.443 207.412 499.956 203.955C497.463 186.512 490.724 169.708 483.517 153.748C476.69 138.247 466.728 124.328 454.257 112.866C449.166 108.217 443.592 104.128 437.629 100.669C432.718 97.7025 427.425 95.4238 421.896 93.8963C420.69 93.5682 419.47 93.2827 418.242 93.0522C417.689 92.9475 417.136 92.8748 416.583 92.7755C416.102 92.694 416.629 92.7755 416.705 92.7897L416.23 92.7312C415.918 92.694 415.605 92.662 415.293 92.6337C414.222 92.5355 413.146 92.4941 412.069 92.5095C411.591 92.5184 411.11 92.5397 410.633 92.5751C410.387 92.5929 410.142 92.6177 409.895 92.6408C409.048 92.7206 410.25 92.5627 409.558 92.6815C404.948 93.46 400.381 94.595 395.813 95.5703C390.563 96.6922 385.318 97.836 380.079 99.0017C358.999 103.441 338.243 109.3 317.953 116.54C298.032 124.177 278.906 133.749 260.852 145.117C257.006 147.479 252.78 149.41 249.41 152.464C246.915 154.72 243.195 151.022 245.702 148.751Z" fill="#F78CB6"/>
<path d="M255.027 255.973C236.612 215.524 228.178 159.905 245.421 152.056C262.663 144.207 300.777 166.683 319.191 207.132C337.605 247.582 344.516 281.76 312.098 298.537C295.287 307.242 273.448 296.423 255.027 255.973Z" fill="white"/>
<path d="M234.257 169.048C234.642 164.198 236.109 159.497 238.552 155.289C239.651 153.585 241.086 152.122 242.769 150.991C244.452 149.859 246.348 149.083 248.341 148.708C258.353 146.66 268.96 151.014 277.458 155.958C289.683 163.333 300.287 173.111 308.627 184.7C313.467 191.234 317.617 198.251 321.012 205.639C324.637 213.419 327.864 221.377 330.682 229.484C335.185 242.658 338.662 257.117 336.167 271.065C335.145 276.977 332.761 282.57 329.203 287.401C325.082 292.749 319.833 297.124 313.83 300.217C309.777 302.45 305.226 303.627 300.598 303.637C295.715 303.507 290.934 302.215 286.65 299.867C274.521 293.464 265.902 281.292 259.341 269.625C257.054 265.557 254.972 261.375 253.033 257.132C246.231 242.129 241.058 226.439 237.605 210.332C235.974 202.891 234.816 195.354 234.14 187.766C233.521 181.54 233.561 175.266 234.257 169.048ZM240.171 199.223C242.748 214.728 246.941 229.92 252.682 244.552C254.028 248.013 255.467 251.435 257 254.816C263.145 268.272 270.845 282.15 282.508 291.63C284.493 293.231 286.623 294.644 288.869 295.852C289.353 296.11 289.844 296.358 290.341 296.592C290.6 296.714 290.862 296.833 291.125 296.947L291.238 296.996C291.407 297.067 291.577 297.136 291.747 297.204C292.79 297.616 293.856 297.968 294.939 298.259C295.449 298.394 295.96 298.512 296.475 298.613C296.698 298.66 296.92 298.702 297.143 298.741C297.241 298.759 297.608 298.814 297.769 298.84C299.751 299.102 301.758 299.108 303.742 298.858C303.862 298.839 304.043 298.814 304.121 298.8C304.363 298.761 304.604 298.716 304.845 298.668C305.356 298.566 305.863 298.447 306.366 298.314C307.349 298.045 308.316 297.721 309.262 297.342C309.295 297.327 309.329 297.314 309.363 297.305C309.397 297.287 309.448 297.262 309.574 297.205C309.803 297.101 310.032 296.996 310.257 296.888C310.92 296.567 311.569 296.221 312.208 295.867C315.012 294.357 317.649 292.556 320.076 290.493C324.313 286.888 327.615 282.311 329.7 277.153C334.217 265.502 332.436 252.445 329.255 240.519C327.179 232.982 324.618 225.587 321.587 218.381C318.597 210.805 315.041 203.466 310.947 196.425C303.737 184.229 294.205 173.565 282.891 165.037C278.2 161.51 273.118 158.535 267.747 156.17C267.504 156.066 266.844 155.798 266.305 155.589C265.656 155.338 265.002 155.102 264.344 154.879C263.225 154.496 262.092 154.155 260.944 153.854C259.797 153.558 258.639 153.308 257.47 153.119C257.254 153.083 257.038 153.051 256.821 153.021C256.759 153.021 256.399 152.97 256.307 152.961C255.796 152.905 255.285 152.863 254.773 152.835C253.737 152.774 252.698 152.778 251.663 152.847C251.426 152.863 251.19 152.882 250.953 152.906C250.877 152.906 250.678 152.938 250.558 152.954C250.134 153.017 249.71 153.088 249.292 153.181C248.42 153.38 247.562 153.638 246.726 153.954C246.667 153.975 246.669 153.972 246.66 153.972L246.547 154.032C246.369 154.119 246.192 154.2 246.015 154.294C245.64 154.493 245.287 154.722 244.935 154.956C244.88 154.993 244.825 155.034 244.771 155.075C244.646 155.181 244.518 155.286 244.394 155.395C244.047 155.706 243.719 156.036 243.411 156.385C243.269 156.543 243.136 156.708 243 156.871C242.966 156.91 242.97 156.903 242.961 156.913L242.869 157.052C242.599 157.445 242.337 157.839 242.09 158.249C241.844 158.658 241.631 159.065 241.423 159.49C241.329 159.68 241.246 159.87 241.152 160.063C241.101 160.175 241.051 160.286 241.001 160.398L240.98 160.446L240.943 160.542C240.545 161.557 240.201 162.592 239.911 163.643C238.629 168.751 238.085 174.015 238.297 179.277C238.425 185.963 239.054 192.631 240.178 199.223H240.171Z" fill="#F78CB6"/>
<path d="M13.2113 453.032C17.0116 449.185 22.3298 447.002 27.398 445.394C36.316 442.786 45.4734 441.081 54.7322 440.303C69.52 438.707 84.4231 438.214 99.2872 438.036C121.174 437.774 143.074 438.302 164.941 439.193C184.448 439.989 203.979 441.12 223.406 443.19C236.256 444.399 249.018 446.402 261.62 449.189C269.263 450.725 276.654 453.323 283.577 456.908C287.664 458.909 291.006 462.163 293.114 466.195C294.269 469.214 294.616 472.482 294.122 475.675C293.971 478.546 293.035 481.32 291.414 483.694C288.832 486.831 285.412 489.168 281.552 490.433C275.047 492.708 268.292 494.191 261.432 494.85C249.684 496.234 237.874 497.016 226.047 497.195C207.508 497.675 188.952 497.455 170.416 497.017C148.182 496.485 125.944 495.696 103.749 494.248C88.2322 493.235 72.7155 491.928 57.3106 489.704C47.8597 488.521 38.5251 486.545 29.4054 483.797C23.9997 482.309 18.9436 479.762 14.5307 476.303C11.8374 474.063 9.97302 470.984 9.2355 467.559C8.94745 466.058 8.82846 464.53 8.88083 463.003C9.0029 459.249 10.5516 455.683 13.2113 453.032ZM12.8442 465.137C12.8602 465.371 12.9542 466.066 12.9347 465.984C12.9737 466.236 13.0109 466.488 13.0641 466.738C13.2198 467.423 13.4194 468.098 13.6617 468.758C13.6795 468.806 13.6759 468.798 13.6866 468.83C13.6972 468.862 13.6866 468.83 13.6866 468.83C13.7663 468.99 13.8355 469.157 13.9153 469.318C14.0855 469.659 14.27 469.991 14.4686 470.315C14.6761 470.653 14.9102 470.973 15.1354 471.299C15.1638 471.341 15.1531 471.331 15.1673 471.352C15.1815 471.373 15.1903 471.373 15.2418 471.434C15.3783 471.588 15.506 471.747 15.6426 471.902C16.2587 472.584 16.9243 473.22 17.634 473.805L17.9071 474.024C18.1004 474.17 18.2937 474.315 18.4905 474.455C18.9398 474.775 19.3985 475.079 19.8666 475.369C20.9045 476.009 21.9746 476.596 23.0728 477.126C23.697 477.429 24.3318 477.713 24.9685 477.993L25.1015 478.052L25.5484 478.229C25.9155 478.376 26.2825 478.523 26.6514 478.665C28.2031 479.261 29.7778 479.797 31.3667 480.29C35.3513 481.531 39.4141 482.499 43.4981 483.343C55.5019 485.691 67.6246 487.383 79.8124 488.411C98.6275 490.208 117.513 491.233 136.396 491.995C157.997 492.868 179.621 493.448 201.241 493.504C215.93 493.543 230.64 493.364 245.302 492.409C254.219 491.996 263.091 490.902 271.841 489.135C274.657 488.546 277.427 487.754 280.128 486.766C280.401 486.663 280.673 486.555 280.944 486.448L281.18 486.358L281.343 486.283C281.836 486.062 282.329 485.84 282.813 485.597C283.659 485.177 284.477 484.703 285.262 484.179C285.439 484.061 285.617 483.939 285.782 483.824C285.847 483.778 285.909 483.728 285.975 483.68C286.273 483.43 286.574 483.185 286.862 482.919C287.149 482.653 287.379 482.418 287.621 482.15C287.738 482.022 287.847 481.889 287.961 481.758L288.025 481.678C288.403 481.152 288.745 480.602 289.05 480.031C289.119 479.892 289.179 479.749 289.25 479.612V479.596C289.349 479.305 289.468 479.022 289.561 478.727C289.742 478.146 289.888 477.554 289.995 476.954C290.048 476.665 290.172 475.636 290.077 476.498C290.108 476.188 290.151 475.878 290.179 475.565C290.295 474.285 290.367 472.982 290.357 471.696C290.357 471.315 290.32 470.937 290.296 470.556V470.478V470.441C290.256 470.242 290.227 470.04 290.185 469.841C290.103 469.451 289.999 469.066 289.874 468.687C289.814 468.499 289.741 468.316 289.678 468.13C289.662 468.086 289.656 468.066 289.647 468.038L289.616 467.977C289.224 467.199 288.782 466.446 288.293 465.725C288.241 465.653 288.239 465.645 288.218 465.614C288.197 465.596 288.178 465.575 288.161 465.553C288 465.363 287.846 465.17 287.681 464.986C287.344 464.606 286.989 464.243 286.617 463.895C286.221 463.519 285.81 463.165 285.39 462.819L285.106 462.594L285.088 462.581C284.84 462.404 284.592 462.214 284.34 462.037C283.271 461.295 282.161 460.616 281.015 460.001C279.681 459.281 278.309 458.635 276.917 458.038L276.851 458.008L276.684 457.94L276.108 457.704C275.688 457.527 275.264 457.371 274.84 457.21C273.969 456.878 273.093 456.562 272.212 456.263C262.653 453.204 252.844 450.985 242.899 449.632C227.171 447.196 211.282 445.812 195.411 444.747C173.391 443.268 151.319 442.468 129.255 442.087C111.218 441.775 93.1532 441.778 75.1326 442.686C63.4761 443.112 51.8609 444.315 40.3646 446.288C36.4828 446.982 32.6452 447.904 28.8716 449.049C27.3395 449.528 25.825 450.06 24.3354 450.659C24.19 450.716 24.0464 450.776 23.9027 450.836L23.768 450.895C23.4381 451.042 23.1083 451.186 22.7802 451.338C22.1832 451.617 21.5921 451.913 21.0069 452.225C19.9813 452.768 18.992 453.378 18.0454 454.05C17.9337 454.129 17.5897 454.394 17.5542 454.415C17.4088 454.532 17.2634 454.647 17.1215 454.77C16.7586 455.077 16.4081 455.398 16.0699 455.733C15.7437 456.059 15.4369 456.399 15.1372 456.749C15.0769 456.818 15.0201 456.89 14.9598 456.961C14.8499 457.116 14.7364 457.266 14.63 457.423C14.3959 457.765 14.1796 458.119 13.9809 458.487C13.8852 458.664 13.6387 459.237 13.5695 459.373C13.3313 459.985 13.1386 460.613 12.9932 461.253C12.9542 461.43 12.9276 461.618 12.8904 461.801L12.8761 461.865V461.898C12.8513 462.271 12.807 462.641 12.7946 463.016C12.7892 463.709 12.7946 464.42 12.8442 465.128V465.137Z" fill="#F78CB6"/>
<path d="M186.271 320.03C178.768 320.03 172.685 313.947 172.685 306.444C172.685 298.941 178.768 292.859 186.271 292.859C193.774 292.859 199.856 298.941 199.856 306.444C199.856 313.947 193.774 320.03 186.271 320.03Z" fill="#74A3D7"/>
<path d="M151.584 265.48C146.201 265.48 141.836 261.116 141.836 255.732C141.836 250.349 146.201 245.984 151.584 245.984C156.968 245.984 161.333 250.349 161.333 255.732C161.333 261.116 156.968 265.48 151.584 265.48Z" fill="#74A3D7"/>
<path d="M131.351 447.068C122.33 447.068 115.017 439.755 115.017 430.734C115.017 421.713 122.33 414.4 131.351 414.4C140.372 414.4 147.685 421.713 147.685 430.734C147.685 439.755 140.372 447.068 131.351 447.068Z" fill="#74A3D7"/>
<path d="M242.977 187.393C236.881 187.393 231.94 182.452 231.94 176.356C231.94 170.261 236.881 165.319 242.977 165.319C249.073 165.319 254.014 170.261 254.014 176.356C254.014 182.452 249.073 187.393 242.977 187.393Z" fill="#74A3D7"/>
<path d="M266.837 220.654L308.319 236.109L300.357 191.304L266.837 220.654Z" fill="#F36E72"/>
<path d="M114.781 321.69L141.049 299.592L107.767 287.86L114.781 321.69Z" fill="#F36E72"/>
<path d="M183.928 465.674L226.533 429.835L172.554 410.805L183.928 465.674Z" fill="#F36E72"/>
<path d="M128.536 379.333L155.892 369.998L165.227 397.354L137.87 406.689L128.536 379.333Z" fill="#FEE253"/>
<path d="M214.234 329.928L238.34 336.89L231.377 360.996L207.272 354.033L214.234 329.928Z" fill="#FEE253"/>
<path d="M285.536 269.359L256.538 301.626L224.271 272.627L253.269 240.36L285.536 269.359Z" fill="#FEE253"/>
<path d="M201.475 257.688C201.488 257.349 201.632 257.028 201.876 256.792C202.121 256.556 202.447 256.424 202.787 256.424C203.127 256.424 203.453 256.556 203.698 256.792C203.942 257.028 204.086 257.349 204.098 257.688L204.042 262.06C205.844 258.937 208.253 256.205 211.126 254.026C213.998 251.847 217.278 250.264 220.771 249.37C222.41 248.967 223.108 251.498 221.468 251.898C218.338 252.691 215.395 254.096 212.81 256.031C210.224 257.967 208.048 260.395 206.405 263.175C207.067 262.802 207.76 262.486 208.475 262.23C210.071 261.662 210.752 264.195 209.172 264.759C206.863 265.592 204.942 267.245 203.774 269.403C203.624 269.645 203.4 269.832 203.135 269.936C202.871 270.04 202.579 270.057 202.305 269.982C202.03 269.908 201.787 269.746 201.611 269.523C201.436 269.299 201.337 269.024 201.33 268.74L201.475 257.688Z" fill="black"/>
<path d="M135.24 339.835L135.905 342.849C137.467 336.399 140 330.224 143.417 324.534C143.597 324.244 143.884 324.036 144.216 323.954C144.548 323.872 144.898 323.923 145.193 324.095C145.488 324.268 145.704 324.549 145.795 324.878C145.887 325.207 145.846 325.559 145.681 325.859C142.558 331.074 140.203 336.712 138.689 342.599C140.154 341.638 141.752 340.894 143.431 340.391C143.762 340.312 144.111 340.364 144.404 340.537C144.697 340.711 144.911 340.991 145.002 341.319C145.092 341.647 145.052 341.997 144.889 342.296C144.725 342.595 144.453 342.819 144.128 342.92C141.717 343.647 139.526 344.964 137.754 346.752C137.71 346.986 137.639 347.215 137.597 347.451C137.575 347.611 137.519 347.765 137.432 347.901C137.345 348.038 137.228 348.153 137.091 348.239C136.954 348.324 136.8 348.379 136.639 348.398C136.478 348.418 136.315 348.401 136.162 348.35C135.99 348.444 135.8 348.499 135.605 348.51C135.41 348.521 135.215 348.489 135.033 348.416C134.852 348.343 134.689 348.23 134.557 348.086C134.425 347.942 134.326 347.771 134.268 347.584C133.748 345.235 133.229 342.885 132.711 340.535C132.349 338.884 134.876 338.185 135.24 339.835Z" fill="black"/>
<path d="M162.437 221.431C162.125 219.782 164.65 219.076 164.966 220.734C165.164 221.81 165.295 222.897 165.36 223.99C167.96 218.192 171.977 213.143 177.043 209.306C178.387 208.287 179.703 210.564 178.367 211.571C173.632 215.195 169.914 219.982 167.575 225.467C168.81 224.997 170.129 224.782 171.449 224.837C173.131 224.908 173.139 227.529 171.449 227.46C169.505 227.367 167.602 228.048 166.16 229.356C166.108 229.533 166.043 229.694 165.995 229.867C165.936 230.099 165.808 230.309 165.628 230.467C165.448 230.625 165.224 230.725 164.986 230.753C164.952 230.805 164.902 230.84 164.87 230.893C164.704 231.158 164.449 231.354 164.151 231.448C163.853 231.542 163.531 231.526 163.243 231.405C162.956 231.284 162.72 231.064 162.579 230.785C162.439 230.506 162.401 230.186 162.475 229.882C162.982 227.087 162.969 224.222 162.437 221.431Z" fill="black"/>
<path d="M254.651 212.899C255.037 210.633 255.424 208.367 255.812 206.102C256.089 204.487 258.472 205.116 258.337 206.673C260.883 203.094 263.746 199.751 266.892 196.686C268.103 195.51 269.958 197.361 268.745 198.539C265.154 202.036 261.944 205.905 259.169 210.08C260.709 209.425 262.307 208.918 263.943 208.565C265.589 208.211 266.291 210.739 264.64 211.092C261.776 211.698 259.044 212.812 256.573 214.38C255.528 215.045 254.473 213.949 254.651 212.899Z" fill="black"/>
<path d="M250.56 312.421C250.636 314.194 250.712 315.963 250.787 317.728C253.342 312.831 256.842 308.489 261.083 304.95C262.372 303.886 264.236 305.725 262.936 306.804C258.912 310.142 255.582 314.235 253.133 318.852C254.132 318.261 255.176 317.748 256.256 317.32C257.83 316.709 258.511 319.243 256.952 319.849C254.576 320.783 252.423 322.208 250.634 324.031C250.448 324.207 250.215 324.325 249.963 324.372C249.712 324.418 249.452 324.391 249.215 324.293C248.978 324.195 248.775 324.031 248.63 323.82C248.485 323.609 248.403 323.361 248.396 323.105L247.939 312.421C247.866 310.732 250.487 310.736 250.56 312.421Z" fill="black"/>
<path d="M190.362 394.567L191.327 397.127C191.827 390.864 193.221 384.705 195.467 378.837C196.069 377.28 198.604 377.951 197.996 379.534C195.767 385.334 194.393 391.427 193.918 397.622L196.076 394.583C197.046 393.217 199.321 394.526 198.34 395.906L193.116 403.256C192.98 403.471 192.786 403.642 192.556 403.749C192.326 403.857 192.07 403.897 191.818 403.864C191.566 403.831 191.329 403.727 191.135 403.563C190.94 403.4 190.796 403.184 190.72 402.942C189.756 400.381 188.791 397.82 187.828 395.258C187.239 393.68 189.773 393.001 190.362 394.567Z" fill="black"/>
<path d="M98.8704 415.079L99.2659 415.983C99.4288 410.461 100.063 404.964 101.162 399.55C101.497 397.897 104.025 398.597 103.689 400.247C102.592 405.695 101.986 411.231 101.878 416.788L103.963 413.089C104.146 412.803 104.432 412.598 104.762 412.518C105.091 412.438 105.439 412.489 105.732 412.661C106.026 412.832 106.241 413.11 106.333 413.436C106.426 413.763 106.388 414.113 106.228 414.412L101.591 422.637C101.473 422.832 101.308 422.994 101.109 423.106C100.911 423.218 100.687 423.277 100.459 423.277C100.231 423.277 100.008 423.218 99.8092 423.106C99.611 422.994 99.4451 422.832 99.3279 422.637C98.42 420.558 97.5132 418.48 96.6076 416.402C95.9373 414.871 98.1965 413.541 98.8704 415.079Z" fill="black"/>
<path d="M124.408 364.193C123.062 364.193 121.97 363.101 121.97 361.755C121.97 360.408 123.062 359.316 124.408 359.316C125.755 359.316 126.847 360.408 126.847 361.755C126.847 363.101 125.755 364.193 124.408 364.193Z" fill="black"/>
<path d="M201.633 336.146C200.287 336.146 199.195 335.054 199.195 333.708C199.195 332.361 200.287 331.269 201.633 331.269C202.98 331.269 204.072 332.361 204.072 333.708C204.072 335.054 202.98 336.146 201.633 336.146Z" fill="black"/>
<path d="M216.331 295.297C214.984 295.297 213.892 294.206 213.892 292.859C213.892 291.512 214.984 290.421 216.331 290.421C217.677 290.421 218.769 291.512 218.769 292.859C218.769 294.206 217.677 295.297 216.331 295.297Z" fill="black"/>
<path d="M204.072 412.745C202.725 412.745 201.633 411.653 201.633 410.307C201.633 408.96 202.725 407.868 204.072 407.868C205.418 407.868 206.51 408.96 206.51 410.307C206.51 411.653 205.418 412.745 204.072 412.745Z" fill="black"/>
<path d="M177.711 361.755C176.364 361.755 175.273 360.663 175.273 359.316C175.273 357.97 176.364 356.878 177.711 356.878C179.058 356.878 180.149 357.97 180.149 359.316C180.149 360.663 179.058 361.755 177.711 361.755Z" fill="black"/>
<path d="M120.658 403.878C119.311 403.878 118.219 402.787 118.219 401.44C118.219 400.093 119.311 399.002 120.658 399.002C122.004 399.002 123.096 400.093 123.096 401.44C123.096 402.787 122.004 403.878 120.658 403.878Z" fill="black"/>
<path d="M156.938 290.298C155.592 290.298 154.5 289.206 154.5 287.86C154.5 286.513 155.592 285.422 156.938 285.422C158.285 285.422 159.377 286.513 159.377 287.86C159.377 289.206 158.285 290.298 156.938 290.298Z" fill="black"/>
<path d="M299.896 265.652C298.549 265.652 297.457 264.561 297.457 263.214C297.457 261.867 298.549 260.776 299.896 260.776C301.242 260.776 302.334 261.867 302.334 263.214C302.334 264.561 301.242 265.652 299.896 265.652Z" fill="black"/>
<path d="M194.552 209.794C193.206 209.794 192.114 208.702 192.114 207.356C192.114 206.009 193.206 204.917 194.552 204.917C195.899 204.917 196.991 206.009 196.991 207.356C196.991 208.702 195.899 209.794 194.552 209.794Z" fill="black"/>
<path d="M272.279 178.795C270.933 178.795 269.841 177.703 269.841 176.356C269.841 175.01 270.933 173.918 272.279 173.918C273.626 173.918 274.718 175.01 274.718 176.356C274.718 177.703 273.626 178.795 272.279 178.795Z" fill="black"/>
<path d="M292.048 93.0859C290.702 93.0859 289.61 91.9942 289.61 90.6476C289.61 89.3009 290.702 88.2092 292.048 88.2092C293.395 88.2092 294.487 89.3009 294.487 90.6476C294.487 91.9942 293.395 93.0859 292.048 93.0859Z" fill="black"/>
<path d="M270.575 97.2053C269.229 97.2053 268.137 96.1136 268.137 94.7669C268.137 93.4203 269.229 92.3286 270.575 92.3286C271.922 92.3286 273.014 93.4203 273.014 94.7669C273.014 96.1136 271.922 97.2053 270.575 97.2053Z" fill="black"/>
<path d="M278.756 101.359C279.323 102.081 280.055 102.657 280.891 103.039C281.726 103.421 282.64 103.599 283.558 103.557C284.475 103.515 285.37 103.254 286.166 102.797C286.963 102.339 287.639 101.699 288.138 100.928C289.057 99.5196 291.33 100.832 290.403 102.25C289.664 103.405 288.655 104.362 287.463 105.039C286.27 105.716 284.931 106.092 283.561 106.135C282.191 106.177 280.831 105.885 279.599 105.284C278.367 104.682 277.3 103.79 276.491 102.683C275.468 101.341 277.745 100.034 278.756 101.359Z" fill="black"/>
<path d="M256.663 64.5742C259.564 57.1815 264.184 50.586 270.141 45.3335C275.94 40.3548 282.916 36.9418 290.406 35.4188C297.826 33.6028 305.647 34.4352 312.518 37.772C314.2 38.6845 315.774 39.7832 317.21 41.0474C323.062 46.3035 326.187 54.0903 328.191 61.5276C328.723 63.4783 329.168 65.4644 329.555 67.4559C329.97 69.1094 330.067 70.8271 329.84 72.517C329.778 73.2097 329.52 73.8704 329.095 74.4211C328.67 74.9719 328.097 75.3898 327.442 75.6256C327.07 75.7198 326.681 75.7307 326.304 75.6575C327.522 78.5676 328.732 81.4829 329.881 84.4213C330.576 86.1947 331.259 87.9787 331.929 89.7733C331.991 89.9369 332.002 90.1156 331.961 90.2858C333.264 94.4944 333.556 98.9511 332.812 103.294C332.068 107.636 330.311 111.742 327.682 115.277C326.928 116.274 325.22 115.295 325.983 114.284C328.487 110.959 330.16 107.084 330.865 102.982C331.57 98.8801 331.285 94.669 330.035 90.699C329.986 90.5491 329.976 90.3891 330.007 90.2343C327.863 84.5242 325.563 78.8744 323.158 73.2689C321.935 71.8059 320.729 70.3269 319.514 68.8568C318.878 67.8507 318.003 67.017 316.968 66.4293C315.933 65.8417 314.769 65.5182 313.579 65.4875C314.51 65.7048 315.377 66.1394 316.109 66.7558C316.841 67.3722 317.416 68.1529 317.788 69.0341C318.368 70.2222 318.596 71.5509 318.447 72.8643C318.297 74.1777 317.776 75.4211 316.944 76.4484C316.13 77.4315 315.018 78.1221 313.776 78.4156C312.534 78.7091 311.23 78.5894 310.062 78.0746C308.909 77.5586 309.908 75.8632 311.055 76.3757C311.846 76.6711 312.712 76.7023 313.523 76.4648C314.333 76.2274 315.045 75.7339 315.552 75.0582C316.113 74.3018 316.448 73.4027 316.521 72.4642C316.593 71.5257 316.4 70.5857 315.962 69.7523C315.663 68.971 315.108 68.3146 314.386 67.8911C313.665 67.4676 312.821 67.3022 311.993 67.4222C311.112 67.6566 310.318 68.1438 309.71 68.8238C309.102 69.5039 308.707 70.3469 308.572 71.249C308.353 72.3946 306.742 72.0258 306.679 70.9901C306.384 71.3909 306.083 71.7846 305.767 72.1499C303.304 75.0314 300.24 77.3387 296.79 78.9098C293.397 80.4313 289.6 80.8091 285.973 79.9862C284.203 79.5752 282.532 78.8163 281.057 77.7536C280.458 77.1585 279.792 76.6343 279.073 76.1913C277.959 75.7444 277.403 76.6825 276.881 77.4823C275.948 78.901 274.789 80.7452 272.948 80.974C272.194 81.0496 271.437 80.8804 270.787 80.4913C270.137 80.1022 269.63 79.5141 269.341 78.8141C269.232 78.5236 269.034 78.2752 268.775 78.1045C268.516 77.9337 268.209 77.8494 267.899 77.8636C266.974 77.9274 266.658 78.7715 266.22 79.4436C265.741 80.1718 265.167 80.8327 264.512 81.4085C264.541 84.1161 264.846 86.8138 265.424 89.4594C267.88 100.724 275.998 111.823 288.394 112.481C291.449 112.646 294.498 112.064 297.279 110.788C300.059 109.511 302.488 107.576 304.354 105.152C306.312 102.661 307.74 99.7959 308.551 96.7329C309.361 93.67 309.537 90.4736 309.067 87.3403C308.863 86.0989 310.757 85.5669 310.963 86.8171C311.556 90.691 311.246 94.6495 310.057 98.3838C308.868 102.118 306.832 105.527 304.109 108.345C306.943 110.345 308.891 113.365 309.544 116.771C309.722 118.012 307.829 118.544 307.649 117.303C307.361 115.767 306.77 114.303 305.91 112.998C305.051 111.693 303.94 110.573 302.642 109.702C300.192 111.794 297.272 113.261 294.13 113.978C291.149 114.59 288.076 114.607 285.088 114.029C282.1 113.451 279.256 112.288 276.718 110.608C271.482 106.999 267.497 101.85 265.317 95.8753C263.669 91.6457 262.754 87.1659 262.611 82.6285C262.394 82.7391 262.171 82.838 261.943 82.9247C258.146 84.166 255.114 80.9421 254.355 77.4734C253.409 73.1731 255.087 68.5216 256.663 64.5742Z" fill="black"/>
<path d="M284.088 428.104C287.53 427.056 291.099 426.486 294.696 426.41C298.661 426.182 302.63 426.001 306.595 425.798L330.81 424.557C337.916 424.194 345.795 423.252 352.193 427.093C355.077 428.71 357.208 431.398 358.123 434.575C358.556 436.135 358.594 437.779 358.233 439.358C357.872 440.937 357.124 442.401 356.055 443.619C355.962 443.73 355.841 443.815 355.705 443.865C355.569 443.915 355.422 443.929 355.278 443.906C355.214 443.929 355.146 443.944 355.078 443.95C334.192 444.305 313.308 444.059 292.426 443.213C286.539 442.976 280.654 442.688 274.773 442.347C274.514 442.339 274.269 442.233 274.086 442.05C273.904 441.867 273.798 441.621 273.79 441.363C273.189 434.999 278.525 430.033 284.088 428.104Z" fill="black"/>
<path d="M408.126 427.708C415.574 426.696 423.353 425.953 430.753 427.708C433.995 428.512 437.038 429.974 439.69 432.004C442.342 434.034 444.548 436.588 446.171 439.508C446.609 440.348 446.823 441.288 446.793 442.235C446.762 443.182 446.487 444.105 445.996 444.915C445.504 445.725 444.812 446.395 443.986 446.859C443.159 447.324 442.228 447.567 441.28 447.566C439.491 447.628 437.694 447.616 435.905 447.641L414.788 447.937L407.477 448.04C404.617 448.233 401.744 447.975 398.965 447.275C397.816 446.968 396.744 446.427 395.814 445.687C394.884 444.947 394.117 444.023 393.559 442.973C392.994 441.758 392.723 440.426 392.768 439.087C392.813 437.747 393.172 436.436 393.817 435.261C396.542 430.033 402.765 428.437 408.126 427.708Z" fill="black"/>
<path d="M230.335 204.348C231.11 203.503 232.092 202.874 233.184 202.523C234.276 202.172 235.44 202.112 236.563 202.348C241.527 203.566 245.881 206.542 248.82 210.723C249.234 211.176 249.533 211.721 249.693 212.313C249.852 212.905 249.868 213.527 249.739 214.126C249.505 214.576 249.154 214.954 248.721 215.218C248.289 215.482 247.793 215.623 247.286 215.625C243.619 216.134 239.885 215.838 236.345 214.756C239.114 215.577 241.642 217.06 243.71 219.078C245.778 221.095 247.323 223.586 248.212 226.334C248.551 227.019 248.718 227.775 248.7 228.539C248.682 229.302 248.478 230.05 248.107 230.718C247.757 231.05 247.335 231.297 246.873 231.436C246.411 231.576 245.923 231.606 245.447 231.523C242.193 231.381 238.978 230.745 235.915 229.636C239.539 231.019 242.727 233.346 245.149 236.375C246.077 237.346 246.638 238.61 246.736 239.95C246.719 240.613 246.532 241.261 246.194 241.833C245.856 242.404 245.378 242.879 244.805 243.214C243.743 243.754 242.545 243.969 241.361 243.832C233.302 243.369 225.85 236.029 223.905 226.63C223.16 222.672 223.354 218.595 224.471 214.725C225.588 210.855 227.596 207.301 230.335 204.348Z" fill="white"/>
<path d="M221.901 219.691C222.415 213.536 224.975 207.731 229.171 203.199C235.109 197.313 244.229 202.845 248.678 207.941C250.151 209.3 251.142 211.101 251.501 213.073C251.549 213.967 251.286 214.85 250.756 215.571C250.226 216.293 249.462 216.808 248.595 217.029C247.228 217.397 245.814 217.565 244.399 217.528C246.775 219.822 248.595 222.63 249.719 225.736C250.803 228.717 250.455 232.686 246.619 233.126C245.882 233.198 245.139 233.201 244.401 233.137C246.327 234.656 247.698 236.769 248.302 239.146C248.477 240.562 248.104 241.992 247.26 243.141C246.415 244.291 245.162 245.074 243.759 245.33C241.322 245.7 238.83 245.407 236.545 244.482C226.719 240.819 220.991 229.867 221.901 219.691ZM226.641 230.053C228.111 233.855 230.67 237.139 233.998 239.492C235.477 240.521 237.12 241.292 238.857 241.771C240.531 242.216 243.379 242.835 244.622 241.248C246.249 239.18 243.28 236.575 241.902 235.275C240.051 233.514 237.872 232.135 235.488 231.216C233.537 230.482 234.351 227.347 236.359 228.056C239.15 229.07 242.072 229.678 245.036 229.863C246.156 229.923 247.103 230.04 247.057 228.652C246.941 227.484 246.593 226.352 246.036 225.32C245.11 223.172 243.723 221.255 241.972 219.704C240.222 218.153 238.152 217.007 235.908 216.347C235.499 216.222 235.155 215.943 234.948 215.569C234.742 215.194 234.69 214.754 234.803 214.342C234.917 213.929 235.187 213.578 235.556 213.362C235.925 213.145 236.364 213.082 236.779 213.185C239.907 214.13 243.192 214.44 246.442 214.098C247.584 213.972 248.65 213.883 247.992 212.502C247.296 211.254 246.402 210.127 245.344 209.166C242.172 205.974 235.57 201.479 231.495 205.52C228.484 208.753 226.434 212.762 225.575 217.095C224.716 221.429 225.082 225.916 226.632 230.053H226.641Z" fill="black"/>
<path d="M444.864 147.364C465.747 159.508 483.627 176.199 497.177 196.198C495.475 199.184 493.742 202.155 491.979 205.109C486.37 214.481 482.105 223.953 475.374 232.553C474.352 234.03 473.05 235.291 471.542 236.265C470.78 236.741 469.905 237.003 469.007 237.024C468.109 237.045 467.222 236.824 466.44 236.384C464.312 234.965 464.221 231.828 465.021 229.398C465.821 226.969 467.254 224.699 467.419 222.149C465.65 225.495 463.175 228.418 460.166 230.714C457.006 232.775 452.455 233.22 449.641 230.714C448.588 229.631 447.829 228.297 447.438 226.838C447.046 225.379 447.035 223.844 447.405 222.38C447.613 221.438 447.91 220.517 448.292 219.631C447.725 220.527 447.077 221.368 446.355 222.144C445.328 223.316 444.034 224.223 442.581 224.788C441.129 225.353 439.562 225.56 438.013 225.391C434.953 224.859 431.275 220.31 437.112 209.291C439.999 202.644 443.746 193.779 446.633 187.135C445.554 189.532 444.002 191.688 442.071 193.472C441.089 194.348 439.87 194.913 438.568 195.097C437.266 195.281 435.938 195.075 434.752 194.506C431.464 192.556 431.585 187.81 432.376 184.072C435.054 171.409 440.549 159.566 444.864 147.364Z" fill="white"/>
<path d="M432.236 177.78C433.601 172.866 435.309 168.057 437.105 163.289C439.162 157.832 441.333 152.418 443.284 146.921C443.337 146.794 443.407 146.675 443.491 146.566L443.518 146.522C443.589 146.411 443.672 146.309 443.768 146.219C443.999 145.946 444.322 145.768 444.676 145.716C445.029 145.663 445.39 145.741 445.69 145.935C462.078 155.529 476.702 167.858 488.927 182.389C492.382 186.535 495.61 190.863 498.599 195.356C498.746 195.607 498.824 195.892 498.824 196.183C498.824 196.474 498.746 196.759 498.599 197.01C495.976 201.607 493.212 206.12 490.619 210.734C488.186 215.07 485.863 219.466 483.311 223.734C480.944 228.056 478.085 232.088 474.79 235.752C473.254 237.477 471.096 238.521 468.79 238.655C467.77 238.678 466.764 238.423 465.878 237.918C464.993 237.412 464.262 236.674 463.764 235.784C462.937 234.104 462.709 232.192 463.117 230.365C461.902 231.638 460.419 232.625 458.776 233.254C457.133 233.884 455.371 234.142 453.617 234.007C452.07 233.896 450.583 233.364 449.316 232.469C448.049 231.574 447.051 230.35 446.43 228.929C445.882 227.638 445.594 226.252 445.584 224.85C444.519 225.703 443.295 226.335 441.982 226.707C440.67 227.079 439.296 227.185 437.942 227.017C436.918 226.852 435.951 226.434 435.129 225.802C434.306 225.169 433.655 224.342 433.232 223.394C432.105 220.417 432.112 217.129 433.252 214.157C434.088 211.887 435.044 209.662 436.114 207.493C437.017 205.408 437.915 203.322 438.806 201.234C439.56 199.473 440.32 197.714 441.074 195.952C440.341 196.312 439.561 196.567 438.756 196.707C437.805 196.871 436.83 196.839 435.891 196.614C434.951 196.39 434.068 195.976 433.293 195.399C432.519 194.823 431.87 194.094 431.386 193.259C430.902 192.423 430.592 191.498 430.477 190.539C429.764 186.28 431.097 181.852 432.236 177.78ZM436.268 193.386C437.198 193.591 438.165 193.555 439.077 193.28C439.989 193.005 440.815 192.501 441.477 191.816C443.02 190.196 444.285 188.331 445.22 186.298C446.234 184.395 448.868 186.067 448.057 187.952C446.43 191.701 444.816 195.455 443.218 199.215C441.583 203.04 440.109 207.007 438.223 210.713C436.496 213.588 435.623 216.895 435.708 220.248C435.782 221.06 436.052 221.842 436.495 222.527C436.652 222.758 436.838 222.969 437.049 223.153C437.357 223.451 437.049 223.187 437.251 223.318C437.416 223.424 437.582 223.518 437.756 223.609C437.629 223.543 437.719 223.623 437.994 223.694C438.193 223.748 438.396 223.789 438.6 223.816C439.669 223.921 440.748 223.762 441.741 223.351C443.883 222.399 445.675 220.804 446.869 218.787C447.829 217.338 450.593 218.228 449.865 220.049C449.295 221.208 448.96 222.468 448.877 223.757C448.795 225.046 448.968 226.338 449.386 227.56C449.822 228.566 450.558 229.414 451.492 229.99C452.426 230.565 453.515 230.839 454.61 230.776C460.134 230.718 463.409 225.469 466.005 221.309C466.805 220.028 469.212 220.422 469.059 222.137C468.777 224.191 468.175 226.189 467.275 228.058C466.495 229.574 466.138 231.272 466.243 232.974C466.263 233.352 466.367 233.72 466.548 234.053C466.728 234.386 466.98 234.675 467.285 234.899C467.59 235.123 467.942 235.276 468.314 235.348C468.685 235.419 469.068 235.407 469.435 235.313C471.274 234.707 472.843 233.477 473.868 231.835C479.438 224.871 483.444 216.824 487.796 209.081C490.215 204.772 492.781 200.545 495.244 196.26C484.966 181.185 472.112 168.039 457.272 157.424C453.525 154.72 449.646 152.202 445.701 149.799C442.839 157.641 439.613 165.351 437.011 173.292C435.583 177.334 434.485 181.486 433.727 185.705C433.344 188.262 433.216 192.407 436.268 193.391V193.386Z" fill="black"/>
<path d="M332.259 92.3269C332.259 92.3269 381.829 52.7178 405.753 46.1068C429.262 39.6146 455.241 40.4321 477.052 52.2727C508.267 69.2346 518.798 101.27 520.986 117.026C524.375 141.372 512.747 169.341 497.698 196.131C483.931 176.128 465.883 159.442 444.866 147.281C445.133 146.493 445.415 145.711 445.669 144.919C450.118 131.055 456.841 112.492 446.543 102.199C439.414 95.0756 417.267 85.7833 408.548 87.6365C373.916 94.994 326.838 114.781 326.838 114.781C332.053 107.984 334.928 100.468 332.259 92.3269Z" fill="#FFE8AB"/>
<path d="M325.423 113.953C327.855 110.937 329.704 107.494 330.874 103.8C331.912 100.184 331.844 96.3402 330.679 92.763C330.651 92.6428 330.638 92.5195 330.64 92.396C330.64 92.3605 330.64 92.3286 330.629 92.2931C330.623 92.1118 330.652 91.931 330.716 91.7611C330.728 91.7182 330.743 91.6761 330.76 91.6352C330.825 91.511 330.908 91.397 331.005 91.2965C331.042 91.2575 331.057 91.2007 331.101 91.1653C334.078 88.7854 337.107 86.4695 340.145 84.1659C347.066 78.9168 354.1 73.8173 361.248 68.8674C369.469 63.1927 377.857 57.7113 386.606 52.8613C390.411 50.7174 394.326 48.7758 398.335 47.0447C402.817 45.2007 407.468 43.7961 412.222 42.8508C426.215 39.7827 440.69 39.6379 454.741 42.4252C468.11 45.1818 480.604 51.1595 491.139 59.8393C499.738 67.055 506.867 75.8584 512.139 85.769C516.394 93.6239 519.546 102.028 521.504 110.745C523.816 121.913 523.646 133.454 521.005 144.55C517.753 159.268 511.598 173.278 504.691 186.62C502.89 190.097 501.028 193.542 499.105 196.955C498.957 197.199 498.749 197.401 498.5 197.541C498.252 197.681 497.971 197.755 497.686 197.755C497.401 197.755 497.12 197.681 496.872 197.541C496.623 197.401 496.415 197.199 496.267 196.955C485.737 181.561 472.565 168.151 457.362 157.346C453.057 154.26 448.616 151.377 444.039 148.696C443.73 148.511 443.489 148.231 443.353 147.897C443.217 147.563 443.193 147.194 443.285 146.846C445.707 140.193 447.706 133.394 449.27 126.488C450.512 120.445 451.253 113.461 448.465 107.714C446.094 102.827 441.349 99.8865 436.738 97.3666C431.389 94.4233 425.718 92.1091 419.837 90.4701C417.373 89.7397 414.84 89.2701 412.279 89.0692C409.821 89.0428 407.374 89.3902 405.02 90.0995C398.216 91.6813 391.483 93.5557 384.804 95.5809C372.102 99.4308 359.565 103.829 347.148 108.526C342.738 110.19 338.345 111.896 333.968 113.646C331.84 114.499 329.725 115.472 327.563 116.251C327.467 116.286 327.375 116.329 327.281 116.37C326.966 116.453 326.634 116.442 326.325 116.337C326.017 116.231 325.746 116.038 325.548 115.779C325.349 115.521 325.231 115.21 325.209 114.885C325.187 114.56 325.261 114.236 325.423 113.953ZM343.246 106.505C355.718 101.734 368.314 97.2567 381.07 93.2968C387.952 91.1688 394.888 89.1738 401.892 87.4749C404.694 86.6295 407.57 86.0588 410.482 85.7708C413.057 85.7365 415.625 86.0345 418.124 86.6574C424.238 88.1074 430.156 90.2883 435.749 93.1532C440.608 95.5738 445.882 98.4608 449.269 102.828C453.381 108.136 454.069 115.064 453.347 121.55C452.338 128.664 450.61 135.658 448.189 142.423C447.742 143.805 447.286 145.183 446.821 146.557C462.864 156.049 477.22 168.139 489.302 182.334C492.206 185.781 494.923 189.383 497.516 193.07C504.675 180.624 510.569 167.491 515.107 153.869C518.916 141.769 521.229 128.783 519.205 116.125C517.915 108.306 515.596 100.692 512.307 93.4812C508.065 83.9408 502.167 75.2264 494.888 67.7413C485.886 58.6096 474.806 51.7948 462.595 47.88C449.268 43.7758 435.202 42.6492 421.392 44.5798C415.401 45.2827 409.493 46.5752 403.756 48.4386C400.092 49.7361 396.526 51.296 393.086 53.106C384.547 57.5847 376.278 62.5604 368.321 68.0073C360.755 73.0684 353.346 78.3636 346.047 83.8024C343.394 85.7779 340.757 87.7752 338.136 89.7945L337.724 90.1101L337.714 90.119L337.605 90.2023L336.868 90.7751L335.671 91.7061C335.151 92.1122 334.635 92.5183 334.117 92.9262C334.851 96.0337 334.962 99.2556 334.444 102.406C333.927 105.557 332.791 108.574 331.103 111.284C335.139 109.652 339.187 108.059 343.246 106.505Z" fill="black"/>
<path d="M265.789 149.343C264.89 149.401 263.998 149.152 263.259 148.638C262.519 148.124 261.975 147.375 261.716 146.513C261.456 145.65 261.496 144.725 261.829 143.889C262.162 143.052 262.768 142.352 263.549 141.904C263.549 141.904 292.777 123.318 308.608 117.026C341.351 104.006 395.469 79.3709 426.756 89.8779C461.636 101.582 449.746 147.573 417.063 147.511C363.001 147.398 297.124 149.407 265.789 149.343Z" fill="#F78CB6"/>
<path d="M265.789 151.964C264.773 151.972 263.768 151.753 262.848 151.322C261.928 150.891 261.116 150.259 260.472 149.473C259.829 148.687 259.369 147.766 259.128 146.779C258.887 145.792 258.87 144.764 259.079 143.769C259.376 142.787 259.87 141.876 260.53 141.091C261.19 140.306 262.003 139.663 262.92 139.201C266.607 136.881 270.322 134.605 274.063 132.374C280.093 128.765 286.195 125.243 292.398 121.925C298.322 118.752 304.415 115.906 310.651 113.401C317.579 110.615 324.483 107.765 331.422 105.006C339.118 101.947 346.85 98.9874 354.679 96.2742C362.585 93.5344 370.582 91.0358 378.704 89.0248C386.432 87.0427 394.31 85.6964 402.258 84.9993C409.26 84.3354 416.322 84.7281 423.208 86.1644C429.748 87.5409 435.823 90.5766 440.851 94.9797C445.059 98.8056 448.069 103.769 449.517 109.269C450.857 114.57 450.814 120.126 449.395 125.407C447.968 130.739 445.267 135.645 441.525 139.701C437.609 143.918 432.644 147.018 427.137 148.687C424.134 149.581 421.023 150.064 417.89 150.121C413.407 150.219 408.913 150.121 404.43 150.139C394.911 150.172 385.394 150.249 375.879 150.368C366.333 150.486 356.788 150.624 347.245 150.783C338.116 150.933 328.988 151.093 319.86 151.263C311.591 151.412 303.321 151.554 295.049 151.689C288.08 151.797 281.111 151.895 274.141 151.941C271.36 151.96 268.578 151.967 265.796 151.964C265.112 151.946 264.463 151.662 263.986 151.172C263.509 150.683 263.241 150.026 263.241 149.342C263.241 148.658 263.509 148.002 263.986 147.512C264.463 147.022 265.112 146.738 265.796 146.72C279.344 146.747 292.894 146.491 306.441 146.257C324.087 145.952 341.73 145.612 359.382 145.348C377.894 145.071 396.407 144.864 414.923 144.881C416.666 144.881 418.406 144.908 420.143 144.754C420.498 144.722 420.853 144.681 421.197 144.642C421.816 144.573 420.58 144.738 421.197 144.642C421.374 144.615 421.541 144.592 421.711 144.564C422.443 144.445 423.172 144.301 423.892 144.131C425.239 143.815 426.563 143.406 427.854 142.908C428.049 142.833 429.081 142.485 428.281 142.741C428.585 142.628 428.881 142.495 429.168 142.344C429.793 142.049 430.409 141.733 431.014 141.395C432.148 140.748 433.242 140.033 434.289 139.253C434.429 139.15 434.889 138.877 434.252 139.285C434.38 139.203 434.499 139.09 434.617 138.996C434.857 138.8 435.096 138.602 435.327 138.4C435.832 137.963 436.325 137.513 436.8 137.041C437.701 136.138 438.552 135.186 439.35 134.192C439.705 133.762 438.987 134.692 439.313 134.241C439.404 134.117 439.491 133.997 439.586 133.874C439.767 133.629 439.945 133.382 440.118 133.131C440.492 132.591 440.847 132.038 441.182 131.473C441.831 130.394 442.414 129.276 442.927 128.127C442.995 127.992 443.054 127.854 443.105 127.712C442.895 128.439 443 127.967 443.073 127.783C443.183 127.504 443.294 127.224 443.401 126.942C443.628 126.335 443.836 125.719 444.025 125.094C444.389 123.901 444.679 122.686 444.894 121.457C444.938 121.213 444.975 120.968 445.014 120.721C445.053 120.475 445.222 120.106 445.004 120.828C445.034 120.681 445.052 120.532 445.057 120.383C445.132 119.743 445.185 119.1 445.217 118.453C445.278 117.212 445.259 115.968 445.162 114.729C445.138 114.434 445.11 114.138 445.077 113.843C445.076 113.693 445.058 113.545 445.023 113.399C445.261 114.022 445.08 113.786 445.036 113.507C444.935 112.869 444.823 112.232 444.681 111.601C444.409 110.381 444.054 109.181 443.617 108.01C443.53 107.72 443.419 107.439 443.284 107.168C443.722 107.905 443.22 107.028 443.124 106.813C442.845 106.213 442.545 105.621 442.223 105.04C441.615 103.889 440.899 102.799 440.085 101.784C440.627 102.428 439.923 101.596 439.797 101.443C439.59 101.197 439.379 100.952 439.164 100.713C438.691 100.184 438.198 99.6748 437.684 99.1842C437.198 98.7196 436.696 98.2721 436.178 97.8418C436.031 97.7195 435.142 97.0296 435.77 97.5031C435.446 97.2584 435.119 97.0154 434.786 96.7796C433.541 95.9062 432.238 95.12 430.885 94.4264C430.201 94.0717 429.507 93.7407 428.803 93.4333C428.693 93.3854 428.074 93.1301 428.703 93.3872L428.15 93.162C427.71 92.9882 427.268 92.8215 426.822 92.6619C425.353 92.138 423.857 91.6946 422.341 91.3337C420.869 90.979 419.379 90.7024 417.881 90.486C417.746 90.4665 417.083 90.3814 417.813 90.4736L417.235 90.4009C416.846 90.3548 416.457 90.3122 416.068 90.2732C415.214 90.1869 414.357 90.1184 413.499 90.0675C410.035 89.8757 406.563 89.9083 403.104 90.1651C401.281 90.2927 399.462 90.4701 397.647 90.6971L396.982 90.7804C396.888 90.7928 396.143 90.8903 396.79 90.8035C396.344 90.8637 395.904 90.9276 395.45 90.9914C394.473 91.1357 393.498 91.2899 392.524 91.4543C384.662 92.836 376.893 94.7016 369.261 97.0403C353.879 101.642 338.921 107.538 324.054 113.57C320.734 114.915 317.415 116.263 314.096 117.613C312.554 118.236 311.01 118.855 309.466 119.471C309.154 119.595 308.844 119.719 308.533 119.847L308.071 120.039C307.517 120.269 308.629 119.797 308.071 120.039C307.361 120.344 306.663 120.652 305.964 120.97C299.78 123.78 293.795 127.036 287.885 130.368C282.366 133.485 276.906 136.702 271.504 140.021C269.824 141.048 268.149 142.083 266.479 143.126L265.188 143.938L264.908 144.115L264.856 144.147C264.799 144.184 264.737 144.223 264.679 144.253C264.442 144.42 264.465 144.397 264.746 144.183C264.652 144.261 264.569 144.342 264.477 144.429C264.324 144.58 264.111 144.989 264.436 144.429C264.353 144.573 264.259 144.718 264.177 144.858C263.9 145.305 264.251 144.326 264.193 144.833C264.182 144.933 264.035 145.206 264.079 145.3L264.133 144.917C264.122 145.023 264.117 145.128 264.117 145.232C264.145 145.587 263.939 145.662 264.069 145.165C264.039 145.282 264.147 145.52 264.17 145.628L264.214 145.78C264.31 146.043 264.28 145.981 264.124 145.603C264.124 145.725 264.292 145.919 264.347 146.025L264.434 146.162C264.594 146.386 264.554 146.338 264.315 146.016C264.337 146.126 264.581 146.291 264.656 146.371C265.03 146.775 264.161 146.101 264.656 146.371C264.796 146.469 264.946 146.554 265.103 146.623C265.085 146.642 264.535 146.445 265.136 146.623C265.314 146.676 265.491 146.71 265.681 146.745C264.987 146.607 265.605 146.711 265.769 146.715C266.119 146.706 266.468 146.767 266.794 146.895C267.12 147.022 267.417 147.214 267.668 147.458C267.919 147.703 268.118 147.995 268.254 148.317C268.39 148.64 268.46 148.987 268.46 149.337C268.46 149.687 268.39 150.034 268.254 150.356C268.118 150.679 267.919 150.971 267.668 151.215C267.417 151.46 267.12 151.651 266.794 151.779C266.468 151.907 266.119 151.968 265.769 151.959L265.789 151.964Z" fill="#F78CB6"/>
<path d="M385.168 92.2258C395.321 88.8534 406.156 88.0701 416.689 89.947C417.943 90.2979 419.009 91.1304 419.652 92.2631C420.295 93.3958 420.465 94.7369 420.124 95.9941C419.746 97.2313 418.909 98.2767 417.784 98.9154C416.659 99.554 415.333 99.7372 414.077 99.4273C413.557 99.312 413.032 99.2267 412.502 99.1719H412.442C412.087 99.1311 411.733 99.0903 411.388 99.0531C410.261 98.9349 409.131 98.8515 408 98.803C405.595 98.6954 403.185 98.7369 400.786 98.9272C400.222 98.9715 399.658 99.0229 399.094 99.085C398.819 99.1134 398.542 99.1506 398.266 99.1808C397.087 99.3705 395.911 99.5585 394.74 99.8014C392.384 100.296 390.061 100.934 387.782 101.711C386.525 102.049 385.186 101.878 384.054 101.236C382.922 100.593 382.089 99.5305 381.735 98.2781C381.417 97.0213 381.597 95.6905 382.237 94.563C382.876 93.4355 383.926 92.5983 385.168 92.2258Z" fill="#FFD2D9"/>
<path d="M419.817 160.474C421.114 160.496 422.352 161.021 423.269 161.938C424.186 162.855 424.711 164.093 424.733 165.39V165.968C424.733 167.272 424.215 168.522 423.293 169.444C422.371 170.366 421.121 170.884 419.817 170.884C418.513 170.884 417.263 170.366 416.341 169.444C415.419 168.522 414.901 167.272 414.901 165.968V165.39C414.914 164.09 415.436 162.847 416.356 161.928C417.275 161.009 418.517 160.487 419.817 160.474Z" fill="white"/>
<path d="M341.601 195.572C342.753 194.256 343.879 192.919 344.979 191.561C345.318 191.14 345.649 190.718 345.984 190.296L346.103 190.149L346.203 190.016C346.69 189.372 347.176 188.729 347.653 188.078C349.76 185.204 351.74 182.242 353.594 179.192C355.41 176.202 357.096 173.14 358.653 170.006C359.43 168.439 360.174 166.857 360.886 165.259C361.075 164.829 361.262 164.397 361.451 163.966L361.526 163.789L361.584 163.647C361.939 162.774 362.294 161.903 362.636 161.026C363.011 159.789 363.847 158.744 364.971 158.106C366.096 157.468 367.422 157.287 368.676 157.6C370.996 158.35 373.109 161.081 372.109 163.647C369.56 170.164 366.498 176.47 362.953 182.504C371.139 179.5 379.457 176.899 387.908 174.702C389.158 174.375 390.487 174.554 391.607 175.2C392.727 175.846 393.547 176.906 393.891 178.153C394.234 179.399 394.073 180.73 393.443 181.858C392.812 182.987 391.763 183.821 390.522 184.182C380.928 186.678 371.481 189.708 362.226 193.26C372.726 194.052 383.125 196.849 393.26 199.743C393.892 199.906 394.485 200.193 395.005 200.587C395.525 200.982 395.961 201.476 396.289 202.041C396.616 202.605 396.827 203.23 396.91 203.877C396.994 204.524 396.947 205.182 396.774 205.811C396.601 206.44 396.304 207.029 395.901 207.542C395.497 208.056 394.996 208.483 394.426 208.801C393.856 209.119 393.228 209.32 392.579 209.392C391.93 209.464 391.274 209.407 390.648 209.223C383.127 206.926 375.476 205.078 367.736 203.689C367.3 203.62 366.862 203.553 366.424 203.486L365.892 203.412L365.766 203.396C364.817 203.295 363.872 203.174 362.929 203.089C361.04 202.912 359.143 202.816 357.254 202.797C355.365 202.777 353.471 202.843 351.579 203.004C350.999 203.054 350.42 203.119 349.84 203.181L349.643 203.201L349.41 203.238C348.396 203.403 347.387 203.58 346.382 203.791C345.336 204.058 344.233 203.982 343.234 203.576C342.234 203.169 341.392 202.453 340.829 201.532C340.315 200.584 340.113 199.497 340.251 198.427C340.39 197.357 340.862 196.358 341.601 195.572Z" fill="white"/>
<path d="M404.304 166.447C405.601 166.469 406.839 166.994 407.757 167.912C408.674 168.829 409.199 170.067 409.222 171.364V171.942C409.197 173.23 408.668 174.457 407.749 175.359C406.83 176.261 405.593 176.766 404.305 176.766C403.017 176.766 401.78 176.261 400.861 175.359C399.942 174.457 399.413 173.23 399.388 171.942V171.364C399.401 170.064 399.923 168.821 400.842 167.901C401.761 166.982 403.004 166.46 404.304 166.447Z" fill="white"/>
</svg>
