<svg width="796" height="791" viewBox="0 0 796 791" fill="none" xmlns="http://www.w3.org/2000/svg">
<path d="M467.19 155.934C232.789 138.179 70.7296 -21.42 19 -99L901 -98.4002V676C867.925 669.762 802.534 620.214 773.973 596.221C727.836 557.831 682.193 431 695.48 353.883C712 258 676.705 212.52 655.334 194.324C621.78 154.015 526.5 157.5 467.19 155.934Z" fill="#FCF2F6" fill-opacity="0.61"/>
<path d="M543.48 192.728C317.416 128.273 190.7 -60.6138 155.6 -147L1019.52 30.6704L864.04 789.302C832.891 776.55 778.78 714.883 755.617 685.643C718.127 638.772 697.98 519 727.378 432.481C760.5 335 737.368 290.226 720.085 268.111C695.307 221.885 608.5 211.267 543.48 192.728Z" stroke="#FEDDE8" stroke-width="2" stroke-linecap="round" stroke-linejoin="round"/>
</svg>
