<svg width="199" height="442" viewBox="0 0 199 442" fill="none" xmlns="http://www.w3.org/2000/svg">
<path fill-rule="evenodd" clip-rule="evenodd" d="M146.902 263.345C141.616 249.999 129.717 241.005 124.29 227.716C117.596 211.324 105.418 193.739 111.733 177.221C118.029 160.75 140.12 158.173 154.675 148.229C169.291 138.243 181.034 125.22 197.472 118.642C220.292 109.51 248.908 87.3322 267.995 102.883C288.301 119.426 268.202 153.845 272.397 179.685C275.028 195.891 285.951 209.1 287.886 225.403C290.274 245.523 294.52 267.063 284.881 284.86C274.663 303.726 254.485 314.551 234.881 323.27C213.534 332.765 186.922 350.207 167.581 337.033C146.054 322.37 156.49 287.558 146.902 263.345Z" fill="#FFECF2"/>
<path fill-rule="evenodd" clip-rule="evenodd" d="M137.798 274.579C131.683 259.137 117.914 248.73 111.635 233.354C103.889 214.386 89.7985 194.039 97.1046 174.926C104.39 155.867 129.951 152.885 146.793 141.379C163.705 129.824 177.293 114.755 196.313 107.144C222.719 96.5777 255.83 70.9154 277.916 88.9087C301.411 108.051 278.155 147.878 283.009 177.776C286.053 196.529 298.692 211.813 300.931 230.677C303.694 253.957 308.608 278.882 297.454 299.475C285.632 321.305 262.283 333.83 239.6 343.919C214.899 354.905 184.106 375.087 161.726 359.844C136.817 342.878 148.894 302.596 137.798 274.579Z" stroke="#FFD0E0" stroke-width="2"/>
</svg>
