<svg width="250" height="250" viewBox="0 0 250 250" fill="none" xmlns="http://www.w3.org/2000/svg">
<g opacity="0.8">
<path d="M104.534 171.038C103.968 170.14 103.229 169.363 102.361 168.752C101.492 168.141 100.512 167.708 99.475 167.478C98.9345 167.319 98.3701 167.259 97.8083 167.298C92.9292 167.275 93.8083 160.493 91.955 157.506C90.8006 155.648 89.2043 154.106 87.3086 153.015C85.413 151.924 83.2769 151.32 81.0908 151.256C79.0288 151.294 77.0146 151.884 75.2575 152.964C73.1267 154.222 71.2033 154.353 69.2342 152.658C65.685 149.603 62.1567 147.333 57.3175 147.033C52.7471 146.822 48.2795 148.431 44.8925 151.507C43.1146 153.083 41.6276 154.96 40.4992 157.052C39.3467 159.193 38.23 161.308 35.6925 159.366C31.8442 156.419 27.5675 155.234 22.8408 156.992C20.7631 157.812 18.8708 159.041 17.2758 160.605C15.6808 162.169 14.4153 164.037 13.5542 166.098C12.7502 168.127 12.2078 170.249 11.94 172.415C11.475 175.237 10.2983 175.839 7.9525 177.165C3.9525 179.424 3.51333 184.566 4.81833 188.582C6.00666 192.237 9.15167 195.628 13.2983 195.118C15.4175 194.858 16.9017 194.068 18.6242 195.851C20.3467 197.633 21.6775 199.509 23.7808 200.951C31.4133 206.181 41.3983 205.32 49.4417 201.525C54.0167 199.367 57.7475 196.227 61.5742 192.998C65.9717 189.29 68.475 195.498 71.8242 197.597C73.778 198.844 76.0167 199.576 78.3303 199.721C80.644 199.867 82.9567 199.423 85.0517 198.43C87.0722 197.427 88.8388 195.979 90.2183 194.195C91.4817 192.573 92.0808 189.993 93.8733 188.877C95.54 187.835 97.6525 188.449 99.4525 187.627C101.499 186.567 103.172 184.908 104.248 182.87C106.325 179.292 106.866 174.632 104.534 171.038ZM97.9683 187.196C95.7417 187.728 93.7742 187.173 92.1242 189.211C90.4742 191.248 89.8117 193.647 87.7867 195.476C86.1542 196.983 84.1544 198.035 81.9875 198.526C79.8206 199.017 77.5628 198.93 75.44 198.274C73.3319 197.589 71.4139 196.419 69.84 194.858C68.27 193.303 67.3658 191.088 64.9108 190.831C62.6425 190.593 61.2075 192.118 59.6608 193.503C57.7985 195.175 55.8073 196.699 53.7058 198.059C49.8344 200.637 45.4969 202.435 40.9367 203.352C36.2562 204.291 31.3988 203.737 27.05 201.768C24.9751 200.795 23.0889 199.462 21.4783 197.832C19.9783 196.306 19.0083 194.113 16.6867 193.716C14.55 193.351 12.7467 194.655 10.55 193.905C9.55622 193.517 8.65286 192.929 7.89617 192.178C7.13948 191.426 6.54565 190.526 6.15166 189.535C4.60833 186.103 4.31 180.628 7.85417 178.278C9.82667 176.969 11.7708 176.626 12.5467 174.058C13.2508 171.713 13.2467 169.288 14.1892 166.969C14.9782 164.915 16.1818 163.046 17.7248 161.477C19.2679 159.908 21.1175 158.674 23.1583 157.852C25.3732 156.991 27.7954 156.815 30.1117 157.345C32.6 157.956 33.9558 159.723 36.1117 160.775C38.13 161.761 39.7417 160.517 40.6575 158.795C41.7281 156.594 43.1393 154.575 44.8392 152.813C46.4384 151.198 48.3549 149.931 50.4679 149.092C52.5809 148.254 54.8447 147.862 57.1167 147.942C59.3765 148.065 61.5884 148.641 63.6208 149.637C65.9542 150.778 67.4167 152.764 69.5558 154.085C71.8892 155.524 73.8433 154.785 76.0208 153.575C77.9786 152.446 80.2523 151.99 82.4942 152.275C84.7216 152.603 86.8149 153.541 88.5425 154.985C90.2702 156.429 91.5648 158.322 92.2833 160.456C92.97 162.677 92.6792 165.206 94.5258 166.902C95.2336 167.606 96.1576 168.051 97.1492 168.167C97.3575 168.204 97.5694 168.218 97.7808 168.208C98.3941 168.331 99.015 168.413 99.6392 168.453C103.323 169.453 105.347 173.408 105.175 177.03C104.987 180.989 102.092 186.21 97.9683 187.196Z" fill="#B5E6D2"/>
<path d="M119.988 120.485C119.8 118.818 119.615 117.158 119.413 115.497C118.718 109.801 117.94 104.116 117.079 98.4417C117.013 98.005 116.349 98.1917 116.413 98.625C117.433 105.37 118.333 112.132 119.113 118.91C119.37 119.453 119.663 119.98 119.988 120.485Z" fill="black"/>
<path d="M121.612 125.482C121.523 123.267 120.869 121.112 119.712 119.221C119.036 118.122 118.099 117.207 116.984 116.558C115.868 115.909 114.61 115.545 113.321 115.499C110.006 115.538 107.268 118.108 104.047 118.892C102.163 119.35 100.021 119.239 98.5208 120.467C97.875 120.994 97.4108 121.954 97.87 122.65C98.08 122.893 98.3505 123.077 98.6543 123.182C98.9581 123.288 99.2843 123.311 99.6 123.25C100.23 123.119 100.874 123.07 101.517 123.103C101.588 123.107 101.657 123.126 101.72 123.16C101.783 123.193 101.838 123.24 101.881 123.297C102.037 123.569 101.683 123.841 101.397 123.964C100.477 124.372 99.6234 124.915 98.8641 125.575C98.6366 125.725 98.4493 125.929 98.3185 126.169C98.1878 126.408 98.1176 126.676 98.1141 126.949C98.2075 127.59 98.9566 127.929 99.6033 127.912C100.25 127.894 100.874 127.643 101.52 127.628C101.615 127.614 101.711 127.624 101.801 127.657C101.891 127.69 101.971 127.745 102.034 127.817C102.162 128.013 102.034 128.277 101.886 128.457C101.317 128.962 100.717 129.432 100.089 129.862C99.5283 130.378 99.195 131.331 99.7266 131.877C100.218 132.383 101.06 132.183 101.713 131.915C102.638 131.534 103.528 131.082 104.412 130.609C104.384 130.859 104.362 131.115 104.348 131.368C104.161 133.443 104.55 135.53 105.471 137.399C107.447 141.042 111.927 141.827 115.71 141.301C117.668 141.08 119.51 140.262 120.987 138.958C122.383 137.599 123.266 135.799 123.487 133.863C123.56 133.317 123.598 132.766 123.599 132.215C123.612 129.824 122.921 127.483 121.612 125.482ZM121.146 137.419C120.091 138.759 118.619 139.708 116.963 140.117C115.022 140.638 112.985 140.695 111.017 140.283C109.398 139.989 107.932 139.138 106.872 137.877C105.846 136.457 105.284 134.755 105.262 133.003C105.12 130.983 105.469 128.958 106.28 127.102C107.015 125.435 108.282 124.057 109.882 123.186C111.684 122.293 113.738 122.047 115.699 122.488C119.616 123.33 122.116 126.805 122.585 130.655C122.647 131.175 122.677 131.697 122.677 132.221C122.735 134.072 122.198 135.893 121.146 137.417V137.419Z" fill="#F97580"/>
<path d="M152.473 122.507C181.094 122.507 204.296 101.484 204.296 75.5508C204.296 49.6178 181.094 28.595 152.473 28.595C123.853 28.595 100.651 49.6178 100.651 75.5508C100.651 101.484 123.853 122.507 152.473 122.507Z" fill="#FA8DB8" fill-opacity="0.81"/>
<path d="M109.608 133.332C110.073 133.332 110.451 132.954 110.451 132.488C110.451 132.022 110.073 131.645 109.608 131.645C109.142 131.645 108.764 132.022 108.764 132.488C108.764 132.954 109.142 133.332 109.608 133.332Z" fill="black"/>
<path d="M145.953 143.183C145.298 143.716 144.694 144.309 144.148 144.953C142.705 146.764 141.145 148.479 139.478 150.087C137.795 151.701 135.664 152.77 133.363 153.153C130.871 153.358 128.382 152.716 126.3 151.331C124.191 150.028 122.525 148.143 120.645 146.528C119.547 145.583 116.99 145.845 116.202 147.061C115.51 148.349 115.307 149.845 115.633 151.271C116.575 157.363 121.271 162.604 127.09 164.642C130.03 165.599 133.148 165.883 136.212 165.475C139.277 165.067 142.211 163.977 144.799 162.285C146.731 161.038 148.429 159.463 149.818 157.631C147.568 153.125 146.253 148.211 145.953 143.183Z" fill="#B7E9D4"/>
<path d="M119.257 131.914C119.722 131.914 120.1 131.537 120.1 131.071C120.1 130.605 119.722 130.228 119.257 130.228C118.791 130.228 118.413 130.605 118.413 131.071C118.413 131.537 118.791 131.914 119.257 131.914Z" fill="black"/>
<path d="M118.927 134.167C118.9 135.334 118.585 136.477 118.01 137.493C117.727 137.912 117.353 138.261 116.916 138.515C116.479 138.77 115.991 138.923 115.488 138.963C114.584 138.955 113.709 138.643 113.006 138.076C112.037 137.259 111.287 136.214 110.821 135.036C113.55 135.534 116.365 135.232 118.927 134.167Z" fill="#F97580"/>
<path d="M107.899 131.179C108.054 130.773 108.353 130.439 108.74 130.241C109.126 130.043 109.573 129.995 109.993 130.107C110.423 130.213 110.607 129.549 110.176 129.44C109.58 129.284 108.948 129.357 108.403 129.644C107.859 129.932 107.442 130.413 107.235 130.993C107.077 131.41 107.742 131.587 107.902 131.177L107.899 131.179Z" fill="black"/>
<path d="M118.027 129.015C118.365 128.943 118.716 128.954 119.049 129.046C119.383 129.138 119.689 129.308 119.943 129.542C120.27 129.842 120.758 129.356 120.43 129.056C120.088 128.739 119.674 128.509 119.225 128.387C118.775 128.264 118.302 128.252 117.847 128.351C117.413 128.442 117.597 129.106 118.03 129.017L118.027 129.015Z" fill="black"/>
<path d="M115.352 175.787L144.928 177.775C144.308 174.979 143.413 172.108 141.406 170.068C139.166 167.787 135.864 166.88 132.679 166.608C128.101 166.28 123.504 166.885 119.167 168.385C117.566 168.844 116.065 169.596 114.738 170.601C114.077 171.108 113.534 171.751 113.145 172.487C112.755 173.223 112.529 174.034 112.481 174.865C112.491 175.249 112.574 175.627 112.726 175.98C113.588 175.796 114.472 175.731 115.352 175.787Z" fill="#F97580"/>
<path d="M87.7042 121.8C87.4467 121.169 86.9608 118.273 86.6408 117.653C86.5429 117.48 86.3988 117.338 86.2248 117.243C86.0507 117.148 85.8536 117.103 85.6555 117.113C85.4574 117.124 85.2661 117.189 85.1031 117.302C84.9401 117.415 84.8118 117.571 84.7325 117.753C84.5358 118.159 84.5225 120.708 84.135 120.928C83.5782 121.184 82.9712 121.311 82.3586 121.302C81.746 121.292 81.1434 121.145 80.595 120.872C79.1783 120.288 77.9433 119.307 76.4283 118.946C75.9043 118.81 75.3479 118.887 74.88 119.159C73.7892 119.832 74.0467 121.042 74.595 121.89C76.9692 125.583 83.365 124.89 85.5167 128.719C85.9533 129.495 86.1542 130.38 86.5167 131.193C86.6682 131.612 86.9104 131.993 87.2259 132.309C87.5415 132.624 87.9228 132.866 88.3425 133.018C89.2025 133.242 92.29 133.022 87.7042 121.8Z" fill="#FCAFB7"/>
<path d="M191.187 100.382C187.379 104.78 183.748 109.321 180.294 114.005C176.834 118.697 173.562 123.519 170.479 128.471C167.396 133.422 164.514 138.482 161.833 143.649C159.159 148.804 156.689 154.054 154.425 159.399C152.164 164.736 150.116 170.156 148.282 175.657C148.051 176.35 147.823 177.044 147.6 177.741C147.467 178.152 148.121 178.329 148.253 177.919C150.031 172.405 152.025 166.966 154.234 161.602C156.44 156.248 158.856 150.986 161.484 145.816C164.095 140.664 166.907 135.617 169.919 130.676C172.931 125.734 176.128 120.918 179.51 116.227C182.904 111.522 186.482 106.954 190.242 102.522C190.716 101.964 191.193 101.409 191.672 100.856C191.954 100.53 191.477 100.052 191.192 100.382H191.187Z" fill="black"/>
<path d="M155.75 143.031C155.542 141.458 155.064 139.698 153.598 139.17C152.399 138.742 150.773 139.263 150.002 138.253C149.509 137.608 149.49 136.451 148.688 136.324C148.447 136.315 148.211 136.392 148.021 136.54C147.83 136.689 147.699 136.9 147.649 137.136C147.563 137.611 147.577 138.098 147.689 138.568C147.781 139.184 147.828 139.806 147.832 140.429C147.732 140.513 147.656 140.622 147.613 140.745C147.569 140.868 147.558 141 147.582 141.128C147.615 141.281 147.687 141.422 147.791 141.538C147.524 145.096 145.961 148.433 143.398 150.914C142.981 151.308 142.717 151.836 142.652 152.406C142.587 152.975 142.724 153.55 143.041 154.028C143.53 154.759 144.08 155.346 144.776 155.208C145.456 155.005 146.058 154.598 146.498 154.041C147.492 152.985 148.392 151.846 149.189 150.636C149.536 150.028 149.992 149.488 150.533 149.044C151.605 149.031 152.656 148.746 153.587 148.216C154.225 147.839 154.766 147.318 155.166 146.694C155.566 146.071 155.814 145.362 155.891 144.625C155.937 144.089 155.889 143.55 155.75 143.031Z" fill="#FCAFB7"/>
<path d="M155.5 141.538C155.172 141.006 154.713 140.566 154.167 140.262C153.566 139.98 152.919 139.808 152.258 139.754C151.578 139.651 150.893 139.589 150.207 139.57C149.573 139.526 148.937 139.59 148.325 139.759C148.079 139.819 147.852 139.941 147.665 140.112C147.477 140.283 147.336 140.498 147.254 140.738C147.212 140.985 147.242 141.24 147.341 141.47C147.439 141.701 147.602 141.898 147.81 142.038C148.391 142.435 149.037 142.726 149.719 142.898L149.744 142.904C149.538 142.955 149.328 143.009 149.129 143.071C148.441 143.292 147.49 143.597 147.281 144.392C147.072 145.188 147.833 145.612 148.455 145.849C148.884 146.011 149.324 146.144 149.771 146.247C149.596 146.309 149.418 146.362 149.246 146.435C148.655 146.604 148.128 146.948 147.737 147.422C147.614 147.662 147.578 147.936 147.635 148.2C147.691 148.463 147.836 148.699 148.046 148.868C148.558 149.235 149.18 149.414 149.808 149.376C152.384 149.506 155.028 148.403 155.966 145.85C156.21 145.141 156.295 144.387 156.215 143.642C156.134 142.897 155.89 142.178 155.5 141.538ZM155.225 145.872C154.975 146.428 154.617 146.93 154.171 147.347C153.726 147.765 153.201 148.089 152.629 148.302C151.955 148.55 151.244 148.685 150.525 148.702C149.873 148.8 149.206 148.71 148.603 148.442C147.743 147.846 148.895 147.346 149.383 147.128C150.052 146.836 150.754 146.625 151.473 146.499C151.879 146.425 151.743 145.854 151.381 145.823C150.669 145.762 149.966 145.625 149.284 145.414C148.883 145.29 147.556 144.992 148.077 144.356C148.591 143.932 149.215 143.663 149.877 143.581C150.565 143.412 151.27 143.324 151.978 143.317C152.067 143.313 152.15 143.275 152.211 143.211C152.272 143.147 152.306 143.061 152.306 142.973C152.306 142.884 152.272 142.799 152.211 142.735C152.15 142.671 152.067 142.633 151.978 142.628C150.794 142.554 149.638 142.242 148.577 141.712C148.258 141.545 147.708 141.176 147.993 140.753C148.228 140.406 148.793 140.332 149.17 140.293C150.235 140.212 151.305 140.268 152.356 140.46C152.862 140.486 153.355 140.629 153.797 140.876C154.239 141.123 154.618 141.468 154.906 141.885C155.27 142.476 155.488 143.146 155.543 143.838C155.598 144.531 155.489 145.227 155.223 145.868L155.225 145.872Z" fill="black"/>
<path d="M134.217 106.024C134.755 115.253 135.019 124.492 135.01 133.742C134.999 142.934 134.717 152.121 134.162 161.302C133.849 166.463 133.451 171.619 132.968 176.768C132.928 177.199 133.616 177.196 133.657 176.768C134.52 167.562 135.11 158.337 135.428 149.093C135.741 139.907 135.783 130.716 135.553 121.522C135.423 116.355 135.208 111.188 134.906 106.022C134.88 105.592 134.192 105.589 134.217 106.022V106.024Z" fill="black"/>
<path d="M147.29 149.29C146.013 153.011 144.776 156.744 143.614 160.502C142.105 165.385 140.694 170.295 139.381 175.233C139.214 175.859 139.049 176.485 138.887 177.112C138.866 177.192 138.877 177.277 138.919 177.349C138.96 177.421 139.028 177.473 139.108 177.495C139.188 177.517 139.273 177.506 139.346 177.466C139.418 177.425 139.471 177.358 139.494 177.278C140.781 172.334 142.167 167.417 143.652 162.528C144.965 158.203 146.358 153.903 147.833 149.627C147.636 149.544 147.452 149.43 147.29 149.29Z" fill="black"/>
<path d="M167.288 101.435C164.934 106.17 162.676 110.947 160.513 115.768C158.37 120.55 156.322 125.37 154.371 130.229C153.134 133.308 151.954 136.406 150.794 139.513C151.002 139.559 151.211 139.604 151.42 139.644C152.324 137.216 153.252 134.797 154.205 132.386C156.144 127.48 158.182 122.613 160.318 117.783C162.438 112.997 164.652 108.251 166.962 103.548C167.257 102.949 167.552 102.351 167.849 101.753C168.031 101.389 167.471 101.068 167.288 101.435Z" fill="black"/>
<path d="M145.417 121.011C145.108 123.961 144.672 126.897 144.229 129.829C143.626 133.817 142.979 137.796 142.307 141.772C141.577 146.121 140.827 150.467 140.057 154.809C139.341 158.856 138.613 162.902 137.872 166.946C137.31 170.018 136.739 173.089 136.159 176.159L135.997 177.014C135.913 177.446 136.576 177.631 136.658 177.197C137.218 174.266 137.765 171.333 138.301 168.397C139.032 164.414 139.752 160.43 140.461 156.444C141.231 152.101 141.986 147.756 142.725 143.409C143.411 139.358 144.079 135.304 144.704 131.242C145.184 128.127 145.652 125.007 146.009 121.876C146.042 121.587 146.074 121.299 146.104 121.011C146.15 120.572 145.463 120.575 145.418 121.011H145.417Z" fill="black"/>
<path d="M230.005 97.2325C229.399 95.3484 228.316 93.653 226.862 92.3109C225.33 90.8984 223.671 89.9725 222.951 87.9C222.218 85.7925 222.951 83.5667 222.382 81.4109C221.838 79.3474 220.585 77.5412 218.842 76.3092C217.218 75.2407 215.334 74.6314 213.391 74.5459C211.448 74.4603 209.518 74.9017 207.806 75.8234C206.075 76.74 204.806 78.0892 202.727 78.205C200.463 78.3317 198.703 76.9442 196.751 76.0267C192.573 74.0426 187.945 73.201 183.336 73.5878C178.728 73.9745 174.304 75.5757 170.516 78.2284C167.033 80.7339 164.189 84.0251 162.216 87.835C161.336 89.5425 160.945 91.6642 159.649 93.1192C157.983 94.9942 155.425 94.78 153.308 95.825C151.429 96.7465 149.91 98.2667 148.99 100.146C148.069 102.026 147.8 104.158 148.225 106.208C148.57 108.147 148.947 109.843 148.179 111.766C147.419 113.668 145.714 115.003 144.794 116.839C143.9 118.569 143.507 120.515 143.659 122.457C143.811 124.398 144.502 126.259 145.654 127.829C148.356 131.507 152.387 132.356 156.654 131.572C161.886 130.61 162.597 135.615 165.648 138.551C167.158 139.968 168.948 141.053 170.903 141.735C172.858 142.417 174.935 142.681 176.998 142.51C180.916 142.22 184.625 140.633 187.54 138C189.07 136.622 190.375 135.014 191.41 133.233C192.424 131.503 192.934 129.483 194.993 128.726C197.183 127.915 199.41 129.309 201.639 129.349C203.93 129.358 206.174 128.706 208.103 127.471C210.099 126.19 211.774 124.47 213.002 122.441C214.246 120.435 214.698 118.247 215.63 116.125C217.797 111.197 223.4 113.282 226.84 109.888C228.437 108.245 229.571 106.209 230.126 103.987C230.682 101.764 230.64 99.4338 230.005 97.2325ZM229.127 103.973C228.601 106.031 227.524 107.906 226.012 109.399C224.279 111.024 222.679 111.158 220.455 111.454C215.492 112.121 215.019 116.198 213.275 119.988C211.641 123.536 208.749 126.776 204.934 127.969C203.003 128.557 200.942 128.566 199.006 127.996C196.909 127.432 194.839 127.262 193.071 128.799C191.571 130.099 190.977 132.318 189.874 133.94C188.674 135.726 187.167 137.284 185.422 138.544C181.976 141.027 177.699 142.071 173.496 141.456C171.663 141.159 169.91 140.49 168.345 139.49C166.781 138.49 165.438 137.18 164.399 135.64C163.283 133.973 162.697 132.122 160.816 131.136C158.821 130.092 157.099 130.679 155.028 130.974C153.167 131.212 151.278 130.88 149.609 130.023C147.94 129.166 146.569 127.823 145.678 126.173C143.607 122.439 144.542 118.247 147.066 115.006C148.221 113.521 149.208 112.267 149.506 110.339C149.86 108.043 148.83 105.93 148.962 103.648C149.227 99.0467 152.672 96.7859 156.716 95.7659C161.274 94.6167 161.687 90.4267 163.799 86.8925C165.748 83.6291 168.378 80.8251 171.511 78.6725C175.102 76.2716 179.249 74.8311 183.555 74.4884C187.861 74.1457 192.183 74.9123 196.109 76.715C198.186 77.6584 199.968 79.1175 202.352 79.1275C205.067 79.1392 206.559 77.3659 208.859 76.33C212.913 74.5042 218.119 75.5192 220.537 79.425C221.825 81.5084 221.665 83.4367 221.685 85.7534C221.7 86.8962 221.971 88.0212 222.478 89.0453C222.986 90.0693 223.717 90.9663 224.617 91.67C228.442 94.9167 230.577 98.8092 229.127 103.973Z" fill="#B5E6D2"/>
<path d="M202.471 147.979C199.97 152.283 198.797 157.23 199.099 162.199C196.529 158.768 193.617 155.606 190.408 152.763C189.746 152.18 188.768 153.149 189.433 153.738C193.226 157.085 196.596 160.883 199.467 165.048C199.555 165.188 199.689 165.291 199.845 165.341C200.002 165.391 200.171 165.383 200.323 165.319C200.474 165.255 200.598 165.139 200.672 164.992C200.746 164.846 200.765 164.677 200.726 164.517C199.832 159.056 200.87 153.454 203.66 148.674C203.744 148.517 203.764 148.333 203.716 148.162C203.667 147.99 203.554 147.844 203.4 147.754C203.246 147.664 203.063 147.637 202.89 147.679C202.717 147.721 202.566 147.829 202.471 147.979Z" fill="black"/>
<path d="M223.652 142.592C223.476 142.548 223.289 142.573 223.132 142.663C222.974 142.752 222.857 142.899 222.805 143.073L220.791 148.407C220.175 147.669 219.688 146.834 219.348 145.936C219.296 145.762 219.178 145.616 219.021 145.526C218.863 145.437 218.677 145.411 218.501 145.455C218.325 145.505 218.177 145.622 218.087 145.78C217.997 145.939 217.973 146.126 218.02 146.302C218.559 147.769 219.426 149.094 220.553 150.176C220.64 150.258 220.746 150.317 220.861 150.347C220.977 150.377 221.098 150.376 221.214 150.346C221.329 150.315 221.435 150.256 221.521 150.173C221.607 150.09 221.67 149.986 221.704 149.872L224.133 143.44C224.18 143.264 224.156 143.076 224.066 142.917C223.976 142.759 223.827 142.642 223.652 142.592Z" fill="black"/>
<path d="M213.452 172.906C212.815 174.169 212.347 175.512 212.06 176.897L209.085 171.314C208.668 170.532 207.479 171.231 207.896 172.009L211.828 179.389C211.907 179.516 212.025 179.614 212.164 179.668C212.302 179.723 212.455 179.732 212.599 179.693C212.743 179.654 212.871 179.569 212.963 179.452C213.055 179.335 213.108 179.191 213.112 179.042C213.258 177.145 213.778 175.295 214.642 173.6C215.043 172.812 213.855 172.115 213.452 172.906Z" fill="black"/>
<path d="M211.158 108.434C209.883 109.612 208.886 111.057 208.237 112.666C207.404 111.57 206.71 110.375 206.168 109.11C206.076 108.953 205.925 108.838 205.749 108.792C205.573 108.745 205.385 108.769 205.227 108.86C205.072 108.955 204.96 109.106 204.913 109.281C204.867 109.457 204.89 109.643 204.977 109.802C205.723 111.53 206.74 113.129 207.989 114.537C208.075 114.62 208.181 114.68 208.297 114.711C208.413 114.741 208.535 114.741 208.65 114.711C208.766 114.68 208.872 114.62 208.958 114.536C209.044 114.453 209.107 114.348 209.14 114.233C209.67 112.378 210.705 110.707 212.129 109.405C212.785 108.807 211.809 107.833 211.158 108.434Z" fill="black"/>
<path d="M172.41 164.66C172.28 164.532 172.105 164.46 171.923 164.46C171.741 164.46 171.566 164.532 171.436 164.66C170.574 165.703 169.949 166.921 169.602 168.228C168.955 167.672 168.432 166.985 168.069 166.212C167.976 166.055 167.826 165.941 167.65 165.894C167.473 165.847 167.286 165.871 167.127 165.962C166.972 166.056 166.86 166.207 166.813 166.382C166.766 166.558 166.79 166.744 166.877 166.903C167.495 168.192 168.48 169.27 169.708 170C169.8 170.052 169.902 170.083 170.007 170.09C170.112 170.097 170.217 170.08 170.314 170.041C170.412 170.001 170.499 169.94 170.569 169.861C170.64 169.783 170.691 169.69 170.72 169.588C170.91 168.14 171.494 166.772 172.41 165.634C172.534 165.503 172.604 165.328 172.604 165.147C172.604 164.966 172.534 164.792 172.41 164.66Z" fill="black"/>
<path d="M184.417 62.2783C184.241 62.234 184.054 62.2592 183.897 62.3488C183.739 62.4383 183.621 62.5853 183.569 62.7592L181.556 68.0925C180.94 67.3555 180.452 66.5203 180.113 65.6217C180.06 65.4484 179.943 65.3019 179.785 65.2124C179.628 65.123 179.442 65.0974 179.266 65.1408C179.09 65.1906 178.942 65.3075 178.852 65.466C178.762 65.6246 178.738 65.8122 178.785 65.9883C179.324 67.455 180.19 68.7796 181.318 69.8617C181.404 69.9441 181.51 70.003 181.626 70.0327C181.741 70.0625 181.863 70.0621 181.978 70.0316C182.094 70.0011 182.199 69.9415 182.285 69.8585C182.371 69.7755 182.434 69.6719 182.468 69.5575C183.278 67.4142 184.088 65.2706 184.898 63.1267C184.945 62.9504 184.921 62.7626 184.831 62.6039C184.741 62.4451 184.592 62.3281 184.417 62.2783Z" fill="black"/>
<path d="M173.027 47.8883C172.852 47.8438 172.665 47.869 172.508 47.9586C172.35 48.0482 172.233 48.1953 172.181 48.3692L168.153 59.0358C166.681 57.4604 165.535 55.6093 164.782 53.5892C164.729 53.4158 164.612 53.2692 164.454 53.1797C164.297 53.0902 164.111 53.0647 163.935 53.1083C163.76 53.1582 163.611 53.2748 163.521 53.4332C163.431 53.5916 163.407 53.779 163.454 53.955C164.403 56.5398 165.933 58.8717 167.928 60.77C168.014 60.8524 168.12 60.9113 168.236 60.9411C168.351 60.9708 168.473 60.9704 168.588 60.9399C168.703 60.9094 168.809 60.8498 168.895 60.7668C168.981 60.6838 169.044 60.5802 169.078 60.4658C170.555 56.5558 172.032 52.6458 173.509 48.7358C173.556 48.5596 173.532 48.372 173.442 48.2135C173.352 48.0549 173.203 47.9382 173.027 47.8883Z" fill="black"/>
<path d="M162.172 181.239C161.772 180.822 161.336 180.441 160.869 180.1C160.822 180.038 160.758 179.991 160.685 179.965C159.173 178.907 157.402 178.278 155.561 178.145L151.679 177.884L142.316 177.255L130.89 176.487L120.822 175.811C119.062 175.692 117.302 175.574 115.541 175.456C113.456 175.303 111.374 175.795 109.577 176.864C107.781 177.933 106.356 179.528 105.495 181.433C104.51 183.683 104.566 186.254 104.403 188.663L103.671 199.565C103.49 202.252 103.309 204.938 103.129 207.624C102.991 209.212 103.213 210.811 103.78 212.302C104.726 214.685 106.536 216.625 108.848 217.734C110.76 218.637 112.758 218.698 114.811 218.837L123.132 219.396L134.411 220.154L145.085 220.872L151.853 221.326C152.399 221.363 152.947 221.409 153.495 221.404C156.025 221.361 158.446 220.369 160.279 218.625C162.112 216.881 163.223 214.512 163.392 211.987C163.438 211.344 163.476 210.701 163.522 210.058L164.197 200.012L164.847 190.346C164.893 189.655 164.964 188.958 164.97 188.262C164.979 185.648 163.976 183.131 162.172 181.239ZM117.897 176.302L126.246 176.863L137.311 177.607L147.879 178.317L154.622 178.771L155.561 178.834C157.137 178.953 158.659 179.467 159.984 180.328C153.466 185.895 146.585 191.024 139.387 195.679C137.387 196.973 135.359 198.23 133.303 199.449C126.975 194.011 120.909 188.289 115.104 182.282C113.493 180.616 111.905 178.925 110.341 177.211C110.994 176.859 111.686 176.587 112.403 176.399C114.218 176.075 116.072 176.042 117.897 176.302ZM104.063 203.969L104.786 193.219L105.323 185.245C105.39 183.728 105.801 182.247 106.524 180.912C107.299 179.547 108.4 178.395 109.728 177.559C114.289 182.544 119.036 187.35 123.969 191.976C118.378 195.754 112.984 199.802 107.786 204.122C106.453 205.232 105.136 206.367 103.829 207.511C103.829 207.451 103.829 207.391 103.838 207.33C103.914 206.209 103.989 205.089 104.063 203.97V203.969ZM159.167 218.682C157.33 220.131 155.022 220.848 152.687 220.694C151.304 220.607 149.922 220.507 148.538 220.415L139.224 219.789L127.989 219.034L118.072 218.367L112.728 218.008C111.287 217.93 109.881 217.531 108.613 216.842C107.501 216.22 106.526 215.382 105.745 214.376C104.964 213.37 104.393 212.217 104.066 210.986C103.86 210.149 103.768 209.288 103.791 208.427C103.824 208.413 103.855 208.395 103.883 208.373C108.952 203.905 114.243 199.695 119.735 195.759C121.282 194.651 122.844 193.566 124.421 192.503C124.441 192.487 124.46 192.468 124.477 192.447C125.527 193.428 126.573 194.412 127.643 195.377C129.413 196.979 131.205 198.557 133.018 200.11C133.056 200.145 133.101 200.17 133.151 200.185C133.2 200.199 133.252 200.202 133.302 200.193C133.365 200.197 133.428 200.181 133.482 200.148C136.607 198.292 139.677 196.347 142.692 194.315L142.697 194.322C148.258 198.114 153.188 202.738 158.168 207.244C159.685 208.616 161.211 209.977 162.746 211.327C162.728 211.571 162.715 211.814 162.697 212.057C162.593 213.344 162.226 214.596 161.619 215.735C161.011 216.875 160.177 217.877 159.167 218.682ZM164.257 188.854C164.124 190.975 163.972 193.094 163.829 195.215L163.092 206.193C162.996 207.612 162.901 209.03 162.805 210.447C157.685 205.942 152.772 201.184 147.422 196.947C146.083 195.887 144.71 194.87 143.304 193.897C147.341 191.16 151.272 188.276 155.098 185.243C156.947 183.777 158.767 182.275 160.558 180.739C161.808 181.672 162.801 182.904 163.448 184.322C164.094 185.741 164.372 187.3 164.257 188.854Z" fill="black"/>
<path d="M59.5533 216.461L69.2867 215.396C69.4676 215.391 69.6398 215.317 69.7678 215.189C69.8958 215.061 69.97 214.888 69.975 214.707C69.9739 214.525 69.901 214.351 69.7722 214.222C69.6433 214.093 69.4689 214.02 69.2867 214.019L59.5533 215.083C59.3724 215.089 59.2004 215.163 59.0724 215.291C58.9444 215.419 58.8702 215.591 58.865 215.772C58.8661 215.954 58.9389 216.128 59.0678 216.257C59.1966 216.386 59.371 216.46 59.5533 216.461Z" fill="black"/>
<path d="M38.5175 181.383L55.1134 180.121C55.9917 180.054 55.9992 178.677 55.1134 178.744L38.5175 180.006C37.64 180.072 37.6325 181.45 38.5175 181.383Z" fill="black"/>
<path d="M55.5258 166.11L71.7233 165.848C71.9019 165.842 72.071 165.767 72.1951 165.638C72.3192 165.51 72.3885 165.338 72.3885 165.16C72.3885 164.981 72.3192 164.809 72.1951 164.681C72.071 164.552 71.9019 164.477 71.7233 164.471L55.5258 164.733C55.3491 164.742 55.1826 164.818 55.0606 164.947C54.9386 165.075 54.8706 165.245 54.8706 165.422C54.8706 165.599 54.9386 165.769 55.0606 165.897C55.1826 166.025 55.3491 166.101 55.5258 166.11Z" fill="black"/>
<path d="M31.6383 125.147L38.9258 124.742C39.8067 124.693 39.8125 123.316 38.9258 123.365L31.6383 123.77C30.7567 123.818 30.7508 125.196 31.6383 125.147Z" fill="black"/>
<path d="M58.7717 97.2892L71.3225 96.075C71.5035 96.0702 71.6758 95.9961 71.8038 95.8681C71.9319 95.74 72.006 95.5677 72.0108 95.3867C72.0095 95.2045 71.9366 95.0302 71.8078 94.9014C71.679 94.7726 71.5046 94.6997 71.3225 94.6984L58.7717 95.9117C58.5906 95.9165 58.4182 95.9906 58.29 96.1186C58.1618 96.2466 58.0875 96.4189 58.0825 96.6C58.0838 96.7824 58.1568 96.9569 58.2858 97.0859C58.4148 97.2148 58.5893 97.2879 58.7717 97.2892Z" fill="black"/>
<path d="M130.545 164.738C130.128 160.825 129.274 156.972 128 153.25C126.64 149.091 123.75 145.009 119.488 144.033C117.993 143.764 116.457 143.806 114.978 144.157C113.5 144.508 112.109 145.16 110.894 146.073C110.944 146.104 110.995 146.131 111.044 146.163C111.861 146.674 112.509 147.415 112.904 148.293C113.701 150.168 112.988 151.877 111.843 153.368C110.87 154.633 109.457 155.487 107.884 155.76C106.134 156.066 104.35 156.335 102.583 156.464C101.487 158.321 100.249 160.089 98.8792 161.754C97.5017 163.364 95.9092 164.795 94.68 166.522C94.0183 167.352 93.5268 168.305 93.2336 169.326C92.9403 170.346 92.851 171.415 92.9708 172.47C93.4575 175.172 95.9658 177.179 98.6458 177.773C101.326 178.366 104.129 177.787 106.729 176.91C109.329 176.033 111.837 174.86 114.505 174.217C118.943 173.146 123.701 173.573 127.76 170.895C128.696 170.178 129.44 169.24 129.926 168.166C130.411 167.092 130.624 165.914 130.545 164.738Z" fill="#B7E9D4"/>
<path d="M112.296 148.405C111.928 147.589 111.327 146.901 110.568 146.427C108.027 144.77 104.907 145.114 102.235 143.981C99.5192 142.828 97.6283 140.292 96.3517 137.632C95.075 134.973 94.2817 132.102 92.99 129.45C92.563 128.534 92.0187 127.678 91.3708 126.903C90.9183 127.179 90.4758 127.474 90.0283 127.76C91.4017 133.703 89.1117 133.814 88.3417 133.613C87.8521 133.437 87.4075 133.155 87.0394 132.787C86.6712 132.419 86.3886 131.974 86.2117 131.485C86.085 131.202 85.9758 130.912 85.8708 130.62C84.2166 131.857 82.6416 133.196 81.155 134.629C81.4847 136.732 82.03 138.796 82.7825 140.788C84.4358 145.643 86.3742 150.851 90.6792 153.639C93.5125 155.473 97.0025 155.982 100.377 156.067C102.813 156.061 105.243 155.817 107.632 155.338C109.092 155.085 110.404 154.292 111.308 153.117C112.375 151.731 113.036 150.146 112.296 148.405Z" fill="#B7E9D4"/>
<path d="M129.005 117.175C129.228 120.44 129.365 123.711 129.483 126.982C129.633 131.134 129.746 135.288 129.822 139.442C129.911 143.919 129.972 148.395 130.004 152.872C130.034 157.094 130.034 161.319 130.004 165.548C129.976 168.949 129.928 172.351 129.802 175.751C129.79 176.094 129.776 176.436 129.762 176.778C129.742 177.222 130.428 177.221 130.45 176.778C130.59 173.509 130.644 170.236 130.679 166.963C130.723 162.808 130.731 158.653 130.702 154.498C130.678 150.021 130.624 145.544 130.542 141.068C130.464 136.846 130.357 132.622 130.22 128.397C130.106 124.997 129.97 121.597 129.76 118.202C129.738 117.859 129.716 117.517 129.692 117.175C129.662 116.735 128.973 116.732 129.004 117.175H129.005Z" fill="black"/>
<path d="M119.343 67.8533C119.227 67.8603 119.117 67.9117 119.037 67.9969C118.956 68.082 118.912 68.1946 118.912 68.3116C118.912 68.4286 118.956 68.5412 119.037 68.6264C119.117 68.7115 119.227 68.7629 119.343 68.7699C119.46 68.7629 119.57 68.7115 119.65 68.6264C119.73 68.5412 119.775 68.4286 119.775 68.3116C119.775 68.1946 119.73 68.082 119.65 67.9969C119.57 67.9117 119.46 67.8603 119.343 67.8533Z" fill="black"/>
<path d="M125.281 78.65C125.164 78.6571 125.054 78.7084 124.974 78.7936C124.894 78.8788 124.849 78.9914 124.849 79.1084C124.849 79.2254 124.894 79.3379 124.974 79.4231C125.054 79.5083 125.164 79.5597 125.281 79.5667C125.398 79.5597 125.507 79.5083 125.588 79.4231C125.668 79.3379 125.712 79.2254 125.712 79.1084C125.712 78.9914 125.668 78.8788 125.588 78.7936C125.507 78.7084 125.398 78.6571 125.281 78.65Z" fill="black"/>
<path d="M142.285 67.0441C142.168 67.0511 142.059 67.1025 141.978 67.1876C141.898 67.2728 141.853 67.3854 141.853 67.5024C141.853 67.6194 141.898 67.732 141.978 67.8172C142.059 67.9023 142.168 67.9537 142.285 67.9607C142.402 67.9537 142.511 67.9023 142.592 67.8172C142.672 67.732 142.717 67.6194 142.717 67.5024C142.717 67.3854 142.672 67.2728 142.592 67.1876C142.511 67.1025 142.402 67.0511 142.285 67.0441Z" fill="black"/>
<path d="M146.873 87.2867C146.757 87.2938 146.647 87.3451 146.567 87.4303C146.486 87.5155 146.442 87.6281 146.442 87.7451C146.442 87.8621 146.486 87.9746 146.567 88.0598C146.647 88.145 146.757 88.1964 146.873 88.2034C146.99 88.1964 147.1 88.145 147.18 88.0598C147.26 87.9746 147.305 87.8621 147.305 87.7451C147.305 87.6281 147.26 87.5155 147.18 87.4303C147.1 87.3451 146.99 87.2938 146.873 87.2867Z" fill="black"/>
<path d="M153.352 76.2208C153.235 76.2279 153.125 76.2792 153.045 76.3644C152.965 76.4496 152.92 76.5622 152.92 76.6792C152.92 76.7961 152.965 76.9087 153.045 76.9939C153.125 77.0791 153.235 77.1304 153.352 77.1375C153.468 77.1304 153.578 77.0791 153.658 76.9939C153.739 76.9087 153.783 76.7961 153.783 76.6792C153.783 76.5622 153.739 76.4496 153.658 76.3644C153.578 76.2792 153.468 76.2279 153.352 76.2208Z" fill="black"/>
<path d="M164.417 70.5525C164.3 70.5595 164.19 70.6109 164.11 70.6961C164.03 70.7813 163.985 70.8938 163.985 71.0108C163.985 71.1278 164.03 71.2404 164.11 71.3256C164.19 71.4108 164.3 71.4621 164.417 71.4692C164.533 71.4621 164.643 71.4108 164.723 71.3256C164.804 71.2404 164.848 71.1278 164.848 71.0108C164.848 70.8938 164.804 70.7813 164.723 70.6961C164.643 70.6109 164.533 70.5595 164.417 70.5525Z" fill="black"/>
<path d="M151.192 53.5483C151.076 53.5554 150.966 53.6067 150.886 53.6919C150.806 53.7771 150.761 53.8897 150.761 54.0067C150.761 54.1237 150.806 54.2362 150.886 54.3214C150.966 54.4066 151.076 54.458 151.192 54.465C151.309 54.458 151.419 54.4066 151.499 54.3214C151.579 54.2362 151.624 54.1237 151.624 54.0067C151.624 53.8897 151.579 53.7771 151.499 53.6919C151.419 53.6067 151.309 53.5554 151.192 53.5483Z" fill="black"/>
<path d="M135.538 57.3275C135.421 57.3346 135.311 57.3859 135.231 57.4711C135.151 57.5563 135.106 57.6689 135.106 57.7858C135.106 57.9028 135.151 58.0154 135.231 58.1006C135.311 58.1858 135.421 58.2371 135.538 58.2442C135.654 58.2371 135.764 58.1858 135.844 58.1006C135.924 58.0154 135.969 57.9028 135.969 57.7858C135.969 57.6689 135.924 57.5563 135.844 57.4711C135.764 57.3859 135.654 57.3346 135.538 57.3275Z" fill="black"/>
<path d="M148.223 34.925C148.107 34.9321 147.997 34.9835 147.917 35.0686C147.836 35.1538 147.792 35.2664 147.792 35.3834C147.792 35.5004 147.836 35.613 147.917 35.6981C147.997 35.7833 148.107 35.8347 148.223 35.8417C148.34 35.8347 148.45 35.7833 148.53 35.6981C148.61 35.613 148.655 35.5004 148.655 35.3834C148.655 35.2664 148.61 35.1538 148.53 35.0686C148.45 34.9835 148.34 34.9321 148.223 34.925Z" fill="black"/>
<path d="M161.718 39.2433C161.602 39.2503 161.492 39.3017 161.412 39.3869C161.331 39.4721 161.287 39.5846 161.287 39.7016C161.287 39.8186 161.331 39.9312 161.412 40.0164C161.492 40.1016 161.602 40.1529 161.718 40.16C161.835 40.1529 161.945 40.1016 162.025 40.0164C162.105 39.9312 162.15 39.8186 162.15 39.7016C162.15 39.5846 162.105 39.4721 162.025 39.3869C161.945 39.3017 161.835 39.2503 161.718 39.2433Z" fill="black"/>
<path d="M136.617 47.6108C136.501 47.6179 136.391 47.6692 136.311 47.7544C136.231 47.8396 136.186 47.9522 136.186 48.0692C136.186 48.1862 136.231 48.2987 136.311 48.3839C136.391 48.4691 136.501 48.5205 136.617 48.5275C136.734 48.5205 136.844 48.4691 136.924 48.3839C137.004 48.2987 137.049 48.1862 137.049 48.0692C137.049 47.9522 137.004 47.8396 136.924 47.7544C136.844 47.6692 136.734 47.6179 136.617 47.6108Z" fill="black"/>
<path d="M175.484 84.5875C175.367 84.5946 175.258 84.6459 175.178 84.7311C175.097 84.8163 175.053 84.9289 175.053 85.0459C175.053 85.1628 175.097 85.2754 175.178 85.3606C175.258 85.4458 175.367 85.4971 175.484 85.5042C175.601 85.4971 175.711 85.4458 175.791 85.3606C175.871 85.2754 175.916 85.1628 175.916 85.0459C175.916 84.9289 175.871 84.8163 175.791 84.7311C175.711 84.6459 175.601 84.5946 175.484 84.5875Z" fill="black"/>
<path d="M171.435 101.323C171.318 101.33 171.209 101.381 171.128 101.466C171.048 101.551 171.003 101.664 171.003 101.781C171.003 101.898 171.048 102.01 171.128 102.096C171.209 102.181 171.318 102.232 171.435 102.239C171.552 102.232 171.661 102.181 171.742 102.096C171.822 102.01 171.867 101.898 171.867 101.781C171.867 101.664 171.822 101.551 171.742 101.466C171.661 101.381 171.552 101.33 171.435 101.323Z" fill="black"/>
<path d="M158.21 101.052C158.093 101.06 157.984 101.111 157.903 101.196C157.823 101.281 157.778 101.394 157.778 101.511C157.778 101.628 157.823 101.74 157.903 101.826C157.984 101.911 158.093 101.962 158.21 101.969C158.327 101.962 158.436 101.911 158.517 101.826C158.597 101.74 158.642 101.628 158.642 101.511C158.642 101.394 158.597 101.281 158.517 101.196C158.436 101.111 158.327 101.06 158.21 101.052Z" fill="black"/>
<path d="M135 95.3842C134.883 95.3912 134.774 95.4426 134.693 95.5277C134.613 95.6129 134.568 95.7255 134.568 95.8425C134.568 95.9595 134.613 96.0721 134.693 96.1573C134.774 96.2424 134.883 96.2938 135 96.3008C135.117 96.2938 135.226 96.2424 135.307 96.1573C135.387 96.0721 135.432 95.9595 135.432 95.8425C135.432 95.7255 135.387 95.6129 135.307 95.5277C135.226 95.4426 135.117 95.3912 135 95.3842Z" fill="black"/>
<path d="M115.564 99.1666C115.447 99.1737 115.338 99.225 115.258 99.3102C115.177 99.3954 115.133 99.508 115.133 99.625C115.133 99.742 115.177 99.8545 115.258 99.9397C115.338 100.025 115.447 100.076 115.564 100.083C115.681 100.076 115.791 100.025 115.871 99.9397C115.951 99.8545 115.996 99.742 115.996 99.625C115.996 99.508 115.951 99.3954 115.871 99.3102C115.791 99.225 115.681 99.1737 115.564 99.1666Z" fill="black"/>
<path d="M113.405 89.7158C113.288 89.7229 113.179 89.7742 113.098 89.8594C113.018 89.9446 112.973 90.0572 112.973 90.1742C112.973 90.2912 113.018 90.4037 113.098 90.4889C113.179 90.5741 113.288 90.6255 113.405 90.6325C113.522 90.6255 113.631 90.5741 113.712 90.4889C113.792 90.4037 113.837 90.2912 113.837 90.1742C113.837 90.0572 113.792 89.9446 113.712 89.8594C113.631 89.7742 113.522 89.7229 113.405 89.7158Z" fill="black"/>
<path d="M85.8742 88.6366C85.7574 88.6436 85.6477 88.695 85.5675 88.7802C85.4873 88.8654 85.4426 88.9779 85.4426 89.0949C85.4426 89.2119 85.4873 89.3245 85.5675 89.4097C85.6477 89.4949 85.7574 89.5462 85.8742 89.5533C85.9909 89.5462 86.1006 89.4949 86.1808 89.4097C86.261 89.3245 86.3057 89.2119 86.3057 89.0949C86.3057 88.9779 86.261 88.8654 86.1808 88.7802C86.1006 88.695 85.9909 88.6436 85.8742 88.6366Z" fill="black"/>
<path d="M77.5075 63.8051C77.3907 63.8121 77.281 63.8635 77.2008 63.9486C77.1206 64.0338 77.076 64.1464 77.076 64.2634C77.076 64.3804 77.1206 64.493 77.2008 64.5781C77.281 64.6633 77.3907 64.7147 77.5075 64.7217C77.6243 64.7147 77.734 64.6633 77.8142 64.5781C77.8944 64.493 77.939 64.3804 77.939 64.2634C77.939 64.1464 77.8944 64.0338 77.8142 63.9486C77.734 63.8635 77.6243 63.8121 77.5075 63.8051Z" fill="black"/>
<path d="M59.9634 77.0309C59.8466 77.0379 59.7369 77.0893 59.6567 77.1745C59.5765 77.2596 59.5318 77.3722 59.5318 77.4892C59.5318 77.6062 59.5765 77.7188 59.6567 77.804C59.7369 77.8891 59.8466 77.9405 59.9634 77.9475C60.0801 77.9405 60.1898 77.8891 60.27 77.804C60.3502 77.7188 60.3949 77.6062 60.3949 77.4892C60.3949 77.3722 60.3502 77.2596 60.27 77.1745C60.1898 77.0893 60.0801 77.0379 59.9634 77.0309Z" fill="black"/>
<path d="M32.4325 90.7958C32.3157 90.8028 32.2061 90.8542 32.1259 90.9394C32.0457 91.0245 32.001 91.1371 32.001 91.2541C32.001 91.3711 32.0457 91.4837 32.1259 91.5689C32.2061 91.654 32.3157 91.7054 32.4325 91.7124C32.5493 91.7054 32.659 91.654 32.7392 91.5689C32.8194 91.4837 32.864 91.3711 32.864 91.2541C32.864 91.1371 32.8194 91.0245 32.7392 90.9394C32.659 90.8542 32.5493 90.8028 32.4325 90.7958Z" fill="black"/>
<path d="M29.7333 64.885C29.6166 64.8921 29.5069 64.9434 29.4267 65.0286C29.3465 65.1138 29.3018 65.2264 29.3018 65.3433C29.3018 65.4603 29.3465 65.5729 29.4267 65.6581C29.5069 65.7433 29.6166 65.7946 29.7333 65.8017C29.8501 65.7946 29.9598 65.7433 30.04 65.6581C30.1202 65.5729 30.1649 65.4603 30.1649 65.3433C30.1649 65.2264 30.1202 65.1138 30.04 65.0286C29.9598 64.9434 29.8501 64.8921 29.7333 64.885Z" fill="black"/>
<path d="M48.6275 66.7742C48.5107 66.7812 48.401 66.8326 48.3209 66.9178C48.2407 67.0029 48.196 67.1155 48.196 67.2325C48.196 67.3495 48.2407 67.4621 48.3209 67.5473C48.401 67.6324 48.5107 67.6838 48.6275 67.6908C48.7443 67.6838 48.854 67.6324 48.9342 67.5473C49.0144 67.4621 49.059 67.3495 49.059 67.2325C49.059 67.1155 49.0144 67.0029 48.9342 66.9178C48.854 66.8326 48.7443 66.7812 48.6275 66.7742Z" fill="black"/>
<path d="M62.9325 43.2917C62.8157 43.2988 62.706 43.3502 62.6258 43.4353C62.5457 43.5205 62.501 43.6331 62.501 43.7501C62.501 43.8671 62.5457 43.9797 62.6258 44.0648C62.706 44.15 62.8157 44.2014 62.9325 44.2084C63.0493 44.2014 63.159 44.15 63.2392 44.0648C63.3194 43.9797 63.364 43.8671 63.364 43.7501C63.364 43.6331 63.3194 43.5205 63.2392 43.4353C63.159 43.3502 63.0493 43.2988 62.9325 43.2917Z" fill="black"/>
<path d="M21.6367 80.8092C21.5199 80.8162 21.4102 80.8676 21.33 80.9528C21.2498 81.038 21.2052 81.1505 21.2052 81.2675C21.2052 81.3845 21.2498 81.4971 21.33 81.5823C21.4102 81.6675 21.5199 81.7188 21.6367 81.7259C21.7535 81.7188 21.8631 81.6675 21.9433 81.5823C22.0235 81.4971 22.0682 81.3845 22.0682 81.2675C22.0682 81.1505 22.0235 81.038 21.9433 80.9528C21.8631 80.8676 21.7535 80.8162 21.6367 80.8092Z" fill="black"/>
<path d="M96.9408 108.88C96.8241 108.887 96.7144 108.938 96.6342 109.024C96.554 109.109 96.5093 109.221 96.5093 109.338C96.5093 109.455 96.554 109.568 96.6342 109.653C96.7144 109.738 96.8241 109.79 96.9408 109.797C97.0576 109.79 97.1673 109.738 97.2475 109.653C97.3277 109.568 97.3723 109.455 97.3723 109.338C97.3723 109.221 97.3277 109.109 97.2475 109.024C97.1673 108.938 97.0576 108.887 96.9408 108.88Z" fill="black"/>
<path d="M192.488 111.039C192.372 111.046 192.262 111.097 192.182 111.183C192.101 111.268 192.057 111.38 192.057 111.497C192.057 111.614 192.101 111.727 192.182 111.812C192.262 111.897 192.372 111.949 192.488 111.956C192.605 111.949 192.715 111.897 192.795 111.812C192.875 111.727 192.92 111.614 192.92 111.497C192.92 111.38 192.875 111.268 192.795 111.183C192.715 111.097 192.605 111.046 192.488 111.039Z" fill="black"/>
<path d="M211.382 86.75C211.265 86.757 211.155 86.8084 211.075 86.8936C210.995 86.9788 210.95 87.0913 210.95 87.2083C210.95 87.3253 210.995 87.4379 211.075 87.5231C211.155 87.6083 211.265 87.6596 211.382 87.6667C211.498 87.6596 211.608 87.6083 211.688 87.5231C211.769 87.4379 211.813 87.3253 211.813 87.2083C211.813 87.0913 211.769 86.9788 211.688 86.8936C211.608 86.8084 211.498 86.757 211.382 86.75Z" fill="black"/>
<path d="M226.5 61.3759C226.383 61.3829 226.274 61.4343 226.193 61.5194C226.113 61.6046 226.068 61.7172 226.068 61.8342C226.068 61.9512 226.113 62.0638 226.193 62.1489C226.274 62.2341 226.383 62.2855 226.5 62.2925C226.617 62.2855 226.726 62.2341 226.807 62.1489C226.887 62.0638 226.932 61.9512 226.932 61.8342C226.932 61.7172 226.887 61.6046 226.807 61.5194C226.726 61.4343 226.617 61.3829 226.5 61.3759Z" fill="black"/>
<path d="M245.39 89.1768C245.273 89.1838 245.164 89.2352 245.083 89.3203C245.003 89.4055 244.958 89.5181 244.958 89.6351C244.958 89.7521 245.003 89.8647 245.083 89.9498C245.164 90.035 245.273 90.0864 245.39 90.0934C245.507 90.0864 245.616 90.035 245.697 89.9498C245.777 89.8647 245.822 89.7521 245.822 89.6351C245.822 89.5181 245.777 89.4055 245.697 89.3203C245.616 89.2352 245.507 89.1838 245.39 89.1768Z" fill="black"/>
<path d="M239.452 97.2733C239.335 97.2804 239.225 97.3317 239.145 97.4169C239.065 97.5021 239.02 97.6147 239.02 97.7317C239.02 97.8486 239.065 97.9612 239.145 98.0464C239.225 98.1316 239.335 98.1829 239.452 98.19C239.568 98.1829 239.678 98.1316 239.758 98.0464C239.839 97.9612 239.883 97.8486 239.883 97.7317C239.883 97.6147 239.839 97.5021 239.758 97.4169C239.678 97.3317 239.568 97.2804 239.452 97.2733Z" fill="black"/>
<path d="M235.403 79.1899C235.287 79.197 235.177 79.2483 235.097 79.3335C235.016 79.4187 234.972 79.5313 234.972 79.6483C234.972 79.7653 235.016 79.8778 235.097 79.963C235.177 80.0482 235.287 80.0996 235.403 80.1066C235.52 80.0996 235.63 80.0482 235.71 79.963C235.79 79.8778 235.835 79.7653 235.835 79.6483C235.835 79.5313 235.79 79.4187 235.71 79.3335C235.63 79.2483 235.52 79.197 235.403 79.1899Z" fill="black"/>
<path d="M187.36 88.0967C187.243 88.1037 187.134 88.1551 187.053 88.2403C186.973 88.3254 186.928 88.438 186.928 88.555C186.928 88.672 186.973 88.7846 187.053 88.8698C187.134 88.9549 187.243 89.0063 187.36 89.0133C187.477 89.0063 187.586 88.9549 187.667 88.8698C187.747 88.7846 187.792 88.672 187.792 88.555C187.792 88.438 187.747 88.3254 187.667 88.2403C187.586 88.1551 187.477 88.1037 187.36 88.0967Z" fill="black"/>
</g>
</svg>
