<svg width="1440" height="449" viewBox="0 0 1440 449" fill="none" xmlns="http://www.w3.org/2000/svg">
<path d="M461.485 52.3668C274.277 3.44151 46.3249 302.57 -36.5 457.5L1459 456V418.5C1366.84 298.225 1249.79 165.676 1202.78 131.361C1088.3 29.0253 957.746 143.082 906.777 212.903C849.333 293.629 782.281 259.789 755.935 232.779C629.064 111.281 506.772 61.88 461.485 52.3668Z" fill="#FFF2F6"/>
<path d="M483.038 6.91782C276.602 -47.0315 42.3312 281.16 -49 452H1537L1558.5 390.5C1456.88 257.875 1352.3 131.863 1300.46 94.0235C1174.23 -18.8206 1030.27 106.949 974.062 183.939C910.719 272.955 836.78 235.641 807.729 205.856C667.827 71.8817 532.976 17.4079 483.038 6.91782Z" stroke="#FEDDE8"/>
</svg>
