<svg width="163" height="346" viewBox="0 0 163 346" fill="none" xmlns="http://www.w3.org/2000/svg">
<path fill-rule="evenodd" clip-rule="evenodd" d="M232.845 95.2275C242.626 105.734 256.983 109.778 266.875 120.18C279.077 133.01 296.821 144.955 296.953 162.638C297.085 180.272 277.448 190.713 267.512 205.274C257.535 219.896 251.338 236.3 238.423 248.41C220.493 265.223 201.914 296.297 178.476 288.762C153.541 280.747 159.731 241.372 146.417 218.833C138.066 204.696 123.085 196.37 115.347 181.89C105.799 164.021 94.0022 145.504 96.5007 125.419C99.1493 104.128 114.003 86.6999 129.087 71.4426C145.513 54.8277 163.949 28.8949 186.759 34.1236C212.147 39.9434 215.099 76.1664 232.845 95.2275Z" fill="#FFECF2"/>
<path fill-rule="evenodd" clip-rule="evenodd" d="M217.742 93.921C229.059 106.077 245.672 110.757 257.118 122.793C271.237 137.639 291.768 151.461 291.922 171.922C292.074 192.326 269.353 204.408 257.855 221.256C246.31 238.174 239.14 257.156 224.196 271.169C203.449 290.623 181.952 326.579 154.831 317.86C125.98 308.585 133.141 263.025 117.736 236.945C108.074 220.587 90.7383 210.953 81.7855 194.198C70.7366 173.521 57.0871 152.096 59.9782 128.856C63.0428 104.22 80.2297 84.0538 97.6833 66.3996C116.69 47.1744 138.022 17.1676 164.416 23.2178C193.792 29.9518 197.209 71.8654 217.742 93.921Z" stroke="#FFD0E0" stroke-width="2"/>
</svg>
