<svg width="587" height="587" viewBox="0 0 587 587" fill="none" xmlns="http://www.w3.org/2000/svg">
<path d="M293.664 55.9782C292.8 55.8287 291.91 55.948 291.115 56.3199C290.32 56.6918 289.658 57.2985 289.219 58.0582C288.006 59.7835 286.704 61.4437 285.317 63.032C283.803 64.6276 282.062 65.9904 280.15 67.0765C278.193 68.1683 275.606 69.1955 273.511 67.8728C273.083 67.6191 272.728 67.2602 272.479 66.8304C272.23 66.4006 272.094 65.9141 272.086 65.4172C272.142 64.9493 272.091 64.4749 271.937 64.0293C271.784 63.5838 271.532 63.1787 271.2 62.8442C270.924 62.599 270.575 62.4522 270.206 62.4267C269.838 62.4012 269.472 62.4985 269.165 62.7033C268.335 63.3334 268.412 64.6267 268.298 65.5561C268.137 67.8698 268.413 70.193 269.112 72.4045C269.542 73.7279 269.819 75.0959 269.94 76.4822C269.902 77.1329 269.818 77.7802 269.689 78.4193C269.607 79.1723 269.482 79.9202 269.318 80.6596C268.602 83.4036 267.613 86.0689 266.365 88.6155C266.183 89.0185 266.287 89.6662 266.829 89.7523L273.914 90.8715C274.111 90.9176 274.319 90.8876 274.496 90.7875C274.672 90.6875 274.805 90.5247 274.867 90.3315C275.738 87.849 277.115 85.5744 278.911 83.6514C279.763 82.8808 280.727 82.2435 281.77 81.7613C283.051 81.0764 284.335 80.4757 285.683 79.9063C288.074 78.9928 290.242 77.5807 292.045 75.7639C293.848 73.9472 295.243 71.7674 296.138 69.3697C297.159 66.3971 297.362 63.2043 296.725 60.1264C296.618 59.2289 296.28 58.3745 295.744 57.6472C295.207 56.9199 294.49 56.3448 293.664 55.9782ZM290.438 75.2377C288.431 76.89 286.159 78.1889 283.717 79.0787C281.468 79.8959 279.402 81.1456 277.633 82.7572C275.909 84.6614 274.559 86.874 273.655 89.2788L268.147 88.41C268.97 86.6469 269.689 84.8372 270.3 82.99C270.634 81.9419 270.892 80.8707 271.071 79.785C271.275 78.8068 271.417 77.8167 271.497 76.8207C271.32 74.5313 270.869 72.2715 270.153 70.0897C269.873 69.0295 269.721 67.9398 269.699 66.8436C269.715 66.3114 269.83 65.7635 269.895 65.2352C269.936 64.8928 269.863 63.8519 270.268 64.0906C270.767 64.3841 270.55 66.1334 270.717 66.6832C270.982 67.5163 271.488 68.2523 272.17 68.7983C272.892 69.3523 273.73 69.7362 274.621 69.9215C275.512 70.1068 276.433 70.0888 277.316 69.8686C281.27 68.725 284.768 66.3745 287.321 63.1455C288.044 62.3128 288.724 61.4436 289.358 60.5412C289.901 59.6534 290.545 58.8308 291.275 58.0895C293.332 56.2483 294.811 58.6511 295.237 60.5451C295.765 63.2002 295.601 65.9464 294.76 68.5196C293.92 71.0928 292.431 73.4063 290.438 75.2377Z" fill="black"/>
<path d="M305.878 64.2197C305.074 70.673 302.152 76.6773 297.57 81.2917C297.458 81.4423 297.404 81.6281 297.418 81.8152C297.432 82.0022 297.512 82.1782 297.645 82.3109C297.777 82.4437 297.953 82.5244 298.14 82.5385C298.327 82.5525 298.513 82.4989 298.664 82.3874C303.524 77.4746 306.607 71.0816 307.426 64.2197C307.545 63.2316 305.995 63.2394 305.878 64.2197Z" fill="black"/>
<path d="M309.568 78.39C307.056 81.7812 303.835 84.5853 300.131 86.608C299.258 87.0873 300.039 88.4257 300.914 87.9444C304.843 85.7805 308.252 82.7857 310.905 79.1687C311.501 78.3704 310.153 77.5956 309.568 78.39Z" fill="black"/>
<path d="M208.884 231.327C208.461 230.192 207.982 229.073 207.491 227.967C206.478 225.683 205.34 223.457 204.08 221.299C201.574 217.014 198.611 213.012 195.244 209.363C192.536 206.428 188.137 202.492 183.862 204.822C180.004 206.925 183.629 211.966 183.561 215.024C183.629 220.084 182.471 225.013 182.142 230.041C181.736 234.451 182.354 238.895 183.95 243.026C185.529 246.792 188.589 250.61 192.755 251.557C196.921 252.504 200.059 249.637 201.351 245.902C202.812 241.674 201.648 237.123 202.376 232.826C202.774 233.93 203.571 234.845 204.611 235.391C205.181 235.777 205.867 235.957 206.554 235.9C207.24 235.843 207.887 235.554 208.387 235.079C208.886 234.604 209.208 233.972 209.299 233.289C209.39 232.606 209.245 231.912 208.888 231.323L208.884 231.327ZM206.231 234.197C204.057 234.221 203.454 231.483 203.067 229.828C202.871 229.01 201.836 229.184 201.574 229.828C199.813 234.117 201.116 238.664 200.443 243.094C199.928 246.489 197.899 250.594 193.853 250.185C189.724 249.767 186.643 245.704 185.232 242.126C183.867 238.372 183.332 234.366 183.666 230.386C183.964 225.244 185.177 220.211 185.107 215.038C185.033 213.641 184.745 212.263 184.251 210.954C183.703 209.739 183.541 208.384 183.788 207.074C184.426 205.462 186.875 205.579 188.212 205.998C189.987 206.648 191.579 207.717 192.853 209.115C198.581 214.959 203.178 221.813 206.411 229.331C206.959 230.396 207.391 231.517 207.698 232.675C207.88 233.671 207.162 234.186 206.233 234.197H206.231Z" fill="black"/>
<path d="M61.2652 291.117L57.7901 277.316C56.6318 272.722 55.5889 268.079 54.3131 263.516C53.9218 262.117 52.5776 261.197 51.3077 262.354C49.7756 263.747 51.1707 265.911 50.1552 267.543C47.7289 271.435 42.0487 269.085 38.9866 267.404C37.2682 266.455 35.6565 265.325 34.179 264.033C32.7252 262.767 31.4866 261.33 30.1639 259.937C29.6386 259.239 28.9622 258.668 28.1853 258.268C27.4083 257.868 26.551 257.649 25.6773 257.626C24.9736 257.725 24.3088 258.009 23.7505 258.449C23.1923 258.888 22.7607 259.468 22.4997 260.129C21.2733 263.705 21.3902 267.606 22.8284 271.102C23.8205 273.904 25.4351 276.446 27.551 278.534C29.6668 280.622 32.2287 282.204 35.0439 283.159C37.4032 283.776 39.7273 284.52 42.0057 285.39C43.8229 286.263 45.4011 287.563 46.6048 289.181C47.8085 290.798 48.6019 292.683 48.9166 294.674C48.9733 294.871 49.1047 295.038 49.2829 295.138C49.461 295.239 49.6716 295.267 49.8695 295.214L60.7232 292.066C60.9005 292.017 61.0519 291.901 61.1458 291.743L61.1732 291.708C61.189 291.677 61.2021 291.645 61.2123 291.612C61.2887 291.458 61.3075 291.283 61.2652 291.117ZM50.2511 293.5C49.5922 290.552 47.9912 287.899 45.6901 285.941C42.7179 283.437 39.0198 282.895 35.4548 281.672C31.8928 280.427 28.806 278.105 26.6217 275.028C24.4374 271.951 23.2636 268.272 23.2628 264.498C23.1146 262.876 23.5352 261.252 24.4524 259.906C25.8045 258.358 27.6379 259.599 28.7669 260.728C30.0505 262.009 31.1853 263.412 32.5296 264.641C33.8191 265.823 35.2068 266.893 36.6777 267.84C39.6773 269.762 43.6043 271.683 47.2613 271.079C48.8668 270.83 50.309 269.957 51.2744 268.65C51.713 268.05 52.0027 267.354 52.1197 266.619C52.1745 266.194 52.1804 265.764 52.1373 265.338C52.0982 264.864 51.8771 264.07 52.2097 263.657C52.6989 263.046 52.8124 263.911 52.9082 264.285C53.0569 264.872 53.2017 265.449 53.3485 266.032L54.272 269.701C54.8734 272.088 55.4747 274.475 56.0761 276.862C57.2501 281.506 58.4195 286.15 59.5844 290.794L50.2511 293.5Z" fill="black"/>
<path d="M225.435 86.428C222.784 74.3925 225.388 60.6861 218.391 50.5427C212.668 42.2464 201.449 38.8027 191.56 40.7594C181.671 42.716 173.151 49.2865 167.084 57.3304C161.016 65.3742 160.094 74.3142 154.903 82.9627C152.626 86.7508 146.501 92.2177 145.406 97.8784C144.798 100.706 144.901 103.641 145.705 106.42C146.509 109.198 147.988 111.735 150.012 113.802C154.158 117.701 160.122 118.819 165.734 119.77C182.083 122.538 199.326 125.235 214.885 119.496C220.44 117.447 225.964 113.947 228.044 108.401C230.677 101.369 227.05 93.7557 225.435 86.428ZM185.848 104.85C185.748 105.828 184.199 105.842 184.298 104.85C185.049 97.2998 184.611 89.6787 183.001 82.2642C183.074 82.2113 183.162 82.1839 183.232 82.1292C183.77 82.88 184.358 83.5933 184.993 84.2639C186.24 91.052 186.528 97.9818 185.848 104.85ZM205.62 107.225C205.327 108.176 203.832 107.767 204.125 106.813C205.804 101.299 206.69 95.5743 206.755 89.811C207.289 89.6428 207.82 89.4588 208.344 89.2534C208.319 95.345 207.402 101.4 205.62 107.225ZM219.121 75.3317C218.473 78.7138 216.693 81.7743 214.073 84.0095C211.359 86.4225 208.061 88.0844 204.507 88.8305C200.953 89.5767 197.265 89.3811 193.81 88.2633C189.787 86.8454 186.347 84.136 184.026 80.558C183.966 80.4572 183.883 80.3715 183.784 80.3072C183.685 80.2429 183.573 80.2017 183.457 80.1866C183.34 80.1716 183.221 80.1831 183.109 80.2203C182.998 80.2575 182.896 80.3194 182.811 80.4014C182.098 81.1745 181.129 81.6628 180.084 81.7758C179.038 81.8888 177.987 81.6188 177.125 81.0158C176.305 80.3946 175.644 79.5863 175.199 78.6581C174.755 77.7299 174.538 76.7088 174.568 75.68C174.922 74.47 175.696 73.4258 176.751 72.7348C177.805 72.0438 179.072 71.7512 180.322 71.9095C180.454 71.9434 180.593 71.9423 180.724 71.9064C180.855 71.8706 180.975 71.8011 181.071 71.7049C181.167 71.6087 181.236 71.4891 181.272 71.3579C181.308 71.2267 181.309 71.0884 181.275 70.9566C181.154 70.3539 181.08 69.7415 181.003 69.131C188.196 65.9221 195.332 61.9618 200.032 55.4813C201.666 57.0114 203.339 58.5318 205.082 59.9249C206.863 61.4347 208.931 62.5694 211.162 63.261C213.783 63.9474 216.513 64.1188 219.2 63.7658C219.803 67.5999 219.774 71.507 219.113 75.3317H219.121Z" fill="black"/>
<path d="M193.565 68.679C192.007 68.2987 190.364 68.4883 188.932 69.2135C187.501 69.9387 186.377 71.1517 185.762 72.6334C185.371 73.5531 186.875 73.9522 187.255 73.0463C187.749 71.9553 188.609 71.0712 189.686 70.5464C190.762 70.0217 191.988 69.8892 193.152 70.1719C193.339 70.1954 193.528 70.1509 193.684 70.0466C193.841 69.9423 193.954 69.7852 194.004 69.604C194.054 69.4228 194.038 69.2296 193.957 69.0597C193.876 68.8899 193.737 68.7547 193.565 68.679Z" fill="black"/>
<path d="M214.102 65.3663C213.262 64.884 212.305 64.6416 211.336 64.6658C210.367 64.6899 209.424 64.9796 208.608 65.5033C207.773 66.0414 208.549 67.3817 209.391 66.8417C209.967 66.4532 210.641 66.2343 211.336 66.2097C212.031 66.1852 212.719 66.356 213.322 66.7027C213.496 66.772 213.689 66.7765 213.866 66.7155C214.043 66.6545 214.192 66.532 214.287 66.3703C214.381 66.2086 214.415 66.0183 214.381 65.8341C214.347 65.6499 214.248 65.4839 214.102 65.3663Z" fill="black"/>
<path d="M191.806 73.5707C191.722 73.4883 191.62 73.426 191.508 73.3886C191.396 73.3512 191.277 73.3396 191.16 73.3546C191.043 73.3697 190.931 73.411 190.832 73.4755C190.733 73.5401 190.65 73.6261 190.589 73.7272C190.473 73.9337 190.406 74.1639 190.393 74.4003C190.34 74.6002 190.336 74.81 190.382 75.0118C190.427 75.2136 190.521 75.4012 190.656 75.5586C190.675 75.5958 190.683 75.633 190.705 75.6682C190.781 75.7965 190.895 75.8987 191.031 75.9615C191.167 76.0243 191.318 76.0448 191.466 76.0204C191.64 76.0281 191.813 75.9781 191.956 75.878C192.099 75.7779 192.205 75.6333 192.258 75.4667C192.274 75.4099 192.274 75.3571 192.286 75.3023C192.316 75.2196 192.331 75.1321 192.331 75.044C192.354 74.7752 192.319 74.5045 192.229 74.2503C192.138 73.996 191.994 73.7642 191.806 73.5707Z" fill="black"/>
<path d="M210.772 70.7746C210.739 70.7198 210.69 70.667 210.651 70.6122C210.612 70.5574 210.612 70.5496 210.584 70.5241C210.557 70.4987 210.512 70.4146 210.465 70.3637C210.377 70.268 210.264 70.1997 210.138 70.1667C210.012 70.1338 209.88 70.1376 209.757 70.1778C209.725 70.1778 209.7 70.1602 209.669 70.1582C209.532 70.1569 209.398 70.1926 209.28 70.2615C209.162 70.3304 209.065 70.43 208.999 70.5496C208.897 70.7743 208.845 71.0191 208.849 71.2662C208.852 71.5133 208.911 71.7564 209.021 71.9779C209.029 72.0813 209.058 72.182 209.106 72.2739C209.154 72.3658 209.22 72.4471 209.301 72.5129C209.381 72.5786 209.473 72.6275 209.573 72.6567C209.672 72.6858 209.777 72.6945 209.88 72.6823C209.917 72.6941 209.939 72.7215 209.978 72.7313C210.176 72.7837 210.387 72.7563 210.565 72.655C210.743 72.5536 210.874 72.3864 210.931 72.1893C210.994 71.9441 211.01 71.6891 210.978 71.4379C210.97 71.2023 210.899 70.9731 210.772 70.7746Z" fill="black"/>
<path d="M204.873 72.6217C205.419 73.8603 205.697 75.9852 203.916 76.3276C202.938 76.5233 203.352 78.0084 204.329 77.8206C205.144 77.605 205.851 77.0972 206.315 76.3939C206.779 75.6906 206.969 74.841 206.847 74.007C206.651 71.8136 204.975 70.1739 204.487 68.0764C204.262 67.098 202.767 67.5168 202.994 68.4873C203.487 69.9222 204.116 71.3067 204.873 72.6217Z" fill="black"/>
<path d="M208.23 77.8968C206.384 79.2865 204.137 80.0424 201.826 80.0519C199.515 80.0614 197.263 79.3241 195.404 77.9496C195.286 77.8837 195.153 77.8495 195.018 77.8503C194.883 77.8511 194.75 77.887 194.633 77.9544C194.515 78.0218 194.418 78.1184 194.349 78.2349C194.28 78.3513 194.243 78.4836 194.24 78.6188C194.241 80.7718 195.035 82.849 196.472 84.4527C197.908 86.0564 199.886 87.0739 202.026 87.3103C203.004 87.4336 203.004 85.8839 202.026 85.7607C200.55 85.569 199.172 84.92 198.084 83.9047C196.996 82.8895 196.253 81.559 195.96 80.1C197.993 81.2121 200.301 81.7213 202.613 81.5682C204.926 81.415 207.146 80.6057 209.015 79.2352C209.804 78.658 209.033 77.3039 208.23 77.8968Z" fill="black"/>
<path d="M113.434 292.772C114.817 292.772 115.938 291.651 115.938 290.268C115.938 288.884 114.817 287.763 113.434 287.763C112.051 287.763 110.929 288.884 110.929 290.268C110.929 291.651 112.051 292.772 113.434 292.772Z" fill="black"/>
<path d="M136.047 287.004C137.43 287.004 138.552 285.883 138.552 284.499C138.552 283.116 137.43 281.995 136.047 281.995C134.664 281.995 133.543 283.116 133.543 284.499C133.543 285.883 134.664 287.004 136.047 287.004Z" fill="black"/>
<path d="M112.735 279.58C111.347 279.933 110.09 280.68 109.117 281.733C108.145 282.785 107.499 284.097 107.257 285.509C107.108 286.487 108.601 286.904 108.752 285.92C108.925 284.769 109.434 283.696 110.215 282.833C110.996 281.971 112.014 281.359 113.142 281.073C114.125 280.887 113.71 279.394 112.735 279.58Z" fill="black"/>
<path d="M140.649 276.319C137.697 275.035 134.869 274.213 131.825 275.712C130.93 276.152 131.713 277.489 132.607 277.048C133.784 276.589 135.05 276.405 136.308 276.51C137.567 276.616 138.785 277.008 139.868 277.657C140.772 278.042 141.561 276.716 140.649 276.319Z" fill="black"/>
<path d="M135.032 291.766C129.553 293.179 124.18 294.897 118.715 296.333C118.601 296.366 118.496 296.424 118.408 296.503C118.32 296.582 118.251 296.681 118.207 296.79C118.162 296.9 118.143 297.018 118.151 297.136C118.158 297.254 118.193 297.369 118.251 297.472C119.141 298.992 120.388 300.272 121.883 301.201C123.379 302.131 125.079 302.682 126.835 302.808C128.132 302.858 129.423 302.602 130.602 302.059C131.782 301.517 132.816 300.704 133.623 299.687C135.136 297.597 135.97 295.092 136.012 292.512C136.01 292.393 135.981 292.277 135.928 292.171C135.874 292.065 135.797 291.973 135.703 291.901C135.609 291.829 135.499 291.779 135.383 291.756C135.266 291.733 135.146 291.736 135.032 291.766ZM132.57 298.527C131.914 299.421 131.047 300.139 130.047 300.617C129.046 301.095 127.943 301.318 126.835 301.266C125.522 301.171 124.245 300.788 123.096 300.146C121.946 299.504 120.952 298.617 120.182 297.548C124.921 296.277 129.612 294.827 134.355 293.565C134.189 295.343 133.575 297.05 132.57 298.527Z" fill="black"/>
<path d="M108.106 521.976C97.7399 515.021 88.2604 506.829 79.877 497.58C78.22 495.519 76.3487 493.639 74.2947 491.972C73.4704 491.253 72.4109 490.86 71.3166 490.869C70.2796 490.958 69.2838 491.317 68.4279 491.909C67.572 492.501 66.8857 493.307 66.4367 494.246C63.7932 499.881 67.415 507.651 71.798 513.617C78.0867 522.189 97.6083 533.986 97.6083 533.986L108.106 521.976Z" fill="black"/>
<path d="M459.768 291.453C461.063 291.156 460.515 289.164 459.218 289.461C457.114 289.945 454.326 290.244 454.011 287.425C453.731 284.93 454.978 282.552 454.144 280.069C453.724 278.817 451.73 279.353 452.154 280.619C453.133 283.515 451.066 286.554 452.463 289.454C453.837 292.306 457.159 292.052 459.768 291.453Z" fill="black"/>
<path d="M451.254 280.478C451.26 280.399 451.255 280.32 451.241 280.242C451.241 280.228 451.241 280.218 451.241 280.204C451.22 280.149 451.194 280.095 451.164 280.044C451.149 280.005 451.132 279.967 451.111 279.93C450.984 279.617 450.752 279.358 450.455 279.197C450.157 279.036 449.813 278.984 449.481 279.049C449.15 279.114 448.851 279.292 448.636 279.553C448.421 279.814 448.303 280.141 448.303 280.479C448.303 280.817 448.421 281.145 448.636 281.406C448.851 281.667 449.15 281.845 449.481 281.91C449.813 281.975 450.157 281.922 450.455 281.761C450.752 281.601 450.984 281.341 451.111 281.028C451.133 280.99 451.153 280.95 451.17 280.909C451.197 280.858 451.221 280.806 451.243 280.752C451.243 280.739 451.243 280.729 451.243 280.715C451.256 280.637 451.26 280.557 451.254 280.478Z" fill="black"/>
<path d="M473.11 280.471C473.114 280.392 473.109 280.313 473.095 280.236C473.095 280.222 473.095 280.21 473.095 280.197C473.077 280.136 473.04 280.093 473.018 280.036C473.002 279.998 472.984 279.96 472.963 279.923C472.836 279.61 472.604 279.351 472.306 279.19C472.009 279.029 471.665 278.977 471.333 279.042C471.002 279.107 470.703 279.285 470.488 279.546C470.273 279.807 470.156 280.135 470.156 280.473C470.156 280.811 470.273 281.138 470.488 281.399C470.703 281.66 471.002 281.838 471.333 281.903C471.665 281.968 472.009 281.916 472.306 281.755C472.604 281.594 472.836 281.335 472.963 281.022C472.989 280.985 473.001 280.94 473.022 280.901C473.044 280.862 473.079 280.805 473.097 280.747C473.096 280.734 473.096 280.722 473.097 280.709C473.11 280.631 473.115 280.55 473.11 280.471Z" fill="black"/>
<path d="M464.006 272.63C463.143 273.634 464.593 275.101 465.466 274.09C466.314 273.112 467.496 272.485 468.782 272.332C470.067 272.179 471.363 272.511 472.418 273.262C473.5 274.045 474.533 272.247 473.461 271.48C472.012 270.495 470.256 270.07 468.517 270.281C466.779 270.493 465.176 271.327 464.006 272.63Z" fill="black"/>
<path d="M452.685 271.493C453.958 271.885 454.502 269.893 453.234 269.503C451.756 269.059 450.179 269.056 448.699 269.495C447.219 269.935 445.899 270.797 444.903 271.977C444.064 272.994 445.517 274.462 446.363 273.436C447.102 272.518 448.099 271.842 449.226 271.496C450.353 271.149 451.557 271.149 452.685 271.493Z" fill="black"/>
<path d="M512.159 271.079C510.368 266.655 507.712 262.634 504.346 259.25C505.698 257.11 506.371 254.611 506.277 252.081C506.183 249.551 505.326 247.109 503.819 245.075C502.312 243.041 500.225 241.51 497.832 240.683C495.439 239.856 492.853 239.771 490.411 240.441C489.161 236.076 486.92 232.058 483.862 228.701C482.32 227.04 480.411 225.762 478.287 224.969C476.164 224.176 473.885 223.889 471.631 224.132C469.386 224.457 467.323 225.552 465.797 227.229C464.27 228.907 463.373 231.063 463.26 233.329C457.447 231.66 451.237 232.031 445.664 234.38C440.091 236.73 435.489 240.916 432.625 246.243C431.021 249.065 430.453 252.358 431.018 255.554C431.342 257.135 432.174 258.566 433.388 259.629C434.601 260.693 436.128 261.33 437.738 261.444C434.812 262.919 432.422 265.273 430.902 268.175C429.381 271.077 428.806 274.382 429.258 277.627C429.71 280.871 431.165 283.894 433.42 286.27C435.676 288.646 438.618 290.258 441.835 290.878C442.031 291.483 442.226 292.083 442.447 292.674C443.361 295.105 444.585 297.407 446.091 299.523C445.883 299.498 445.673 299.543 445.494 299.65C440.891 302.384 436.674 305.722 432.957 309.576C432.034 310.533 433.494 311.994 434.417 311.036C438.009 307.307 442.085 304.078 446.537 301.434C446.668 301.361 446.78 301.258 446.863 301.133C446.947 301.008 446.999 300.865 447.016 300.716C448.371 302.414 449.956 303.915 451.726 305.175C455.814 308.063 460.88 309.211 465.814 308.367C469.425 307.707 472.795 306.094 475.574 303.694C470.305 310.559 463.531 316.122 455.772 319.954C454.581 320.541 455.625 322.322 456.815 321.737C466.055 317.156 473.916 310.209 479.599 301.603C482.221 303.207 485.336 303.805 488.366 303.285C491.55 302.566 494.36 300.705 496.264 298.054C498.168 295.402 499.034 292.145 498.698 288.898C500.918 289.769 503.373 289.838 505.64 289.095C507.906 288.351 509.843 286.841 511.116 284.824C512.319 282.761 513.038 280.452 513.219 278.071C513.399 275.69 513.037 273.299 512.159 271.079ZM484.57 280.594C483.737 290.516 478.505 301.691 468.631 305.443C466.545 306.254 464.316 306.636 462.079 306.567C459.841 306.498 457.64 305.979 455.608 305.04C451.329 302.874 447.874 299.37 445.768 295.061C443.297 290.147 442.102 284.69 442.291 279.193C442.193 274.059 443.738 269.028 446.701 264.835C452.143 257.863 462.11 256.617 470.261 258.446C474.183 259.194 477.759 261.184 480.463 264.121C483.214 267.601 484.7 271.914 484.676 276.35C484.719 277.763 484.682 279.177 484.567 280.586L484.57 280.594ZM490.116 284.717C489.809 285.88 489.153 286.922 488.237 287.702C487.321 288.482 486.189 288.964 484.991 289.082C485.396 287.818 485.729 286.534 485.991 285.233C486.293 283.7 486.508 282.151 486.635 280.594C486.707 279.67 486.734 278.737 486.742 277.802C488.037 278.362 489.089 279.367 489.707 280.635C490.325 281.904 490.469 283.351 490.112 284.717H490.116Z" fill="black"/>
<path d="M467.853 291.481C467.698 291.446 467.536 291.457 467.388 291.513C467.24 291.57 467.111 291.669 467.019 291.798C465.889 293.215 464.439 294.344 462.788 295.093C461.137 295.841 459.332 296.187 457.521 296.102C456.193 296.04 456.197 298.106 457.521 298.167C459.322 298.243 461.119 297.956 462.806 297.323C464.493 296.691 466.036 295.725 467.342 294.484C467.26 297.352 466.175 300.101 464.276 302.252C463.615 302.994 464.706 304.093 465.372 303.346C466.733 301.818 467.74 300.009 468.32 298.047C468.901 296.085 469.041 294.02 468.731 291.997C468.721 291.899 468.688 291.804 468.634 291.72C468.581 291.636 468.508 291.567 468.423 291.516C468.337 291.466 468.241 291.437 468.142 291.43C468.043 291.424 467.944 291.441 467.853 291.481Z" fill="black"/>
<path d="M348.645 118.144C349.558 123.303 350.471 128.462 351.384 133.623C351.558 134.601 353.049 134.188 352.877 133.212C351.964 128.051 351.051 122.891 350.138 117.731C349.965 116.752 348.482 117.167 348.645 118.144Z" fill="#84D0AB"/>
<path d="M353.93 69.6789L354.822 102.461C354.848 102.647 354.941 102.818 355.084 102.942C355.226 103.065 355.408 103.133 355.597 103.133C355.785 103.133 355.967 103.065 356.11 102.942C356.252 102.818 356.345 102.647 356.372 102.461L355.477 69.6789C355.449 69.4937 355.356 69.3247 355.214 69.2026C355.072 69.0805 354.891 69.0133 354.704 69.0133C354.516 69.0133 354.335 69.0805 354.193 69.2026C354.051 69.3247 353.958 69.4937 353.93 69.6789Z" fill="#84D0AB"/>
<path d="M360.543 118.84L362.433 142.516C362.512 143.494 364.061 143.512 363.981 142.516C363.351 134.626 362.722 126.735 362.093 118.84C362.013 117.854 360.463 117.846 360.543 118.84Z" fill="#84D0AB"/>
<path d="M366.317 84.2482C366.358 93.0493 366.4 101.851 366.443 110.653C366.471 110.839 366.564 111.008 366.706 111.13C366.848 111.252 367.029 111.319 367.216 111.319C367.404 111.319 367.585 111.252 367.727 111.13C367.869 111.008 367.962 110.839 367.99 110.653C367.95 101.852 367.908 93.0506 367.865 84.2482C367.837 84.063 367.744 83.894 367.602 83.7719C367.46 83.6497 367.279 83.5826 367.091 83.5826C366.904 83.5826 366.723 83.6497 366.581 83.7719C366.439 83.894 366.345 84.063 366.317 84.2482Z" fill="#84D0AB"/>
<path d="M369.483 38.7204C370.201 49.6399 370.918 60.5594 371.636 71.4789C371.7 72.469 373.25 72.4768 373.185 71.4789C372.465 60.5607 371.748 49.6412 371.033 38.7204C370.966 37.7304 369.419 37.7245 369.483 38.7204Z" fill="#84D0AB"/>
<path d="M377.756 107.92V138.88C377.783 139.067 377.876 139.238 378.018 139.361C378.16 139.485 378.342 139.553 378.531 139.553C378.719 139.553 378.901 139.485 379.044 139.361C379.186 139.238 379.279 139.067 379.306 138.88V107.92C379.279 107.733 379.186 107.563 379.044 107.439C378.901 107.316 378.719 107.248 378.531 107.248C378.342 107.248 378.16 107.316 378.018 107.439C377.876 107.563 377.783 107.733 377.756 107.92Z" fill="#84D0AB"/>
<path d="M361.7 62.4177L359.874 36.0027C359.806 35.0243 358.256 35.0067 358.326 36.0027L360.152 62.4177C360.222 63.396 361.77 63.4077 361.7 62.4177Z" fill="#84D0AB"/>
<path d="M344.933 20.5039L345.843 49.6446C345.874 50.6386 347.422 50.6425 347.392 49.6446L346.483 20.5039C346.451 19.51 344.904 19.506 344.933 20.5039Z" fill="#84D0AB"/>
<path d="M340.219 64.2276C341.156 76.0629 342.094 87.8987 343.033 99.7353C343.109 100.714 344.659 100.731 344.581 99.7353L341.769 64.2276C341.691 63.2415 340.141 63.2336 340.219 64.2276Z" fill="#84D0AB"/>
<path d="M361.03 27.7964C360.347 22.0386 359.665 16.2801 358.984 10.521C358.868 9.54266 357.319 9.53092 357.436 10.521C358.117 16.2788 358.799 22.0373 359.481 27.7964C359.598 28.7728 361.148 28.7845 361.03 27.7964Z" fill="#84D0AB"/>
<path d="M384.681 18.6686L383.955 36.8871C383.916 37.8831 385.463 37.8831 385.504 36.8871L386.23 18.6686C386.269 17.6707 384.722 17.6727 384.681 18.6686Z" fill="#84D0AB"/>
<path d="M380.767 66.9748L382.027 93.3643C382.074 94.3564 383.624 94.3622 383.575 93.3643L382.317 66.9748C382.27 65.9808 380.722 65.9769 380.767 66.9748Z" fill="#84D0AB"/>
<path d="M287.712 549.954C280.326 543.077 266.214 548.802 256.511 551.835C246.808 554.868 239.506 557.388 230.879 562.757C228.727 564.093 226.261 566.236 227.067 568.627C227.92 571.159 231.442 571.204 234.078 570.76L277.436 563.424C280.685 563.192 283.794 562.007 286.372 560.016C288.712 557.793 290.369 551.796 287.712 549.954Z" fill="black"/>
<path d="M442.011 497.721C441.571 496.827 440.234 497.612 440.673 498.504C441.861 500.918 442.985 503.362 444.046 505.835C444.437 506.749 445.772 505.961 445.384 505.053C444.319 502.581 443.194 500.137 442.011 497.721Z" fill="black"/>
<path d="M449.552 491.02C449.994 495.956 450.558 500.878 451.244 505.787C451.381 506.765 452.874 506.35 452.737 505.374C452.072 500.603 451.527 495.819 451.102 491.02C451.012 490.035 449.464 490.026 449.552 491.02Z" fill="black"/>
<path d="M459.621 489.253L458.218 505.755C458.132 506.749 459.682 506.734 459.766 505.755L461.169 489.253C461.253 488.259 459.703 488.265 459.621 489.253Z" fill="black"/>
<path d="M467.673 489.441L463.182 506.055C463.159 506.241 463.204 506.429 463.309 506.585C463.413 506.741 463.57 506.854 463.751 506.904C463.932 506.954 464.125 506.937 464.295 506.857C464.464 506.776 464.599 506.637 464.675 506.466L469.166 489.853C469.189 489.667 469.145 489.478 469.04 489.322C468.936 489.165 468.779 489.052 468.598 489.001C468.416 488.951 468.223 488.968 468.053 489.049C467.883 489.129 467.748 489.268 467.673 489.441Z" fill="black"/>
<path d="M475.824 492.407L470.435 506.025C470.068 506.951 471.566 507.354 471.928 506.436L477.317 492.818C477.683 491.892 476.186 491.489 475.824 492.407Z" fill="black"/>
<path d="M481.313 498.308L477.358 506.029C476.904 506.916 478.241 507.7 478.695 506.812C480.013 504.237 481.331 501.663 482.649 499.089C483.101 498.204 481.768 497.42 481.313 498.308Z" fill="black"/>
<path d="M493.344 519.104C492.965 518.198 491.466 518.595 491.849 519.515L494.185 525.118C494.563 526.024 496.064 525.627 495.68 524.708L493.344 519.104Z" fill="black"/>
<path d="M498.449 516.805C498.373 516.632 498.238 516.493 498.068 516.413C497.899 516.332 497.705 516.315 497.524 516.365C497.343 516.416 497.186 516.529 497.081 516.686C496.977 516.842 496.933 517.031 496.956 517.217C497.683 519.927 498.409 522.637 499.136 525.347C499.212 525.52 499.347 525.659 499.517 525.739C499.686 525.82 499.88 525.837 500.061 525.787C500.242 525.736 500.399 525.623 500.504 525.466C500.608 525.31 500.652 525.121 500.629 524.935C499.901 522.221 499.174 519.511 498.449 516.805Z" fill="black"/>
<path d="M503.722 515.867V525.58C503.75 525.765 503.844 525.934 503.986 526.056C504.128 526.179 504.309 526.246 504.496 526.246C504.683 526.246 504.865 526.179 505.007 526.056C505.149 525.934 505.242 525.765 505.27 525.58V515.867C505.242 515.682 505.149 515.513 505.007 515.391C504.865 515.269 504.683 515.202 504.496 515.202C504.309 515.202 504.128 515.269 503.986 515.391C503.844 515.513 503.75 515.682 503.722 515.867Z" fill="black"/>
<path d="M512.412 514.408C511.687 518.034 510.961 521.659 510.236 525.283C510.04 526.261 511.533 526.672 511.729 525.694C512.454 522.07 513.18 518.446 513.905 514.82C514.101 513.838 512.608 513.429 512.412 514.408Z" fill="black"/>
<path d="M520.775 515.605L517.104 524.97C516.74 525.899 518.237 526.3 518.597 525.383L522.268 516.016C522.626 515.089 521.135 514.686 520.775 515.605Z" fill="black"/>
<path d="M529.709 519.481L526.382 524.845C525.854 525.694 527.193 526.47 527.719 525.627L531.045 520.266C531.574 519.415 530.233 518.636 529.709 519.481Z" fill="black"/>
<path d="M35.0791 221.17C34.6036 220.293 33.2653 221.074 33.7407 221.952L43.3284 239.627C43.8039 240.504 45.1403 239.723 44.6648 238.844C41.4689 232.954 38.2737 227.062 35.0791 221.17Z" fill="black"/>
<path d="M52.5913 223.647C51.5738 228.907 50.557 234.167 49.5409 239.428C49.3452 240.406 50.846 240.819 51.0358 239.838C52.0519 234.579 53.0681 229.319 54.0843 224.058C54.2721 223.08 52.7811 222.669 52.5913 223.647Z" fill="black"/>
<path d="M75.0519 225.175L62.9205 243.396C62.3668 244.227 63.7032 245.004 64.2589 244.178L76.3902 225.956C76.944 225.124 75.6017 224.347 75.0519 225.175Z" fill="black"/>
<path d="M546.941 248.753C546.503 247.596 545.826 246.544 544.955 245.666C544.084 244.788 543.038 244.102 541.885 243.654C540.639 243.355 539.331 243.449 538.14 243.922C536.949 244.395 535.934 245.225 535.232 246.297C533.586 249.029 532.795 252.191 532.963 255.376C533.134 257.1 532.787 258.835 531.967 260.36C530.517 262.054 528.752 259.348 528.12 258.243C527.828 257.542 527.398 256.907 526.856 256.375C526.314 255.843 525.67 255.426 524.964 255.147C524.372 254.946 523.73 254.944 523.137 255.144C522.545 255.343 522.034 255.732 521.684 256.251C521.616 256.37 521.58 256.505 521.58 256.642C521.58 256.78 521.616 256.915 521.684 257.034C526.317 265.549 528.979 274.996 529.474 284.677C529.523 285.667 531.073 285.675 531.022 284.677C530.523 274.914 527.88 265.381 523.279 256.756C524.062 256.124 525.385 256.975 525.899 257.624C526.618 258.865 527.421 260.055 528.304 261.186C528.717 261.636 529.235 261.976 529.812 262.176C530.39 262.376 531.008 262.43 531.611 262.332C532.137 262.174 532.617 261.89 533.008 261.503C533.399 261.117 533.689 260.64 533.853 260.115C534.266 258.797 534.476 257.423 534.475 256.042C534.508 254.338 534.655 252.638 534.915 250.954C535.397 248.479 536.896 245.528 539.637 245.033C542.157 244.579 544.049 246.618 545.153 248.622C546.357 251.085 547.15 253.729 547.501 256.448C549.653 269.01 546.975 281.921 540.003 292.59C539.453 293.426 540.785 294.202 541.339 293.373C548.282 282.687 551.074 269.829 549.187 257.225C548.84 254.31 548.084 251.457 546.941 248.753Z" fill="black"/>
<path d="M547.442 231.505C546.922 230.656 545.581 231.435 546.106 232.288C552.133 242.128 555.363 253.425 555.451 264.964C555.476 268.211 555.245 271.456 554.76 274.667C554.613 275.645 556.104 276.062 556.255 275.08C558.023 263.346 556.548 251.352 551.989 240.396C550.707 237.319 549.187 234.346 547.442 231.505Z" fill="black"/>
<path d="M562.955 242.47C562.879 242.298 562.744 242.159 562.574 242.078C562.404 241.998 562.211 241.981 562.03 242.031C561.848 242.081 561.691 242.195 561.587 242.351C561.483 242.508 561.438 242.696 561.462 242.883C564.838 254.685 564.585 267.23 560.736 278.886C560.423 279.833 561.91 280.24 562.229 279.297C566.154 267.371 566.407 254.541 562.955 242.47Z" fill="black"/>
<path d="M517.46 412.503C520.937 412.868 524.311 413.902 527.396 415.547C528.83 416.291 530.722 417.079 532.168 415.948C532.688 415.43 533.041 414.769 533.185 414.049C533.328 413.329 533.254 412.583 532.973 411.906C532.052 408.535 530.719 405.29 529.004 402.246C527.445 399.268 525.07 396.797 522.156 395.122C520.473 394.225 518.164 393.584 517.333 391.676C516.519 389.805 518.53 388.52 518.767 386.765C518.851 386.439 518.863 386.1 518.802 385.769C518.741 385.439 518.609 385.126 518.414 384.852C518.22 384.578 517.968 384.35 517.676 384.184C517.384 384.018 517.059 383.918 516.724 383.89C514.989 383.89 513.874 385.927 512.878 387.076C507.174 393.629 499.93 398.662 491.798 401.721C490.873 402.068 491.274 403.565 492.209 403.214C499.007 400.673 505.226 396.792 510.496 391.803C511.784 390.58 513.008 389.293 514.165 387.946C514.723 387.297 515.222 386.567 515.836 385.972C516.071 385.745 516.517 385.307 516.887 385.458C517.257 385.608 517.278 386.117 517.253 386.436C517.085 387.179 516.751 387.874 516.274 388.469C515.785 389.216 515.542 390.097 515.578 390.989C515.699 391.792 516.001 392.556 516.462 393.224C516.923 393.893 517.53 394.447 518.237 394.846C519.753 395.824 521.487 396.376 522.956 397.444C524.281 398.436 525.437 399.636 526.379 400.997C528.23 403.809 529.688 406.861 530.713 410.068C531.104 411.199 532.278 413.44 531.386 414.569C530.325 415.891 527.668 413.917 526.586 413.416C523.618 412.046 520.432 411.206 517.174 410.935C509.653 410.274 502.173 412.593 496.344 417.392C495.579 418.034 496.68 419.124 497.439 418.488C500.22 416.224 503.419 414.531 506.854 413.504C510.289 412.477 513.893 412.136 517.46 412.503Z" fill="black"/>
<path d="M538.113 441.322C535.88 437.565 532.729 434.438 528.956 432.232C525.183 430.026 520.912 428.815 516.542 428.712C514.057 428.651 511.578 428.981 509.195 429.69C509.021 429.764 508.88 429.9 508.798 430.07C508.716 430.241 508.699 430.435 508.749 430.617C508.8 430.8 508.915 430.958 509.072 431.062C509.23 431.166 509.42 431.21 509.608 431.185C514.707 429.772 520.13 430.075 525.039 432.049C529.949 434.023 534.072 437.557 536.774 442.107C536.891 442.256 537.058 442.358 537.244 442.393C537.43 442.429 537.623 442.396 537.787 442.3C537.95 442.204 538.073 442.052 538.133 441.872C538.193 441.692 538.186 441.497 538.113 441.322Z" fill="black"/>
<path d="M381.564 557.846C381.186 556.94 379.685 557.337 380.069 558.259L382.405 563.861C382.785 564.768 384.284 564.369 383.9 563.45L381.564 557.846Z" fill="black"/>
<path d="M386.671 555.556C386.596 555.383 386.461 555.242 386.29 555.16C386.12 555.078 385.925 555.06 385.743 555.111C385.561 555.161 385.403 555.276 385.298 555.434C385.194 555.591 385.151 555.782 385.176 555.969C385.901 558.679 386.628 561.389 387.355 564.099C387.431 564.271 387.566 564.41 387.736 564.49C387.905 564.571 388.098 564.588 388.279 564.538C388.46 564.488 388.617 564.375 388.722 564.219C388.826 564.063 388.871 563.875 388.848 563.688L386.671 555.556Z" fill="black"/>
<path d="M391.942 554.619V564.332C391.97 564.517 392.063 564.686 392.205 564.808C392.347 564.93 392.528 564.998 392.716 564.998C392.903 564.998 393.084 564.93 393.226 564.808C393.368 564.686 393.462 564.517 393.49 564.332V554.619C393.462 554.434 393.368 554.265 393.226 554.143C393.084 554.021 392.903 553.953 392.716 553.953C392.528 553.953 392.347 554.021 392.205 554.143C392.063 554.265 391.97 554.434 391.942 554.619Z" fill="black"/>
<path d="M400.631 553.15C399.907 556.773 399.182 560.398 398.456 564.023C398.26 565.001 399.753 565.412 399.951 564.434C400.675 560.81 401.399 557.186 402.124 553.561C402.32 552.592 400.827 552.171 400.631 553.15Z" fill="black"/>
<path d="M408.994 554.357L405.324 563.716C404.96 564.645 406.456 565.046 406.816 564.129C408.041 561.006 409.266 557.884 410.489 554.764C410.851 553.84 409.354 553.439 408.994 554.357Z" fill="black"/>
<path d="M417.928 558.237L414.602 563.598C414.074 564.448 415.412 565.226 415.938 564.381L419.265 559.02C419.793 558.167 418.455 557.39 417.928 558.237Z" fill="black"/>
<path d="M160.331 538.486C159.954 537.58 158.455 537.978 158.838 538.899L161.175 544.501C161.552 545.409 163.053 545.01 162.668 544.09L160.331 538.486Z" fill="black"/>
<path d="M165.438 536.191C165.362 536.019 165.227 535.881 165.058 535.8C164.888 535.72 164.695 535.703 164.514 535.753C164.333 535.802 164.176 535.916 164.072 536.071C163.967 536.227 163.922 536.416 163.945 536.602C164.672 539.311 165.398 542.021 166.125 544.732C166.201 544.904 166.336 545.042 166.505 545.123C166.675 545.203 166.868 545.22 167.049 545.171C167.23 545.121 167.387 545.008 167.491 544.852C167.596 544.696 167.641 544.507 167.618 544.321C166.891 541.612 166.165 538.902 165.438 536.191Z" fill="black"/>
<path d="M170.711 535.252V544.965C170.739 545.15 170.833 545.319 170.975 545.441C171.117 545.564 171.298 545.631 171.485 545.631C171.672 545.631 171.854 545.564 171.996 545.441C172.138 545.319 172.231 545.15 172.259 544.965V535.252C172.231 535.067 172.138 534.898 171.996 534.776C171.854 534.654 171.672 534.586 171.485 534.586C171.298 534.586 171.117 534.654 170.975 534.776C170.833 534.898 170.739 535.067 170.711 535.252Z" fill="black"/>
<path d="M179.401 533.779C178.676 537.402 177.95 541.027 177.225 544.652C177.029 545.63 178.522 546.041 178.718 545.065C179.445 541.44 180.17 537.815 180.894 534.19C181.089 533.225 179.597 532.8 179.401 533.779Z" fill="black"/>
<path d="M187.764 534.99L184.093 544.356C183.729 545.284 185.226 545.687 185.586 544.767L189.257 535.403C189.621 534.473 188.124 534.072 187.764 534.99Z" fill="black"/>
<path d="M196.698 538.866L193.372 544.227C192.843 545.076 194.182 545.855 194.708 545.01L198.034 539.647C198.563 538.801 197.232 538.023 196.698 538.866Z" fill="black"/>
<path d="M98.7217 569.991C98.344 569.085 96.8452 569.482 97.2287 570.402L99.565 576.006C99.9426 576.911 101.441 576.514 101.058 575.593L98.7217 569.991Z" fill="black"/>
<path d="M103.829 567.694C103.753 567.522 103.618 567.383 103.448 567.303C103.279 567.222 103.086 567.205 102.905 567.255C102.724 567.305 102.567 567.418 102.462 567.574C102.358 567.73 102.313 567.918 102.336 568.104L104.515 576.236C104.591 576.409 104.726 576.548 104.896 576.628C105.066 576.709 105.259 576.726 105.44 576.676C105.622 576.625 105.779 576.512 105.883 576.355C105.987 576.199 106.032 576.01 106.008 575.824C105.283 573.114 104.556 570.404 103.829 567.694Z" fill="black"/>
<path d="M109.102 566.756V576.469C109.13 576.654 109.223 576.823 109.365 576.945C109.507 577.068 109.688 577.135 109.876 577.135C110.063 577.135 110.244 577.068 110.386 576.945C110.528 576.823 110.622 576.654 110.65 576.469V566.756C110.622 566.571 110.528 566.402 110.386 566.28C110.244 566.158 110.063 566.091 109.876 566.091C109.688 566.091 109.507 566.158 109.365 566.28C109.223 566.402 109.13 566.571 109.102 566.756Z" fill="black"/>
<path d="M117.791 565.281C117.066 568.906 116.341 572.531 115.616 576.156C115.42 577.134 116.913 577.545 117.108 576.567C117.834 572.942 118.559 569.318 119.284 565.694C119.48 564.727 117.987 564.303 117.791 565.281Z" fill="black"/>
<path d="M126.154 566.494L122.487 575.859C122.123 576.786 123.62 577.189 123.98 576.27C125.203 573.148 126.426 570.027 127.651 566.905C128.011 565.978 126.514 565.574 126.154 566.494Z" fill="black"/>
<path d="M135.086 570.368L131.76 575.732C131.234 576.579 132.572 577.357 133.098 576.514L136.425 571.153C136.953 570.304 135.613 569.525 135.086 570.368Z" fill="black"/>
<path d="M480.649 566.909C480.272 566.001 478.773 566.4 479.156 567.32L481.493 572.924C481.87 573.83 483.369 573.433 482.986 572.511L480.649 566.909Z" fill="black"/>
<path d="M485.756 564.612C485.68 564.44 485.545 564.301 485.376 564.221C485.206 564.14 485.013 564.123 484.832 564.173C484.651 564.223 484.494 564.336 484.39 564.492C484.285 564.648 484.24 564.836 484.263 565.023L486.441 573.153C486.517 573.324 486.652 573.463 486.821 573.544C486.991 573.624 487.184 573.641 487.365 573.591C487.546 573.541 487.703 573.428 487.807 573.272C487.912 573.116 487.957 572.928 487.934 572.742L485.756 564.612Z" fill="black"/>
<path d="M491.027 563.673V573.385C491.054 573.572 491.147 573.743 491.289 573.866C491.432 573.99 491.614 574.058 491.802 574.058C491.991 574.058 492.173 573.99 492.315 573.866C492.458 573.743 492.551 573.572 492.577 573.385V563.673C492.551 563.486 492.458 563.315 492.315 563.192C492.173 563.068 491.991 563 491.802 563C491.614 563 491.432 563.068 491.289 563.192C491.147 563.315 491.054 563.486 491.027 563.673Z" fill="black"/>
<path d="M499.719 562.207C498.994 565.831 498.268 569.455 497.543 573.08C497.347 574.059 498.84 574.472 499.036 573.493C499.76 569.868 500.485 566.243 501.212 562.618C501.406 561.646 499.913 561.229 499.719 562.207Z" fill="black"/>
<path d="M508.082 563.412L504.409 572.777C504.045 573.704 505.544 574.108 505.904 573.188L509.575 563.823C509.939 562.896 508.442 562.493 508.082 563.412Z" fill="black"/>
<path d="M517.014 567.288L513.688 572.65C513.159 573.499 514.5 574.278 515.024 573.432L518.35 568.071C518.879 567.222 517.538 566.443 517.014 567.288Z" fill="black"/>
<path d="M220.64 200.826C221.229 201.57 221.855 202.283 222.516 202.963C225.886 206.243 229.819 208.889 234.127 210.776L260.493 170.551C256.654 169.696 252.905 168.279 249.133 167.121C243.263 177.614 235.007 186.531 226.684 195.138C224.836 197.204 222.814 199.107 220.64 200.826Z" fill="#84D0AB"/>
<path d="M279.592 86.6804C276.841 81.6987 269.662 80.7869 264.483 83.1408C259.303 85.4946 255.625 90.1691 252.017 94.5677C248.409 98.9663 244.386 103.455 238.95 105.163C229.153 108.249 210.711 97.7023 199.404 98.5534C198.268 98.47 197.128 98.4785 195.993 98.5789C186.819 99.4124 180.248 106.838 175.644 114.156C170.273 122.782 166.046 132.069 163.067 141.784C159.716 152.002 158.063 162.7 158.175 173.453C158.299 183.473 160.916 193.304 165.788 202.061C170.032 209.403 177.119 217.501 186.298 217.756C188.233 217.815 190.16 217.485 191.964 216.786C193.769 216.087 195.415 215.033 196.805 213.686C198.119 212.397 199.065 210.782 199.545 209.005C200.057 206.496 199.877 203.895 199.024 201.48C198.224 198.79 197.13 196.179 196.138 193.555L193.203 185.803C191.207 180.523 189.211 175.24 187.214 169.954C186.862 169.019 188.357 168.622 188.709 169.543C191.138 176.366 194.246 182.929 197.985 189.131C199.671 191.82 201.597 194.351 203.74 196.692C205.775 199.156 208.33 201.139 211.222 202.499C212.796 203.092 214.501 203.249 216.157 202.954C217.813 202.659 219.359 201.923 220.632 200.823C222.806 199.103 224.828 197.2 226.676 195.134C235 186.525 243.257 177.611 249.125 167.117C249.678 166.127 250.24 165.143 250.749 164.121C250.644 164.133 250.538 164.124 250.438 164.094C250.337 164.064 250.243 164.014 250.162 163.947C248.4 162.542 246.77 160.98 245.292 159.281C240.936 153.982 237.446 148.027 234.953 141.637C238.2 141.433 241.396 140.732 244.431 139.559C262.765 131.226 273.088 118.036 279.361 98.8958C280.684 94.9121 281.621 90.3511 279.592 86.6804ZM190.579 152.773C190.522 152.848 190.448 152.91 190.363 152.954C190.278 152.997 190.185 153.022 190.09 153.025C189.642 157.718 188.419 162.304 186.47 166.597C186.057 167.502 184.723 166.716 185.132 165.814C188.581 158.206 189.613 149.723 188.088 141.51C187.907 140.532 189.399 140.121 189.583 141.099C190.167 144.235 190.395 147.427 190.264 150.614C191.955 148.048 192.68 144.964 192.311 141.913C192.196 140.923 193.745 140.935 193.859 141.913C194.075 143.851 193.896 145.813 193.332 147.679C192.769 149.546 191.832 151.279 190.579 152.773ZM208.802 133.809C207.994 132.594 207.185 131.38 206.374 130.165C205.82 129.334 207.156 128.559 207.712 129.383L210.14 133.024C210.688 133.86 209.346 134.634 208.794 133.809H208.802ZM214.347 145.281C213.738 144.498 215.085 143.715 215.685 144.498L218.875 148.628C219.483 149.411 218.137 150.194 217.536 149.411C216.468 148.028 215.402 146.652 214.339 145.281H214.347ZM225.727 163.605L223.283 159.973C222.723 159.142 224.066 158.369 224.619 159.191L227.063 162.822C227.615 163.652 226.273 164.427 225.719 163.605H225.727ZM233.086 176.91C232.276 175.696 231.466 174.481 230.658 173.267C230.102 172.435 231.44 171.66 231.994 172.484L234.422 176.125C234.97 176.961 233.626 177.736 233.078 176.91H233.086ZM233.841 163.08C231.603 160.548 229.472 157.927 227.449 155.217C226.615 154.1 225.803 152.968 225.013 151.82C224.414 150.957 223.839 150.076 223.265 149.198C223.101 148.947 222.931 148.703 222.77 148.45C222.062 147.348 221.373 146.233 220.702 145.104L220.673 145.058C216.657 138.335 213.304 131.239 210.659 123.869C210.322 122.928 211.819 122.527 212.154 123.458C213.282 126.612 214.543 129.715 215.936 132.768C217.331 135.812 218.871 138.788 220.512 141.702C221.518 143.48 222.568 145.232 223.663 146.959L223.747 147.094C224.845 148.82 225.985 150.516 227.167 152.182L227.273 152.325C228.318 153.79 229.403 155.224 230.513 156.641C230.779 156.981 231.045 157.32 231.315 157.656C232.489 159.124 233.691 160.572 234.935 161.981C235.583 162.728 234.495 163.828 233.833 163.08H233.841Z" fill="#F36E72"/>
<path d="M128.316 309.255C125.917 309.517 123.491 309.333 121.159 308.711C121.756 312.921 122.354 317.131 122.951 321.341C125.268 320.662 127.547 319.878 129.764 319.027C134.39 317.248 138.937 315.199 143.506 313.239C142.649 309.631 141.87 306.006 141.17 302.364C137.917 306.212 133.321 308.676 128.316 309.255Z" fill="black"/>
<path d="M121.458 321.758L119.535 308.212C115.725 306.791 112.389 304.332 109.905 301.113C107.421 297.894 105.888 294.043 105.48 289.998C104.144 278.097 112.201 267.424 123.481 266.158C128.024 265.733 132.58 266.817 136.444 269.244C140.308 271.671 143.264 275.304 144.854 279.58C144.891 279.58 144.926 279.569 144.964 279.569C146.294 279.562 147.581 280.043 148.582 280.92C149.583 281.797 150.228 283.01 150.397 284.33C150.565 285.65 150.245 286.986 149.497 288.086C148.748 289.186 147.623 289.975 146.333 290.303C145.952 294.057 144.613 297.651 142.445 300.74C143.185 304.721 144.024 308.682 144.964 312.623C149.6 310.589 154.373 308.88 159.247 307.51C159.122 305.424 158.973 303.34 158.766 301.26C158.171 294.439 156.831 287.703 154.772 281.173C153.056 275.316 149.995 269.941 145.832 265.477C141.551 261.193 135.81 258.684 129.758 258.452C125.561 258.24 121.364 258.877 117.42 260.327C113.476 261.777 109.865 264.009 106.805 266.889C100.348 273.133 96.6926 281.703 94.2252 290.191C91.7673 299.641 90.2881 309.318 89.811 319.07C91.0542 319.853 92.3515 320.547 93.693 321.146C102.365 324.961 112.158 324.28 121.458 321.758Z" fill="black"/>
<path d="M98.7901 378.398C95.8434 374.226 91.0457 371.968 86.4045 369.702C86.3575 370.133 86.3203 370.563 86.2773 370.996C86.0928 377.677 86.7502 384.355 88.2339 390.872C88.8178 392.449 89.538 393.972 90.3863 395.425C92.5418 398.945 95.6549 401.778 99.3615 403.594C100.714 404.271 102.118 404.839 103.56 405.292C103.272 401.366 102.986 397.439 102.702 393.513C102.316 388.256 101.833 382.705 98.7901 378.398Z" fill="black"/>
<path d="M189.19 498.414C183.736 495.419 178.629 491.833 173.959 487.721C170.817 485.132 167.757 482.438 164.736 479.716C167.63 476.135 170.467 472.512 173.171 468.786C177.084 463.397 180.769 457.853 184.226 452.154C185.922 449.359 187.549 446.526 189.108 443.655L189.262 443.363V440.138C189.147 440.334 189.014 440.551 188.946 440.68C188.554 441.412 188.163 442.143 187.772 442.872C187.002 444.285 186.219 445.688 185.424 447.081C182.162 452.762 178.66 458.291 174.916 463.669C167.344 474.506 159.002 484.784 149.955 494.424C140.966 504.024 131.454 513.12 121.462 521.671C120.318 522.677 119.098 523.592 117.813 524.41C113.499 520.806 109.137 517.262 104.727 513.778C104.815 513.77 104.9 513.744 104.978 513.702C105.056 513.66 105.124 513.602 105.179 513.533C116.366 500.177 127.279 486.598 137.918 472.795C148.585 458.958 158.968 444.906 169.066 430.641C174.56 422.879 179.966 415.053 185.285 407.161L183.164 407.523C173.873 421.253 164.327 434.799 154.526 448.161C144.187 462.237 133.563 476.097 122.656 489.74C116.551 497.376 110.359 504.942 104.079 512.437C103.995 512.535 103.937 512.652 103.91 512.778C103.884 512.904 103.89 513.034 103.928 513.157C100.387 510.357 96.8276 507.578 93.2508 504.82C94.8299 501.92 96.8648 499.222 98.6943 496.487C100.714 493.467 102.735 490.447 104.76 487.427L116.977 469.16L141.41 432.619L154.577 412.943L154.021 413.07C153.471 413.193 152.923 413.33 152.373 413.461L149.466 417.809L143.205 427.17C139.487 432.731 135.769 438.291 132.052 443.85C128.796 439.516 125.787 435.002 123.039 430.33C121.522 427.737 120.243 425.013 119.218 422.19C118.713 422.323 118.208 422.46 117.701 422.591C120.4 429.256 123.964 435.536 128.301 441.271C129.226 442.594 130.204 443.876 131.169 445.169L130.582 446.042L105.435 483.633L98.3675 494.199L94.8338 499.482C93.6534 501.133 92.5676 502.85 91.5818 504.624C91.4855 504.803 91.4606 505.012 91.5122 505.208C91.5638 505.405 91.6879 505.574 91.8596 505.683C100.436 512.269 108.924 518.973 117.218 525.913C117.342 526.029 117.499 526.103 117.667 526.125C117.835 526.147 118.006 526.115 118.155 526.034C120.963 524.212 123.584 522.118 125.982 519.783C128.46 517.605 130.907 515.396 133.321 513.155C138.205 508.63 142.96 503.969 147.586 499.173C153.225 493.312 158.616 487.226 163.759 480.915C165.475 482.469 167.191 484.021 168.948 485.523C174.008 490.089 179.424 494.244 185.144 497.948C186.48 498.76 187.856 499.504 189.266 500.177V496.414C189.262 497.036 189.198 497.735 189.19 498.414Z" fill="#74A3D7"/>
<path d="M114.173 485.253L97.7727 507.031C97.174 507.827 98.5182 508.596 99.1111 507.814L128.303 469.044L157.494 430.271L173.324 409.249C172.576 409.384 171.833 409.526 171.087 409.661L143.365 446.48L114.173 485.253Z" fill="#74A3D7"/>
<path d="M128.972 497.034C123.2 504.078 117.32 511.028 111.332 517.883C110.681 518.63 111.771 519.73 112.428 518.976C123.125 506.715 133.482 494.168 143.502 481.336C153.521 468.504 163.181 455.4 172.48 442.025C177.71 434.505 182.823 426.905 187.82 419.226C188.364 418.386 187.024 417.609 186.482 418.443C177.638 432.034 168.428 445.377 158.852 458.472C149.249 471.598 139.289 484.452 128.972 497.034Z" fill="#74A3D7"/>
<path d="M183.69 436.425C176.268 448.344 168.311 459.902 159.819 471.101C151.34 482.273 142.348 493.035 132.842 503.386C127.486 509.222 121.981 514.915 116.326 520.466C115.614 521.166 116.717 522.26 117.422 521.561C127.478 511.685 137.065 501.359 146.185 490.583C155.253 479.85 163.815 468.716 171.872 457.181C176.437 450.641 180.828 443.983 185.044 437.207C185.557 436.358 184.216 435.58 183.69 436.425Z" fill="#74A3D7"/>
<path d="M127.784 363.985L125.201 348.977C124.847 350.454 124.151 351.826 123.169 352.983C122.187 354.141 120.947 355.052 119.548 355.642C116.026 357.105 112.418 355.865 109.241 354.116C110.222 358.688 111.2 363.26 112.176 367.832C116.983 365.544 122.193 364.222 127.51 363.94C127.603 363.938 127.696 363.953 127.784 363.985Z" fill="#FCAFB7"/>
<path d="M118.693 354.323C119.992 353.834 121.144 353.019 122.037 351.957C122.931 350.895 123.537 349.621 123.796 348.257L108.959 352.171C111.876 353.934 115.3 355.554 118.693 354.323Z" fill="#FCAFB7"/>
<path d="M152.371 413.457C152.921 413.33 153.469 413.193 154.019 413.066L154.575 412.939C155.121 412.814 155.667 412.683 156.214 412.567C161.157 411.512 166.117 410.565 171.085 409.658C171.831 409.523 172.574 409.38 173.322 409.245C176.597 408.658 179.875 408.085 183.156 407.527L185.277 407.165L189.261 406.484V309.997C181.669 306.021 172.956 304.725 164.536 306.32C162.746 306.629 160.987 307.046 159.241 307.512C154.367 308.882 149.594 310.591 144.958 312.624C144.474 312.82 143.991 313.031 143.51 313.239C138.941 315.196 134.394 317.248 129.768 319.027C127.551 319.878 125.268 320.662 122.955 321.341C122.46 321.488 121.961 321.623 121.462 321.758C112.162 324.28 102.369 324.961 93.6871 321.146C92.3456 320.547 91.0484 319.853 89.8051 319.07C79.0806 312.417 72.7939 299.914 65.4994 289.256C64.0898 287.081 62.4318 285.078 60.5588 283.286C54.6888 285.918 48.8188 288.569 42.7962 290.772C42.7551 291.078 42.7121 291.385 42.6788 291.686C39.3231 322.576 56.7277 354.681 84.4419 368.728C85.0915 369.057 85.7489 369.38 86.3986 369.706C91.0398 371.972 95.8375 374.23 98.7843 378.402C101.827 382.706 102.306 388.259 102.698 393.517C102.983 397.445 103.27 401.371 103.557 405.296L104.535 418.641C104.63 420.954 105.032 423.244 105.728 425.452C109.74 424.589 113.725 423.618 117.701 422.591C118.208 422.46 118.713 422.323 119.218 422.19C130.269 419.29 141.248 416.021 152.371 413.457ZM112.094 369.581C111.976 369.638 111.847 369.666 111.716 369.662C111.586 369.659 111.458 369.624 111.344 369.56C111.23 369.496 111.134 369.406 111.062 369.297C110.99 369.188 110.946 369.063 110.933 368.933C110.85 368.84 110.792 368.726 110.767 368.603L107.441 353.061L107.411 353.043C107.307 352.982 107.219 352.895 107.158 352.791C107.096 352.686 107.062 352.568 107.059 352.447C106.932 352.368 106.83 352.255 106.764 352.121C106.699 351.987 106.674 351.836 106.691 351.688C106.709 351.54 106.768 351.399 106.863 351.284C106.958 351.168 107.083 351.082 107.225 351.036C107.336 350.859 107.51 350.731 107.712 350.677C107.914 350.623 108.129 350.648 108.313 350.746L124.162 346.563C124.255 346.485 124.364 346.429 124.482 346.397C124.599 346.366 124.722 346.361 124.841 346.383L125.456 346.22C125.558 346.192 125.665 346.185 125.77 346.202C125.875 346.218 125.975 346.257 126.064 346.315C126.152 346.374 126.228 346.451 126.284 346.541C126.34 346.63 126.377 346.732 126.391 346.837C126.401 346.858 126.409 346.879 126.416 346.901C127.426 352.771 128.436 358.641 129.447 364.511C129.594 365.366 128.469 365.791 128.078 365.228C128.009 365.309 127.924 365.375 127.828 365.421C127.732 365.467 127.628 365.492 127.522 365.496C122.151 365.773 116.897 367.164 112.094 369.581Z" fill="#F58AB4"/>
<path d="M128.066 365.224C128.457 365.787 129.586 365.363 129.435 364.507C128.423 358.637 127.413 352.767 126.405 346.897C126.397 346.876 126.389 346.854 126.379 346.833C126.365 346.728 126.329 346.627 126.272 346.537C126.216 346.447 126.141 346.37 126.052 346.311C125.963 346.253 125.863 346.214 125.758 346.198C125.653 346.182 125.546 346.188 125.444 346.217L124.829 346.379C124.71 346.357 124.587 346.363 124.47 346.394C124.353 346.425 124.244 346.481 124.15 346.559L108.301 350.742C108.117 350.644 107.902 350.619 107.701 350.673C107.499 350.727 107.325 350.855 107.214 351.032C107.072 351.078 106.946 351.164 106.851 351.28C106.757 351.396 106.697 351.536 106.68 351.684C106.662 351.833 106.687 351.983 106.753 352.117C106.818 352.252 106.92 352.365 107.047 352.443C107.05 352.564 107.085 352.682 107.146 352.787C107.208 352.891 107.295 352.978 107.399 353.039L107.429 353.057L110.755 368.599C110.781 368.722 110.838 368.836 110.921 368.93C110.934 369.059 110.979 369.184 111.05 369.293C111.122 369.402 111.219 369.492 111.333 369.556C111.447 369.62 111.574 369.655 111.705 369.658C111.835 369.662 111.964 369.634 112.082 369.577C116.882 367.161 122.132 365.768 127.498 365.488C127.606 365.487 127.713 365.463 127.811 365.417C127.908 365.372 127.995 365.306 128.066 365.224ZM123.796 348.259C123.536 349.623 122.931 350.897 122.037 351.959C121.144 353.021 119.992 353.836 118.693 354.325C115.3 355.556 111.876 353.934 108.959 352.173L123.796 348.259ZM109.241 354.116C112.418 355.865 116.019 357.105 119.548 355.642C120.947 355.052 122.187 354.141 123.169 352.983C124.151 351.826 124.847 350.454 125.201 348.977L127.784 363.985C127.696 363.954 127.603 363.939 127.51 363.942C122.196 364.224 116.989 365.546 112.184 367.832C111.201 363.261 110.22 358.689 109.241 354.116Z" fill="white"/>
<path d="M434.576 416.733C428.646 411.359 423.526 405.156 419.374 398.315V428.577C424.767 425.065 429.852 421.103 434.576 416.733Z" fill="#FCAFB7"/>
<path d="M525.169 282.844C521.724 285.986 518.654 289.516 516.022 293.365C510.226 301.724 503.89 309.997 495.412 315.61C486.934 321.224 475.861 323.828 466.411 320.066C458.617 316.962 452.974 310.102 445.752 305.833C438.06 301.33 428.943 299.923 420.251 301.898C419.953 301.966 419.664 302.06 419.372 302.148V395.309C419.419 395.391 419.464 395.474 419.513 395.554C421.047 398.184 422.705 400.734 424.487 403.206C431.425 413.272 441.006 421.227 452.176 426.195C462.775 430.626 474.637 430.993 485.49 427.226C490.804 425.351 495.595 422.239 499.468 418.147C503.077 414.256 506.368 407.75 503.812 402.494C501.237 397.186 494.616 396.667 489.452 396.135C483.707 395.641 478.098 394.111 472.897 391.619C462.163 386.094 453.552 377.183 448.397 366.266C442.778 353.948 440.193 340.461 440.858 326.937C440.886 326.752 440.98 326.583 441.122 326.461C441.264 326.339 441.445 326.272 441.632 326.272C441.82 326.272 442.001 326.339 442.143 326.461C442.285 326.583 442.378 326.752 442.406 326.937C442.316 330.334 442.369 333.735 442.602 337.126C443.529 350.554 447.339 364.114 455.496 374.993C457.134 377.171 458.934 379.22 460.881 381.125C464.774 373.018 467.665 364.466 469.49 355.659C485.198 358.007 501.384 351.83 513.515 341.585C525.647 331.34 534.139 317.381 540.517 302.843C541.104 301.497 541.66 300.123 542.175 298.744C546.023 288.37 532.517 276.228 525.169 282.844ZM484.394 403.66C485.001 406.694 485.608 409.73 486.216 412.767C486.412 413.745 484.917 414.154 484.721 413.178L482.901 404.071C482.71 403.095 484.199 402.682 484.394 403.66ZM460.208 420.775L467.493 410.757C468.08 409.959 469.416 410.732 468.829 411.54L461.544 421.556C460.969 422.354 459.621 421.581 460.208 420.775ZM441.082 405.502L444.799 392.771C444.875 392.6 445.01 392.461 445.18 392.38C445.349 392.3 445.542 392.283 445.723 392.333C445.904 392.383 446.061 392.496 446.165 392.652C446.27 392.808 446.315 392.996 446.292 393.182L442.586 405.912C442.514 406.09 442.379 406.234 442.208 406.319C442.036 406.403 441.839 406.422 441.655 406.372C441.47 406.321 441.31 406.205 441.206 406.044C441.101 405.884 441.059 405.691 441.087 405.502H441.082ZM436.973 376.985L427.958 370.483C427.156 369.906 427.929 368.564 428.741 369.147L437.755 375.647C438.565 376.226 437.792 377.568 436.982 376.985H436.973ZM459.793 332.353C459.185 333.568 458.578 334.782 457.971 335.997C457.525 336.889 456.189 336.102 456.633 335.214C457.241 334.001 457.848 332.787 458.455 331.573C458.911 330.677 460.247 331.459 459.803 332.353H459.793ZM484.938 336.237L475.842 342.612C475.024 343.186 474.251 341.841 475.059 341.274L484.165 334.901C484.985 334.328 485.76 335.67 484.948 336.237H484.938ZM498.371 338.507L495.631 331.223C495.279 330.285 496.778 329.886 497.124 330.81C498.037 333.237 498.951 335.665 499.864 338.094C500.226 339.032 498.727 339.431 498.381 338.503L498.371 338.507ZM520.957 323.754L511.852 322.827C510.874 322.727 510.86 321.177 511.852 321.279L520.957 322.206C521.949 322.306 521.956 323.856 520.966 323.754H520.957ZM528.302 302.107L527.388 297.554C527.192 296.576 528.685 296.167 528.883 297.143L529.797 301.695C530.002 302.671 528.507 303.088 528.312 302.109L528.302 302.107Z" fill="#F58AB4"/>
<path d="M315.657 187.977C310.574 186.107 305.037 185.854 299.805 187.252C294.572 188.65 289.9 191.631 286.426 195.787C282.953 199.943 280.849 205.07 280.401 210.468C279.954 215.865 281.185 221.269 283.927 225.94C286.669 230.611 290.787 234.32 295.718 236.561C300.649 238.801 306.152 239.463 311.473 238.456C316.795 237.449 321.675 234.822 325.447 230.935C329.218 227.047 331.696 222.09 332.541 216.74C332.75 215.384 332.858 214.015 332.864 212.643C332.826 207.274 331.161 202.043 328.089 197.639C325.017 193.236 320.683 189.867 315.657 187.977Z" fill="black"/>
<path d="M348.678 239.334C346.677 236.119 344.268 233.177 341.511 230.581C333.495 221.921 324.82 213.897 315.561 206.581C308.538 201.175 300.703 196.916 292.348 193.962C283.476 201.169 282.369 213.725 286.963 223.948C290.69 224.629 294.322 227.828 297.554 229.818C302.325 232.951 306.622 236.75 310.316 241.1C313.893 245.481 317.813 249.571 322.038 253.332C326.33 257.118 331.826 259.257 337.548 259.37C343.223 259.196 348.991 255.652 350.496 250.211C351.332 246.487 350.68 242.583 348.678 239.334Z" fill="#84D0AB"/>
<path d="M348.322 275.264C359.564 269.841 371.426 265.81 383.644 263.258C386.26 262.872 388.828 262.209 391.304 261.282C392.341 260.934 393.216 260.219 393.764 259.272C394.211 258.332 394.406 257.292 394.328 256.254C394.25 255.215 393.902 254.216 393.319 253.353C389.797 248.221 381.258 247.419 373.897 248.176C363.322 249.262 343.27 260.129 343.27 260.129L348.322 275.264Z" fill="black"/>
<path d="M272.791 396.663C271.421 394.282 268.666 392.936 266.408 391.55C263.802 389.95 261.18 388.373 258.503 386.89C253.246 383.838 247.614 381.484 241.748 379.889C240.366 379.334 238.863 379.152 237.389 379.362C236.858 379.543 236.386 379.864 236.023 380.292C235.661 380.72 235.422 381.239 235.332 381.793C235.315 382.415 235.427 383.034 235.663 383.609C235.899 384.185 236.253 384.706 236.702 385.137C236.757 385.209 236.831 385.264 236.898 385.332C236.267 385.223 235.623 385.21 234.988 385.295C234.128 385.379 233.311 385.708 232.633 386.243C231.956 386.778 231.447 387.497 231.166 388.314C230.985 389.159 231.024 390.036 231.282 390.86C231.539 391.685 232.006 392.429 232.636 393.02C233.156 393.516 233.75 393.928 234.397 394.241C233.321 394.487 232.366 395.106 231.703 395.988C231.147 396.753 230.84 397.67 230.823 398.614C230.805 399.559 231.078 400.486 231.605 401.271C233.123 403.435 235.976 404.089 238.4 404.75L256.597 409.714L262.164 411.233C263.315 411.535 264.526 411.522 265.669 411.193C266.813 410.864 267.846 410.232 268.66 409.364C269.465 408.343 270.139 407.225 270.668 406.038C271.304 404.836 271.879 403.568 272.589 402.406C273.091 401.722 273.422 400.928 273.554 400.089C273.664 398.896 273.397 397.697 272.791 396.663ZM271.288 401.555C270.789 402.353 270.396 403.242 269.955 404.073C269.4 405.124 268.864 406.188 268.288 407.227C267.757 408.227 266.904 409.018 265.868 409.474C264.832 409.931 263.673 410.026 262.577 409.744L249.88 406.28C245.591 405.106 241.288 403.985 237.011 402.77C234.986 402.195 232.068 400.931 232.37 398.362C232.726 395.337 236.203 395.391 238.508 395.591C239.382 395.667 239.553 394.272 238.713 394.071C236.324 393.484 232.035 392.31 232.593 388.966C232.776 388.319 233.171 387.752 233.714 387.356C234.257 386.96 234.917 386.756 235.589 386.778C237.219 386.845 238.807 387.316 240.21 388.148C241.098 388.574 241.867 387.318 240.993 386.811C239.966 386.223 239.041 385.472 238.254 384.589C237.649 383.91 236.579 382.789 236.911 381.785C237.303 380.589 238.477 380.748 239.455 380.947C240.715 381.208 241.963 381.519 243.198 381.881C248.101 383.4 252.824 385.446 257.286 387.983C259.587 389.246 261.847 390.582 264.089 391.946C266.305 393.094 268.394 394.472 270.323 396.055C271.125 396.756 271.693 397.687 271.947 398.722C272.051 399.214 272.045 399.723 271.932 400.213C271.818 400.703 271.598 401.163 271.288 401.559V401.555Z" fill="black"/>
<path d="M296.595 336.547C296.388 335.568 294.895 335.985 295.103 336.96C296.522 343.652 299.321 349.975 303.321 355.526C303.908 356.329 305.242 355.556 304.659 354.744C300.733 349.306 297.986 343.108 296.595 336.547Z" fill="black"/>
<path d="M335.064 361.336C328.378 345.771 325.781 328.756 327.519 311.906C327.524 311.825 327.516 311.744 327.495 311.666C328.373 311.689 329.246 311.536 330.064 311.217C330.882 310.898 331.628 310.418 332.258 309.807C333.042 308.941 333.629 307.916 333.979 306.801C334.329 305.687 334.433 304.51 334.284 303.351C334.135 302.193 333.737 301.08 333.117 300.09C332.497 299.1 331.67 298.256 330.692 297.617C330.324 297.38 329.939 297.171 329.54 296.991C329.757 296.435 329.858 295.841 329.839 295.245L329.886 289.111C329.997 286.804 329.826 284.493 329.377 282.228C328.914 279.944 327.631 277.908 325.771 276.504C323.403 275.27 320.805 274.537 318.14 274.352C317.497 274.231 316.692 273.871 316.771 273.219C316.812 272.896 317.078 272.644 317.162 272.329C317.358 271.622 316.636 271.02 315.988 270.67C310.985 267.984 305.174 267.218 299.646 268.517C297.939 269.181 296.072 269.322 294.285 268.922C292.959 268.206 291.795 267.225 290.864 266.04C287.858 263.527 283.994 262.277 280.085 262.551C265.279 262.412 267.062 273.16 266.78 276.264C266.653 279.385 267.081 282.504 268.044 285.476C268.363 287.378 269.304 289.12 270.721 290.43C270.816 290.5 270.928 290.532 271.026 290.592C270.676 294.897 270.134 299.202 269.682 303.491C268.769 309.283 268.819 315.186 269.83 320.962C270.363 323.495 271.479 325.869 273.089 327.896C274.699 329.922 276.76 331.546 279.107 332.637C286.865 336.236 296.04 335.572 304.315 334.905C307.078 334.799 309.805 334.244 312.39 333.261C314.738 332.222 316.772 330.582 318.285 328.507C319.955 326.221 321.138 323.618 321.764 320.858C322.435 319.586 322.719 318.146 322.584 316.714V315.642C322.678 314.552 322.744 313.462 322.77 312.382C322.791 311.54 322.77 310.699 322.77 309.858C323.7 310.716 324.853 311.296 326.096 311.533C326.023 311.64 325.978 311.764 325.965 311.893C324.207 329.017 326.878 346.307 333.721 362.103C334.12 363.03 335.455 362.242 335.064 361.336ZM318.77 324.746C317.69 327.088 316.033 329.119 313.955 330.647C311.654 332.113 309.025 332.982 306.304 333.177C301.352 333.793 296.357 333.99 291.371 333.764C287.826 333.649 284.321 332.978 280.983 331.776C278.684 330.934 276.623 329.546 274.976 327.734C273.33 325.921 272.147 323.736 271.529 321.367C270.398 315.971 270.248 310.417 271.085 304.968C271.531 300.391 272.145 295.826 272.54 291.244C273.74 291.518 274.976 291.6 276.201 291.488C280.566 291.201 284.868 290.293 288.976 288.792C289.844 288.409 290.77 288.173 291.716 288.094C292.191 288.061 292.665 288.16 293.088 288.38C293.51 288.6 293.863 288.932 294.109 289.34C294.299 289.915 294.446 290.504 294.549 291.101C295.151 293.001 297.511 293.627 299.501 293.721C303.886 293.92 308.251 293.013 312.194 291.083C312.364 290.968 312.556 290.889 312.758 290.853C312.961 290.816 313.168 290.822 313.368 290.87C313.665 291.041 313.882 291.322 313.973 291.653C314.426 293.168 314.704 294.731 314.8 296.31C314.865 296.777 314.954 297.241 315.066 297.699C315.078 304.915 315.091 312.131 315.104 319.348C315.037 319.838 315.081 320.338 315.231 320.81C315.382 321.282 315.635 321.715 315.972 322.077C316.511 322.446 317.136 322.672 317.786 322.733C318.437 322.793 319.092 322.688 319.69 322.425C319.431 323.218 319.124 323.995 318.77 324.75V324.746ZM322.668 307.136C322.637 307.064 322.594 306.998 322.541 306.94C322.525 303.932 322.511 300.924 322.498 297.914C322.578 297.961 322.668 297.991 322.76 298.003C322.852 298.015 322.946 298.009 323.036 297.985C327.994 296.525 333.893 300.149 332.682 305.758C332.495 306.871 331.957 307.895 331.147 308.68C330.336 309.466 329.297 309.972 328.179 310.124C327.061 310.277 325.923 310.069 324.932 309.53C323.941 308.991 323.147 308.15 322.668 307.128V307.136Z" fill="black"/>
<path d="M255.161 385.178C264.439 389.023 274.575 390.324 284.523 388.946C285.444 377.83 288.702 367.033 294.083 357.262C290.364 359.969 286.207 362.014 281.793 363.308C274.505 365.197 267.037 366.312 259.515 366.634C258.065 366.75 256.597 366.877 255.161 367.116V356.524C255.161 356.284 255.177 356.027 255.183 355.769H295.003C295.339 355.247 295.678 354.726 296.032 354.221H266.797C262.727 354.221 258.626 354.073 254.558 354.221C254.502 354.221 254.443 354.221 254.386 354.221C254.179 354.221 253.98 354.304 253.833 354.451C253.686 354.597 253.604 354.796 253.604 355.004V385.213C254.124 385.467 254.637 385.743 255.153 386.009L255.161 385.178Z" fill="black"/>
<path d="M354.384 454.24C354.384 454.479 354.368 454.737 354.36 454.993H304.921C305.837 453.757 306.652 452.448 307.357 451.08C304.763 450.285 302.294 449.125 300.025 447.636C292.623 442.635 288.872 434.165 286.72 425.767C275.966 426.782 265.372 429.081 255.165 432.615V408.527L253.615 408.106V443.357C253.615 447.427 253.467 451.528 253.615 455.594C253.615 455.653 253.615 455.71 253.615 455.768C253.618 455.974 253.701 456.171 253.848 456.315C253.994 456.46 254.192 456.541 254.398 456.541H342.759C346.829 456.541 350.93 456.69 354.998 456.541C355.055 456.541 355.113 456.541 355.17 456.541C355.376 456.541 355.574 456.46 355.72 456.315C355.867 456.171 355.95 455.974 355.953 455.768V451.428C355.447 451.628 354.93 451.817 354.403 451.996L354.384 454.24Z" fill="black"/>
<path d="M329.055 398.976C328.653 398.99 328.273 399.16 327.995 399.449C327.716 399.737 327.56 400.123 327.56 400.525C327.56 400.926 327.716 401.312 327.995 401.601C328.273 401.89 328.653 402.059 329.055 402.073C329.456 402.059 329.836 401.89 330.115 401.601C330.393 401.312 330.549 400.926 330.549 400.525C330.549 400.123 330.393 399.737 330.115 399.449C329.836 399.16 329.456 398.99 329.055 398.976Z" fill="white"/>
<path d="M318.129 388.05C317.727 388.064 317.347 388.234 317.068 388.523C316.79 388.811 316.634 389.197 316.634 389.599C316.634 390 316.79 390.386 317.068 390.675C317.347 390.964 317.727 391.133 318.129 391.147C318.53 391.133 318.91 390.964 319.189 390.675C319.467 390.386 319.623 390 319.623 389.599C319.623 389.197 319.467 388.811 319.189 388.523C318.91 388.234 318.53 388.064 318.129 388.05Z" fill="white"/>
<path d="M284.243 410.472C284.402 410.533 284.57 410.568 284.74 410.573C285.141 410.559 285.521 410.39 285.8 410.101C286.079 409.812 286.235 409.426 286.235 409.025C286.235 408.623 286.079 408.237 285.8 407.948C285.521 407.66 285.141 407.49 284.74 407.476C284.502 407.474 284.267 407.528 284.053 407.632C283.795 407.779 283.583 407.995 283.442 408.257C283.301 408.519 283.236 408.815 283.256 409.112C283.276 409.408 283.379 409.693 283.554 409.934C283.728 410.174 283.967 410.361 284.243 410.472Z" fill="white"/>
<path d="M308.414 415.974C308.012 415.988 307.632 416.157 307.354 416.446C307.075 416.735 306.919 417.121 306.919 417.522C306.919 417.924 307.075 418.31 307.354 418.599C307.632 418.887 308.012 419.057 308.414 419.071C308.815 419.057 309.195 418.887 309.474 418.599C309.752 418.31 309.908 417.924 309.908 417.522C309.908 417.121 309.752 416.735 309.474 416.446C309.195 416.157 308.815 415.988 308.414 415.974Z" fill="white"/>
<path d="M318.741 402.619C318.34 402.634 317.96 402.803 317.681 403.092C317.402 403.381 317.246 403.767 317.246 404.168C317.246 404.57 317.402 404.955 317.681 405.244C317.96 405.533 318.34 405.703 318.741 405.717C319.142 405.703 319.522 405.533 319.801 405.244C320.08 404.955 320.236 404.57 320.236 404.168C320.236 403.767 320.08 403.381 319.801 403.092C319.522 402.803 319.142 402.634 318.741 402.619Z" fill="white"/>
<path d="M374.24 399.291C373.827 384.209 369.802 369.041 361.205 357.319C352.607 345.596 339.135 337.707 325.139 338.192C319.349 338.293 313.671 339.806 308.599 342.599C303.526 345.392 299.212 349.382 296.032 354.221C295.678 354.726 295.339 355.247 295.003 355.769C294.688 356.26 294.384 356.759 294.083 357.262C288.702 367.033 285.444 377.83 284.523 388.946C284.37 390.386 284.241 391.824 284.143 393.261C291.398 395.988 298.318 399.533 304.77 403.827C304.93 400.827 305.274 397.84 305.798 394.883C308.056 382.699 313.258 371.251 320.95 361.535C321.016 361.454 321.099 361.387 321.193 361.34C321.218 361.33 321.244 361.323 321.271 361.318C321.329 361.295 321.391 361.282 321.453 361.279C321.49 361.282 321.526 361.289 321.561 361.3C321.608 361.306 321.655 361.317 321.7 361.334C321.752 361.36 321.801 361.391 321.846 361.428C321.869 361.442 321.89 361.457 321.911 361.473C321.973 361.531 322.028 361.596 322.073 361.668C322.154 361.79 322.2 361.932 322.208 362.078C322.215 362.223 322.183 362.369 322.114 362.498C322.095 362.546 322.072 362.593 322.044 362.637C319.894 365.367 317.937 368.244 316.188 371.246C310.151 381.565 306.729 393.203 306.218 405.147C306.216 405.283 306.178 405.415 306.11 405.531C306.041 405.648 305.943 405.744 305.826 405.812C305.709 405.879 305.576 405.915 305.441 405.916C305.305 405.917 305.172 405.883 305.054 405.817C303.684 404.967 302.327 404.12 300.955 403.287C295.63 399.902 289.96 397.092 284.041 394.906C277.548 392.446 270.485 391.903 263.692 393.341C260.953 393.745 258.389 394.935 256.312 396.765C255.863 397.254 255.475 397.795 255.157 398.377C254.426 399.653 254.03 401.094 254.007 402.565C254.001 404.07 254.398 405.55 255.157 406.85C255.47 407.408 255.848 407.927 256.284 408.395C257.33 409.409 258.459 410.332 259.659 411.156C260.853 412.045 262.073 412.896 263.32 413.71C270.355 418.278 278.087 421.667 286.213 423.744C287.583 424.098 288.976 424.405 290.367 424.691C292.841 425.203 295.339 425.587 297.852 425.843C299.008 425.957 300.178 426.025 301.348 426.094C306.368 426.431 311.411 426.177 316.371 425.338C319.562 424.85 322.629 423.749 325.402 422.096C327.948 420.39 330.1 418.157 331.71 415.549C335.199 409.929 337.985 403.902 340.004 397.603C342.205 391.187 343.754 384.566 344.626 377.84C344.648 377.697 344.708 377.561 344.8 377.449C344.896 377.329 345.022 377.237 345.165 377.181C345.307 377.125 345.462 377.108 345.614 377.13C345.648 377.133 345.682 377.138 345.716 377.146C345.754 377.156 345.791 377.171 345.827 377.189C345.871 377.208 345.912 377.232 345.95 377.261C345.976 377.28 346.001 377.301 346.023 377.324C346.061 377.368 346.092 377.417 346.115 377.47C346.127 377.496 346.14 377.515 346.15 377.543C346.178 377.641 346.186 377.744 346.173 377.846C345.952 379.554 345.698 381.257 345.391 382.953C344.124 390.034 342.112 396.962 339.386 403.619C338.089 406.818 336.625 409.947 335.001 412.994C333.558 415.847 331.701 418.47 329.489 420.779C324.697 425.54 317.99 426.96 311.488 427.506C308.913 427.705 306.33 427.771 303.749 427.702C299.84 427.629 295.942 427.264 292.087 426.608C290.567 426.346 289.06 426.021 287.56 425.663C287.278 425.692 286.998 425.718 286.716 425.749C288.88 434.147 292.623 442.618 300.022 447.619C302.29 449.108 304.759 450.267 307.353 451.063C313.037 452.652 318.889 453.562 324.787 453.773C332.359 454.602 340.001 454.558 347.563 453.643C349.877 453.28 352.157 452.725 354.38 451.986C354.902 451.809 355.418 451.62 355.929 451.419C359.173 450.311 362.09 448.414 364.418 445.898C366.745 443.382 368.41 440.326 369.262 437.006C372.698 424.733 374.374 412.035 374.24 399.291ZM302.951 386.291C302.55 386.277 302.169 386.107 301.891 385.818C301.612 385.53 301.456 385.144 301.456 384.742C301.456 384.341 301.612 383.955 301.891 383.666C302.169 383.377 302.55 383.208 302.951 383.194C303.352 383.208 303.732 383.377 304.011 383.666C304.29 383.955 304.445 384.341 304.445 384.742C304.445 385.144 304.29 385.53 304.011 385.818C303.732 386.107 303.352 386.277 302.951 386.291ZM308.414 359.579C308.013 359.564 307.632 359.395 307.354 359.106C307.075 358.817 306.919 358.431 306.919 358.03C306.919 357.628 307.075 357.243 307.354 356.954C307.632 356.665 308.013 356.495 308.414 356.481C308.815 356.495 309.195 356.665 309.474 356.954C309.753 357.243 309.908 357.628 309.908 358.03C309.908 358.431 309.753 358.817 309.474 359.106C309.195 359.395 308.815 359.564 308.414 359.579ZM338.155 374.148C337.887 374.143 337.624 374.069 337.394 373.931C337.164 373.793 336.973 373.597 336.843 373.363C336.712 373.128 336.645 372.863 336.649 372.595C336.652 372.327 336.727 372.064 336.864 371.833C336.893 371.774 336.926 371.717 336.962 371.661C337.013 371.591 337.07 371.525 337.134 371.465C337.264 371.352 337.407 371.256 337.56 371.178C337.746 371.1 337.946 371.059 338.147 371.056C338.353 371.057 338.557 371.099 338.746 371.18C338.796 371.202 338.844 371.228 338.891 371.258C339.003 371.317 339.105 371.394 339.194 371.485C339.322 371.606 339.422 371.756 339.484 371.921C339.507 371.976 339.538 372.025 339.558 372.082C339.598 372.221 339.621 372.364 339.627 372.508C339.631 372.639 339.621 372.771 339.595 372.9C339.595 372.937 339.595 372.972 339.578 373.009C339.547 373.132 339.503 373.251 339.445 373.363L339.403 373.434C339.282 373.656 339.102 373.84 338.883 373.966C338.664 374.092 338.414 374.155 338.161 374.148H338.155ZM342.417 357.759C342.177 357.759 341.942 357.702 341.729 357.593C341.516 357.483 341.332 357.325 341.193 357.13C341.054 356.935 340.963 356.711 340.928 356.474C340.893 356.237 340.915 355.995 340.992 355.769C341.071 355.451 341.254 355.168 341.512 354.966C341.77 354.764 342.089 354.654 342.417 354.654C342.745 354.654 343.063 354.764 343.321 354.966C343.579 355.168 343.762 355.451 343.841 355.769C343.918 355.995 343.94 356.237 343.905 356.474C343.871 356.711 343.78 356.935 343.64 357.13C343.501 357.325 343.317 357.483 343.105 357.593C342.892 357.702 342.656 357.759 342.417 357.759ZM351.523 416.036C351.122 416.022 350.742 415.853 350.463 415.564C350.184 415.275 350.028 414.889 350.028 414.488C350.028 414.086 350.184 413.7 350.463 413.411C350.742 413.123 351.122 412.953 351.523 412.939C351.924 412.954 352.304 413.124 352.582 413.413C352.86 413.703 353.016 414.089 353.015 414.49C353.014 414.892 352.857 415.277 352.578 415.566C352.299 415.854 351.918 416.023 351.517 416.036H351.523ZM355.939 395.362C355.884 395.376 355.828 395.388 355.771 395.395C355.47 395.408 355.173 395.323 354.925 395.153C354.676 394.984 354.488 394.739 354.39 394.454C354.247 394.062 354.247 393.633 354.39 393.241C354.488 392.957 354.676 392.711 354.925 392.542C355.173 392.372 355.47 392.286 355.771 392.298C355.828 392.307 355.884 392.318 355.939 392.333C356.303 392.386 356.636 392.569 356.876 392.848C357.117 393.126 357.249 393.482 357.248 393.85C357.247 394.218 357.114 394.574 356.873 394.851C356.631 395.129 356.298 395.31 355.933 395.362H355.939ZM360.021 365.65C359.62 365.636 359.24 365.466 358.961 365.178C358.682 364.889 358.526 364.503 358.526 364.101C358.526 363.7 358.682 363.314 358.961 363.025C359.24 362.736 359.62 362.567 360.021 362.553C360.422 362.568 360.802 362.738 361.08 363.027C361.358 363.317 361.513 363.703 361.513 364.104C361.512 364.506 361.355 364.891 361.076 365.18C360.797 365.468 360.416 365.637 360.015 365.65H360.021ZM363.664 426.964C363.253 426.964 362.859 426.801 362.568 426.51C362.278 426.22 362.114 425.826 362.114 425.415C362.114 425.004 362.278 424.609 362.568 424.319C362.859 424.028 363.253 423.865 363.664 423.865C364.075 423.866 364.469 424.03 364.759 424.321C365.049 424.612 365.212 425.006 365.211 425.417C365.21 425.828 365.046 426.222 364.755 426.512C364.464 426.803 364.069 426.965 363.658 426.964H363.664ZM365.484 399.039C365.083 399.024 364.703 398.855 364.424 398.566C364.145 398.277 363.989 397.891 363.989 397.49C363.989 397.089 364.145 396.703 364.424 396.414C364.703 396.125 365.083 395.956 365.484 395.941C365.885 395.956 366.265 396.126 366.543 396.416C366.821 396.705 366.976 397.091 366.976 397.493C366.975 397.894 366.818 398.28 366.539 398.568C366.26 398.857 365.879 399.025 365.478 399.039H365.484Z" fill="#F9D476"/>
<path d="M281.94 446.012C271.521 451.064 262.27 459.329 259.024 469.909C256.406 478.448 257.889 487.543 259.667 496.23C261.698 506.162 264.089 516.024 266.478 525.882C267.2 529.905 268.659 533.76 270.783 537.252C271.933 539.031 273.515 540.49 275.381 541.493C277.247 542.496 279.336 543.01 281.455 542.987C289.086 542.474 292.827 533.986 294.13 526.881C296.918 511.677 296.603 496.067 293.203 480.988C312.096 479.558 330.524 474.434 347.443 465.906C355.098 462.03 363.108 456.404 364.093 448.296C365.22 439.007 355.914 431.02 346.146 429.453C336.378 427.886 292.361 440.962 281.94 446.012Z" fill="#74A3D7"/>
<path d="M282.977 297.253C279.868 295.601 275.532 294.557 272.922 297.677C272.286 298.437 273.376 299.538 274.017 298.773C276.17 296.208 279.676 297.251 282.196 298.589C283.077 299.057 283.86 297.72 282.977 297.253Z" fill="black"/>
<path d="M302.364 299.619C301.436 299.961 301.837 301.458 302.775 301.111C304.199 300.553 305.766 300.469 307.242 300.873C308.718 301.276 310.024 302.145 310.967 303.35C311.568 304.133 312.912 303.35 312.304 302.567C311.187 301.069 309.616 299.972 307.824 299.44C306.032 298.909 304.117 298.971 302.364 299.619Z" fill="black"/>
<path d="M292.647 317.176C293.592 317.497 293.999 316.002 293.058 315.683C291.297 315.096 289.448 315.372 287.677 314.924C286.97 314.78 286.317 314.441 285.793 313.945C285.501 313.545 285.306 313.082 285.222 312.594C285.139 312.105 285.17 311.604 285.313 311.129C285.889 307.02 286.517 302.912 287.119 298.802C287.262 297.824 285.771 297.405 285.626 298.39L284.568 305.606L284.051 309.128C283.813 310.255 283.682 311.402 283.66 312.554C283.712 313.361 284.004 314.134 284.5 314.773C284.995 315.412 285.67 315.889 286.438 316.141C288.43 316.947 290.633 316.504 292.647 317.176Z" fill="black"/>
<path d="M302.992 318.037C297.941 320.702 292.067 321.352 286.556 319.854C286.369 319.831 286.18 319.875 286.024 319.98C285.868 320.084 285.754 320.241 285.704 320.422C285.654 320.603 285.67 320.797 285.751 320.967C285.832 321.136 285.971 321.271 286.143 321.347C291.719 322.845 297.648 322.296 302.855 319.801C303.722 324.439 298.746 327.646 294.654 328.401C293.676 328.581 294.091 330.074 295.067 329.894C300.256 328.937 306.121 324.415 304.119 318.5C304.086 318.388 304.028 318.285 303.949 318.198C303.871 318.111 303.774 318.043 303.666 317.999C303.558 317.954 303.441 317.935 303.325 317.941C303.208 317.948 303.094 317.98 302.992 318.037Z" fill="black"/>
<path d="M281.553 301.832C280.953 301.856 280.386 302.112 279.971 302.544C279.555 302.977 279.323 303.554 279.323 304.154C279.323 304.754 279.555 305.331 279.971 305.764C280.386 306.197 280.953 306.452 281.553 306.477C282.152 306.452 282.719 306.197 283.134 305.764C283.55 305.331 283.782 304.754 283.782 304.154C283.782 303.554 283.55 302.977 283.134 302.544C282.719 302.112 282.152 301.856 281.553 301.832Z" fill="black"/>
<path d="M307.277 303.88C306.677 303.905 306.111 304.16 305.695 304.593C305.28 305.026 305.048 305.603 305.048 306.203C305.048 306.803 305.28 307.379 305.695 307.812C306.111 308.245 306.677 308.501 307.277 308.525C307.876 308.501 308.443 308.245 308.859 307.812C309.274 307.379 309.506 306.803 309.506 306.203C309.506 305.603 309.274 305.026 308.859 304.593C308.443 304.16 307.876 303.905 307.277 303.88Z" fill="black"/>
<path d="M419.37 348.13V284.499C419.37 282.629 419.4 280.758 419.37 278.888C419.262 277.838 418.823 276.85 418.116 276.066C411.366 265.794 404.616 255.521 397.867 245.249L377.617 214.431L376.467 212.682L375.799 211.664V154.058H350.302V172.854L317.385 122.763L304.986 103.893C304.916 103.779 304.818 103.684 304.701 103.618C304.584 103.552 304.452 103.518 304.317 103.518C304.183 103.518 304.051 103.552 303.934 103.618C303.817 103.684 303.719 103.779 303.649 103.893C299.227 110.621 294.806 117.35 290.385 124.078C280.038 139.828 269.69 155.577 259.341 171.326L223.741 225.504L196.504 266.956C194.362 270.217 192.219 273.478 190.075 276.739C189.42 277.658 189.131 278.787 189.263 279.907V521.33C189.263 521.538 189.345 521.737 189.492 521.884C189.639 522.031 189.838 522.113 190.045 522.113H409.294C412.26 522.265 415.232 522.265 418.198 522.113C418.329 522.106 418.459 522.106 418.59 522.113C418.797 522.113 418.996 522.031 419.143 521.884C419.29 521.737 419.372 521.538 419.372 521.33V348.13H419.37ZM417.823 281.265V515.04C417.726 516.877 417.726 518.718 417.823 520.555H193.514C192.619 520.478 191.72 520.46 190.822 520.501V284.351C190.686 282.397 190.678 280.436 190.798 278.481C190.826 278.422 190.86 278.367 190.9 278.316C191.129 278.019 191.319 277.678 191.524 277.365C192.38 276.061 193.236 274.756 194.092 273.452L217.405 237.97L252.314 184.84C263.356 168.039 274.397 151.236 285.437 134.431L304.121 105.997L304.316 105.683L333.841 150.614L357.998 187.38L375.13 213.455C380.195 221.164 385.26 228.873 390.326 236.582C398.078 248.377 405.829 260.173 413.579 271.969L416.819 276.9C417.073 277.344 417.355 277.773 417.662 278.183C417.743 278.281 417.809 278.389 417.858 278.506C417.892 279.426 417.881 280.346 417.823 281.265Z" fill="#5B5B5B"/>
<path d="M202.619 259.687V518.296C202.647 518.481 202.74 518.65 202.882 518.772C203.024 518.894 203.205 518.961 203.393 518.961C203.58 518.961 203.761 518.894 203.903 518.772C204.045 518.65 204.138 518.481 204.166 518.296V259.687C204.138 259.502 204.045 259.333 203.903 259.211C203.761 259.088 203.58 259.021 203.393 259.021C203.205 259.021 203.024 259.088 202.882 259.211C202.74 259.333 202.647 259.502 202.619 259.687Z" fill="#5B5B5B"/>
<path d="M219.01 242.689V514.046C219.038 514.231 219.131 514.4 219.273 514.522C219.415 514.644 219.596 514.711 219.784 514.711C219.971 514.711 220.152 514.644 220.294 514.522C220.436 514.4 220.529 514.231 220.557 514.046V242.689C220.529 242.504 220.436 242.335 220.294 242.213C220.152 242.091 219.971 242.024 219.784 242.024C219.596 242.024 219.415 242.091 219.273 242.213C219.131 242.335 219.038 242.504 219.01 242.689Z" fill="#5B5B5B"/>
<path d="M237.829 225.083V287.004C237.857 287.189 237.95 287.358 238.092 287.48C238.234 287.602 238.415 287.669 238.603 287.669C238.79 287.669 238.971 287.602 239.113 287.48C239.255 287.358 239.349 287.189 239.377 287.004V225.083C239.349 224.898 239.255 224.729 239.113 224.607C238.971 224.485 238.79 224.418 238.603 224.418C238.415 224.418 238.234 224.485 238.092 224.607C237.95 224.729 237.857 224.898 237.829 225.083Z" fill="#5B5B5B"/>
<path d="M237.22 309.466V362.57C237.247 362.757 237.34 362.928 237.482 363.051C237.625 363.175 237.807 363.242 237.995 363.242C238.184 363.242 238.366 363.175 238.508 363.051C238.65 362.928 238.743 362.757 238.77 362.57V359.856C238.743 359.67 238.65 359.499 238.508 359.376C238.366 359.252 238.184 359.184 237.995 359.184C237.807 359.184 237.625 359.252 237.482 359.376C237.34 359.499 237.247 359.67 237.22 359.856V362.57C237.247 362.757 237.34 362.928 237.482 363.051C237.625 363.175 237.807 363.242 237.995 363.242C238.184 363.242 238.366 363.175 238.508 363.051C238.65 362.928 238.743 362.757 238.77 362.57V309.466C238.743 309.28 238.65 309.109 238.508 308.986C238.366 308.862 238.184 308.794 237.995 308.794C237.807 308.794 237.625 308.862 237.482 308.986C237.34 309.109 237.247 309.28 237.22 309.466Z" fill="#5B5B5B"/>
<path d="M235.401 410.845V513.429C235.429 513.615 235.522 513.784 235.664 513.906C235.806 514.028 235.987 514.095 236.175 514.095C236.362 514.095 236.543 514.028 236.685 513.906C236.827 513.784 236.92 513.615 236.948 513.429V410.845C236.92 410.66 236.827 410.491 236.685 410.369C236.543 410.247 236.362 410.18 236.175 410.18C235.987 410.18 235.806 410.247 235.664 410.369C235.522 410.491 235.429 410.66 235.401 410.845Z" fill="#5B5B5B"/>
<path d="M256.04 189.266V236.011C256.066 236.198 256.159 236.368 256.302 236.492C256.444 236.615 256.626 236.683 256.814 236.683C257.003 236.683 257.185 236.615 257.327 236.492C257.47 236.368 257.563 236.198 257.589 236.011V189.266C257.563 189.08 257.47 188.909 257.327 188.786C257.185 188.662 257.003 188.594 256.814 188.594C256.626 188.594 256.444 188.662 256.302 188.786C256.159 188.909 256.066 189.08 256.04 189.266Z" fill="#5B5B5B"/>
<path d="M256.04 258.476V344.072C256.066 344.259 256.159 344.429 256.302 344.553C256.444 344.676 256.626 344.744 256.814 344.744C257.003 344.744 257.185 344.676 257.327 344.553C257.47 344.429 257.563 344.259 257.589 344.072V258.476C257.563 258.289 257.47 258.118 257.327 257.995C257.185 257.871 257.003 257.803 256.814 257.803C256.626 257.803 256.444 257.871 256.302 257.995C256.159 258.118 256.066 258.289 256.04 258.476Z" fill="#5B5B5B"/>
<path d="M276.673 160.128V251.794C276.701 251.979 276.794 252.148 276.936 252.27C277.078 252.392 277.259 252.459 277.446 252.459C277.634 252.459 277.815 252.392 277.957 252.27C278.099 252.148 278.192 251.979 278.22 251.794V160.128C278.192 159.943 278.099 159.774 277.957 159.651C277.815 159.529 277.634 159.462 277.446 159.462C277.259 159.462 277.078 159.529 276.936 159.651C276.794 159.774 276.701 159.943 276.673 160.128Z" fill="#5B5B5B"/>
<path d="M300.348 126.133V175.306C300.376 175.491 300.47 175.66 300.612 175.782C300.754 175.904 300.935 175.971 301.122 175.971C301.309 175.971 301.491 175.904 301.633 175.782C301.775 175.66 301.868 175.491 301.896 175.306V126.133C301.868 125.947 301.775 125.778 301.633 125.656C301.491 125.534 301.309 125.467 301.122 125.467C300.935 125.467 300.754 125.534 300.612 125.656C300.47 125.778 300.376 125.947 300.348 126.133Z" fill="#5B5B5B"/>
<path d="M320.995 142.524V178.947C321.022 179.133 321.115 179.304 321.257 179.428C321.399 179.551 321.581 179.619 321.77 179.619C321.958 179.619 322.141 179.551 322.283 179.428C322.425 179.304 322.518 179.133 322.545 178.947V142.524C322.518 142.337 322.425 142.166 322.283 142.043C322.141 141.919 321.958 141.851 321.77 141.851C321.581 141.851 321.399 141.919 321.257 142.043C321.115 142.166 321.022 142.337 320.995 142.524Z" fill="#5B5B5B"/>
<path d="M341.029 183.197V223.256C341.057 223.441 341.151 223.61 341.293 223.732C341.435 223.854 341.616 223.921 341.803 223.921C341.991 223.921 342.172 223.854 342.314 223.732C342.456 223.61 342.549 223.441 342.577 223.256V183.197C342.549 183.012 342.456 182.843 342.314 182.721C342.172 182.598 341.991 182.531 341.803 182.531C341.616 182.531 341.435 182.598 341.293 182.721C341.151 182.843 341.057 183.012 341.029 183.197Z" fill="#5B5B5B"/>
<path d="M342.243 282.754V331.32C342.269 331.507 342.362 331.678 342.504 331.801C342.647 331.925 342.829 331.993 343.017 331.993C343.206 331.993 343.388 331.925 343.53 331.801C343.673 331.678 343.766 331.507 343.792 331.32V282.754C343.766 282.567 343.673 282.397 343.53 282.273C343.388 282.15 343.206 282.082 343.017 282.082C342.829 282.082 342.647 282.15 342.504 282.273C342.362 282.397 342.269 282.567 342.243 282.754Z" fill="#5B5B5B"/>
<path d="M371.375 279.719V358.031C371.402 358.217 371.495 358.388 371.637 358.512C371.78 358.635 371.962 358.703 372.15 358.703C372.339 358.703 372.521 358.635 372.663 358.512C372.805 358.388 372.898 358.217 372.925 358.031V279.719C372.898 279.533 372.805 279.362 372.663 279.238C372.521 279.115 372.339 279.047 372.15 279.047C371.962 279.047 371.78 279.115 371.637 279.238C371.495 279.362 371.402 279.533 371.375 279.719Z" fill="#5B5B5B"/>
<path d="M395.051 287.611V339.818C395.078 340.005 395.171 340.176 395.313 340.299C395.455 340.423 395.637 340.491 395.826 340.491C396.014 340.491 396.196 340.423 396.339 340.299C396.481 340.176 396.574 340.005 396.601 339.818V287.611C396.574 287.424 396.481 287.253 396.339 287.13C396.196 287.006 396.014 286.938 395.826 286.938C395.637 286.938 395.455 287.006 395.313 287.13C395.171 287.253 395.078 287.424 395.051 287.611Z" fill="#5B5B5B"/>
<path d="M395.051 354.388V514.051C395.078 514.238 395.171 514.409 395.313 514.532C395.455 514.656 395.637 514.724 395.826 514.724C396.014 514.724 396.196 514.656 396.339 514.532C396.481 514.409 396.574 514.238 396.601 514.051V354.388C396.574 354.201 396.481 354.03 396.339 353.907C396.196 353.783 396.014 353.715 395.826 353.715C395.637 353.715 395.455 353.783 395.313 353.907C395.171 354.03 395.078 354.201 395.051 354.388Z" fill="#5B5B5B"/>
<path d="M366.525 459.41V520.117C366.551 520.304 366.644 520.475 366.787 520.598C366.929 520.722 367.111 520.79 367.3 520.79C367.488 520.79 367.67 520.722 367.813 520.598C367.955 520.475 368.048 520.304 368.074 520.117V459.41C368.048 459.223 367.955 459.053 367.813 458.929C367.67 458.806 367.488 458.738 367.3 458.738C367.111 458.738 366.929 458.806 366.787 458.929C366.644 459.053 366.551 459.223 366.525 459.41Z" fill="#5B5B5B"/>
<path d="M338.601 489.167V518.908C338.629 519.093 338.723 519.262 338.865 519.384C339.007 519.506 339.188 519.573 339.375 519.573C339.562 519.573 339.743 519.506 339.885 519.384C340.027 519.262 340.121 519.093 340.149 518.908V489.167C340.121 488.981 340.027 488.812 339.885 488.69C339.743 488.568 339.562 488.501 339.375 488.501C339.188 488.501 339.007 488.568 338.865 488.69C338.723 488.812 338.629 488.981 338.601 489.167Z" fill="#5B5B5B"/>
<path d="M310.676 494.013V519.509C310.702 519.695 310.795 519.866 310.938 519.989C311.08 520.113 311.262 520.181 311.45 520.181C311.639 520.181 311.821 520.113 311.963 519.989C312.106 519.866 312.199 519.695 312.225 519.509V494.013C312.199 493.827 312.106 493.656 311.963 493.533C311.821 493.409 311.639 493.341 311.45 493.341C311.262 493.341 311.08 493.409 310.938 493.533C310.795 493.656 310.702 493.827 310.676 494.013Z" fill="#5B5B5B"/>
</svg>
