<svg width="178" height="35" viewBox="0 0 178 35" fill="none" xmlns="http://www.w3.org/2000/svg">
<path d="M168.288 29.333C168.288 26.7652 170.405 24.6505 172.974 24.6505C175.544 24.6505 177.66 26.7652 177.66 29.333C177.66 31.9009 175.544 34.0156 172.974 34.0156C170.405 34.0911 168.288 31.9764 168.288 29.333Z" fill="#C1C1C1"/>
<path d="M18.3422 16.9471C18.3422 14.0016 17.7375 11.7359 16.6039 10.3009C15.4702 8.86595 13.7318 8.11073 11.3889 8.11073H8.89497V26.3121H10.7844C13.3541 26.3121 15.319 25.5569 16.5282 23.9709C17.7375 22.4604 18.3422 20.1191 18.3422 16.9471ZM27.2602 16.645C27.2602 22.0828 25.8244 26.2366 22.8769 29.1821C19.9293 32.1275 15.8481 33.5625 10.5576 33.5625H0.278992V1.08691H11.2378C16.3015 1.08691 20.2316 2.44639 23.028 5.08975C25.8999 7.73311 27.2602 11.5849 27.2602 16.645Z" fill="#C1C1C1"/>
<path d="M55.6775 33.5625H63.8399V0.935913H55.6775V33.5625Z" fill="#C1C1C1"/>
<path d="M75.3279 21.4031C75.3279 23.5178 75.6302 25.1038 76.1593 26.1611C76.6883 27.2185 77.5952 27.8227 78.88 27.8227C80.1648 27.8227 81.0718 27.294 81.6008 26.1611C82.1299 25.1038 82.3566 23.5178 82.3566 21.4031C82.3566 19.3639 82.1299 17.7779 81.6008 16.7205C81.0718 15.6632 80.1648 15.1346 78.88 15.1346C77.5952 15.1346 76.7639 15.6632 76.1593 16.7205C75.6302 17.7024 75.3279 19.2884 75.3279 21.4031ZM90.6702 21.4031C90.6702 25.3304 89.612 28.4269 87.5714 30.6926C85.4552 32.8828 82.5834 34.0157 78.8045 34.0157C75.1768 34.0157 72.3804 32.8828 70.2642 30.6171C68.148 28.3513 67.09 25.2548 67.09 21.4031C67.09 17.4758 68.1479 14.3793 70.1885 12.1891C72.3047 9.99886 75.1767 8.94153 78.9556 8.94153C81.2985 8.94153 83.3391 9.4702 85.153 10.452C86.9668 11.4338 88.3272 12.9443 89.3097 14.8324C90.2167 16.645 90.6702 18.8352 90.6702 21.4031Z" fill="#C1C1C1"/>
<path d="M93.9199 33.5626H102.082V21.101V9.31921H93.9199V33.5626Z" fill="#C1C1C1"/>
<path d="M93.9199 6.37365H102.082V0.935913H93.9199V6.37365Z" fill="#C1C1C1"/>
<path d="M118.634 27.3695C119.767 27.3695 121.052 27.0674 122.564 26.5387V32.6562C121.43 33.1094 120.448 33.487 119.39 33.7135C118.407 33.9401 117.198 34.0157 115.913 34.0157C113.192 34.0157 111.227 33.3359 109.942 31.9765C108.733 30.617 108.128 28.5023 108.128 25.6324V15.6632H105.257V9.31912H108.128V3.1261L116.366 1.69116V9.31912H121.581V15.5876H116.366V25.0282C116.442 26.6142 117.198 27.3695 118.634 27.3695Z" fill="#C1C1C1"/>
<path d="M137.528 27.3695C138.662 27.3695 139.947 27.0674 141.458 26.5387V32.6562C140.325 33.1094 139.342 33.487 138.284 33.7135C137.302 33.9401 136.092 34.0157 134.808 34.0157C132.087 34.0157 130.122 33.3359 128.912 31.9765C127.703 30.617 127.099 28.5023 127.099 25.6324V15.6632H124.227V9.31912H127.099V3.05059L135.337 1.69116V9.31912H140.551V15.5876H135.337V25.0282C135.337 26.6142 136.092 27.3695 137.528 27.3695Z" fill="#C1C1C1"/>
<path d="M151.813 18.4575C151.888 17.0981 152.266 16.1918 152.946 15.5121C153.626 14.9079 154.382 14.6058 155.365 14.6058C156.423 14.6058 157.254 14.9835 157.859 15.6632C158.463 16.3429 158.841 17.3247 158.841 18.4575H151.813ZM163.376 11.7359C161.411 9.84778 158.69 8.86597 155.138 8.86597C151.359 8.86597 148.487 9.9233 146.522 12.1135C144.481 14.3037 143.499 17.4758 143.499 21.5541C143.499 25.4814 144.557 28.5779 146.749 30.6925C148.941 32.8072 151.964 33.9401 155.969 33.9401C157.859 33.9401 159.521 33.789 160.882 33.5625C162.242 33.3359 163.527 32.8827 164.812 32.203L163.527 26.7653C162.62 27.1429 161.713 27.445 160.882 27.596C159.673 27.8981 158.388 28.0492 156.952 28.0492C155.365 28.0492 154.156 27.6716 153.249 26.9163C152.342 26.1611 151.888 25.1037 151.813 23.7443H166.399V20.0436C166.248 16.4184 165.265 13.624 163.376 11.7359Z" fill="#C1C1C1"/>
<path d="M38.1436 18.4575C38.2192 17.0981 38.5971 16.1918 39.2773 15.5121C39.9575 14.9079 40.7132 14.6058 41.6957 14.6058C42.7538 14.6058 43.5852 14.9835 44.1898 15.6632C44.7944 16.3429 45.0968 17.3247 45.1724 18.4575H38.1436ZM49.6314 11.7359C47.6664 9.84778 44.9456 8.86597 41.3935 8.86597C37.6146 8.86597 34.7425 9.9233 32.7775 12.1135C30.8125 14.3037 29.7544 17.4758 29.7544 21.5541C29.7544 25.4814 30.8125 28.5779 33.0043 30.6925C35.196 32.8072 38.2192 33.9401 42.1493 33.9401C44.0387 33.9401 45.7014 33.789 47.0618 33.5625C48.4222 33.3359 49.707 32.8827 50.9918 32.203L49.707 26.7653C48.8001 27.1429 47.8932 27.445 47.0618 27.596C45.8526 27.8981 44.5676 28.0492 43.1316 28.0492C41.5445 28.0492 40.3353 27.6716 39.4284 26.9163C38.5215 26.1611 38.0681 25.1037 37.9925 23.7443H52.5788V20.0436C52.5788 16.4184 51.5964 13.624 49.6314 11.7359Z" fill="#C1C1C1"/>
</svg>
