<svg width="157" height="43" viewBox="0 0 157 43" fill="none" xmlns="http://www.w3.org/2000/svg">
<path d="M0 38.1089C0 37.76 0.282723 37.4773 0.63168 37.4773H1.81746C2.72634 37.4773 4.54441 37.2749 4.54441 34.8457V12.9813C4.54441 11.6652 4.45334 8.52733 2.18113 8.52733H0.961932C0.532328 8.52733 0.228141 8.10784 0.361529 7.6994L2.31207 1.72236C2.39701 1.46233 2.63926 1.28662 2.91247 1.28662H141.646C141.995 1.28662 142.278 1.56935 142.278 1.9183V7.89534C142.278 8.2443 141.995 8.52702 141.646 8.52702H13.6335C12.4521 8.52702 10.9072 8.8306 10.9072 11.4622V18.3457C11.1798 19.1552 12.2705 19.4588 12.8157 19.4588C13.3272 19.4588 15.0364 19.3701 15.248 16.6064C15.2732 16.2761 15.5402 16.0173 15.8714 16.0173H17.3651C17.714 16.0173 17.9967 16.3001 17.9967 16.649V26.6213C17.9967 26.9702 17.714 27.2529 17.3651 27.2529H15.8193C15.5249 27.2529 15.2753 27.0496 15.2054 26.7632C14.9634 25.7707 14.0635 24.5257 12.9068 24.4184C11.8161 24.3169 10.9072 24.7219 10.9072 26.3416V34.8445C10.9072 35.7555 11.9072 37.476 14.2701 37.476H15.2744C15.6233 37.476 15.9061 37.7588 15.9061 38.1077V42.0324C15.9061 42.3814 15.6233 42.6641 15.2744 42.6641H0.63168C0.282723 42.6641 0 42.3814 0 42.0324V38.1089Z" fill="#C1C1C1"/>
<path d="M92.7784 16.8281V27.9635H86.4163V22.5868C86.4163 22.5868 86.1446 20.663 85.2348 20.5621C85.1685 20.5557 85.0959 20.559 85.0167 20.5747C83.9996 20.7611 81.9178 22.6595 81.3269 23.5978V35.7568C81.3269 37.3583 82.5274 37.9112 83.2192 38.0977C83.4973 38.1703 83.6899 38.4199 83.6899 38.7072V42.0337C83.6899 42.3826 83.4072 42.6654 83.0582 42.6654H73.2338C72.8863 42.6654 72.6021 42.3811 72.6021 42.0337V38.6714C72.6021 38.3561 72.8351 38.0937 73.147 38.0471C74.054 37.9118 74.8884 37.378 74.9651 35.8582V18.7523C74.9651 18.4996 74.7851 18.0164 74.3965 17.5993C74.0936 17.2718 73.6637 16.983 73.0964 16.8744C72.806 16.8189 72.6024 16.5546 72.6024 16.259V14.4247C72.6024 14.0757 72.8851 13.793 73.2341 13.793H80.1743C80.4493 13.793 80.6808 13.9751 80.7759 14.2336C81.0126 14.8776 81.6992 15.4473 82.1457 15.6126C82.7838 15.1073 86.1449 12.9813 88.7795 12.9813C91.417 12.9804 92.7784 14.4998 92.7784 16.8281Z" fill="#C1C1C1"/>
<path d="M156.782 14.424V16.2657C156.782 16.5625 156.573 16.8185 156.28 16.8817C155.288 17.0933 154.419 17.9114 154.419 18.954V35.7564C154.419 36.9664 155.351 37.8823 156.302 38.1224C156.583 38.1951 156.782 38.4447 156.782 38.7354V42.0333C156.782 42.3822 156.499 42.665 156.15 42.665H146.326C145.977 42.665 145.694 42.3822 145.694 42.0333V38.5676C145.694 38.2947 145.868 38.0543 146.127 37.9688C146.331 37.9016 146.585 37.8007 146.841 37.6551C147.422 37.3267 148.013 36.7707 148.057 35.8575V18.7519C148.057 18.4992 147.877 18.016 147.488 17.5989C147.185 17.2714 146.755 16.9826 146.188 16.874C145.898 16.8185 145.694 16.5542 145.694 16.2586V14.4243C145.694 14.0753 145.977 13.7926 146.326 13.7926H156.15C156.499 13.7923 156.782 14.0753 156.782 14.424Z" fill="#C1C1C1"/>
<path d="M68.2398 16.828V27.3317C68.2398 27.6806 67.9571 27.9634 67.6081 27.9634H62.5096C62.1606 27.9634 61.8779 27.6806 61.8779 27.3317V22.587C61.8779 22.587 61.6062 20.6632 60.6964 20.5623C60.6333 20.5558 60.5606 20.5592 60.4815 20.5749C59.5214 20.7472 57.619 22.4383 56.9082 23.4217C56.83 23.53 56.7889 23.6591 56.7889 23.7924V35.7566C56.7889 36.4674 57.1078 37.074 57.5629 37.5036C57.8855 37.8081 58.2746 38.0239 58.6686 38.1233C58.9513 38.1951 59.1519 38.4437 59.1519 38.7354V42.0333C59.1519 42.3822 58.8692 42.665 58.5202 42.665H48.6958C48.3468 42.665 48.0641 42.3822 48.0641 42.0333V38.671C48.0641 38.3557 48.2971 38.0932 48.6093 38.0466C48.9726 37.9927 49.3237 37.8746 49.6215 37.6551C50.0637 37.3266 50.3795 36.7707 50.427 35.8575V18.7519C50.427 18.4992 50.2437 18.0159 49.8585 17.5989C49.5571 17.2757 49.1364 16.9905 48.5814 16.8783C48.2833 16.8182 48.0644 16.5628 48.0644 16.2586V14.4243C48.0644 14.0753 48.3471 13.7926 48.6961 13.7926H55.6335C55.9086 13.7926 56.1398 13.9744 56.2348 14.2326C56.4722 14.8769 57.1609 15.4466 57.6073 15.6119C58.2424 15.1065 61.6065 12.9806 64.2412 12.9806C66.8749 12.9803 68.2398 14.4997 68.2398 16.828Z" fill="#C1C1C1"/>
<path d="M141.97 16.828V27.9634H135.608V22.5867C135.608 22.5867 135.333 20.6629 134.426 20.562C134.353 20.5525 134.268 20.5589 134.176 20.581C134.173 20.5779 134.17 20.581 134.167 20.581C133.131 20.8116 131.1 22.6723 130.515 23.5977V35.7566C130.515 36.5938 130.809 37.1436 131.188 37.5036C131.567 37.8636 132.031 38.0344 132.379 38.1132C132.67 38.1828 132.878 38.4321 132.878 38.7323V42.0333C132.878 42.3807 132.597 42.665 132.246 42.665H122.422C122.075 42.665 121.79 42.3807 121.79 42.0333V38.6688C121.79 38.356 122.024 38.0939 122.337 38.0466C123.243 37.9108 124.077 37.3769 124.153 35.8575V18.7519C124.153 18.0822 123.863 17.6461 123.49 17.3619C123.111 17.0776 122.65 16.9448 122.302 16.8817C122.006 16.828 121.791 16.5628 121.791 16.2595V14.4243C121.791 14.0738 122.075 13.7926 122.422 13.7926H129.343C129.637 13.7926 129.89 13.9947 129.96 14.2789C130.089 14.8192 130.437 15.6119 131.334 15.6119C131.972 15.1065 135.333 12.9806 137.97 12.9806C140.605 12.9803 141.97 14.4997 141.97 16.828Z" fill="#C1C1C1"/>
<path d="M37.5328 32.6182C37.1839 32.6182 36.9011 32.9009 36.9011 33.2499V33.6326V34.2885C36.9011 35.4016 36.7196 36.0112 33.72 36.0112C30.7205 36.0112 29.8119 33.7844 29.8119 32.1644V30.0848V29.1762C29.8119 28.6702 30.1756 28.8702 30.8119 28.8702H42.6316C42.9806 28.8702 43.2633 28.5874 43.2633 28.2385V20.5725C43.2633 17.2322 42.627 16.2197 41.3548 14.803C40.0822 13.3857 35.6289 12.981 33.6293 12.981C28.5397 12.981 26.9034 13.7908 25.4496 15.1066C23.9952 16.4227 23.45 19.1555 23.45 21.1802V32.6185C23.45 35.6552 24.1004 37.8253 25.7235 39.8378C27.9843 42.6408 32.7207 42.6402 33.8114 42.6402C34.9018 42.6402 38.5377 42.7416 41.1732 40.6157C43.2915 38.9074 43.355 34.7791 43.2986 33.2248C43.2863 32.8859 43.0063 32.6188 42.6672 32.6188L37.5328 32.6182ZM29.8116 20.7715C29.8116 19.7629 30.266 18.2497 33.4471 18.2497C36.6282 18.2497 36.9008 19.889 36.9008 20.7715V23.0412C36.9008 23.4193 36.4464 23.7977 35.8104 23.7977H30.902C30.3565 23.7977 29.8116 23.4825 29.8116 23.1041V20.7715Z" fill="#C1C1C1"/>
<path d="M116.156 35.7559V20.5723C116.156 18.2443 116.066 15.8148 113.884 14.0939C111.703 12.3734 108.158 12.4743 106.795 12.4743C105.432 12.4743 100.888 12.4743 98.7965 15.1058C96.7062 17.7377 97.0698 20.2681 97.0698 21.2804H103.567C103.567 21.2804 103.432 20.1991 104.25 19.2881C105.073 18.3713 107.25 17.3649 108.931 18.9845C109.55 19.5816 109.794 20.3512 109.794 21.2117V23.2036C109.794 23.6087 109.43 24.2158 108.976 24.2158C108.976 24.2158 100.705 24.4185 99.251 25.6331C97.7966 26.8477 96.5243 27.6573 96.5243 32.1115C96.5243 36.5655 97.524 39.8303 98.7055 40.7416C99.887 41.6526 100.432 42.6649 105.795 42.6649H118.519V38.1855C117.429 38.1855 116.156 37.1732 116.156 35.7559ZM109.794 35.7523C109.794 35.8906 109.43 36.0847 109.158 36.0847H106.022C103.795 36.0847 103.159 34.921 103.159 34.2007V32.0674C103.159 29.9893 106.704 30.0451 108.112 30.0451C109.521 30.0451 109.794 30.7654 109.794 31.2364V35.7523H109.794Z" fill="#C1C1C1"/>
<path d="M151.239 8.4767C154.421 8.4767 157 6.65403 157 4.40604C157 2.15775 154.421 0.335083 151.239 0.335083C148.058 0.335083 145.479 2.15775 145.479 4.40604C145.479 6.65403 148.058 8.4767 151.239 8.4767Z" fill="#C1C1C1"/>
<path d="M15.9054 38.1098V42.0333C15.9054 42.3807 15.6242 42.665 15.2738 42.665H12.4306V37.0452C12.9138 37.3073 13.5234 37.4778 14.2692 37.4778H15.2738C15.6242 37.4781 15.9054 37.759 15.9054 38.1098Z" fill="#C1C1C1"/>
<path d="M14.5213 18.7206V25.4087C14.8576 25.8309 15.0984 26.3268 15.206 26.7711C15.2747 27.0544 15.5261 27.2528 15.8174 27.2528H17.3641C17.7131 27.2528 17.9958 26.9701 17.9958 26.6211V16.6489C17.9958 16.2999 17.7131 16.0172 17.3641 16.0172H15.8778C15.5513 16.0172 15.2731 16.2662 15.2489 16.5919C15.171 17.635 14.8806 18.298 14.5213 18.7206Z" fill="#C1C1C1"/>
<path d="M138.803 1.28662V8.52733H141.646C141.995 8.52733 142.278 8.24461 142.278 7.89565V1.91861C142.278 1.56965 141.995 1.28693 141.646 1.28693H138.803V1.28662Z" fill="#C1C1C1"/>
<path d="M88.7804 12.981C88.2119 12.981 87.6093 13.0837 87.0077 13.2441C88.5253 13.773 89.3048 15.0683 89.3048 16.8275V27.9622H92.7796V16.8275C92.7793 14.4991 91.4163 12.981 88.7804 12.981Z" fill="#C1C1C1"/>
<path d="M154.419 18.954V35.7564C154.419 36.9664 155.351 37.8824 156.302 38.1225C156.583 38.1951 156.782 38.4447 156.782 38.7354V42.0333C156.782 42.3808 156.501 42.665 156.15 42.665H153.307V38.1856C152.217 38.1856 150.944 37.1746 150.944 35.7564V18.954C150.944 17.9115 151.813 17.0933 152.805 16.8818C153.099 16.8186 153.307 16.5629 153.307 16.2657V13.7924H156.15C156.501 13.7924 156.782 14.0735 156.782 14.424V16.2657C156.782 16.5625 156.573 16.8186 156.28 16.8818C155.288 17.0933 154.419 17.9115 154.419 18.954Z" fill="#C1C1C1"/>
<path d="M56.9079 23.4215C56.8297 23.5297 56.7886 23.6588 56.7886 23.7922V35.7564C56.7886 36.4672 57.1075 37.0737 57.5626 37.5033C57.8852 37.8078 58.2743 38.0237 58.6683 38.123C58.951 38.1948 59.1516 38.4435 59.1516 38.7351V42.033C59.1516 42.382 58.8689 42.6647 58.5199 42.6647H55.6767V38.1853C54.5869 38.1853 53.3138 37.1743 53.3138 35.7561V26.1196C53.3138 22.5 58.9575 20.6378 60.4941 20.5583C60.4876 20.5614 60.4846 20.5679 60.4815 20.5743C59.5214 20.7469 57.6187 22.4381 56.9079 23.4215Z" fill="#C1C1C1"/>
<path d="M81.3272 23.5973V35.7563C81.3272 37.3578 82.5277 37.9107 83.2195 38.0971C83.4976 38.1698 83.6902 38.4194 83.6902 38.7068V42.0332C83.6902 42.3821 83.4074 42.6649 83.0585 42.6649H80.2123V38.7353C80.2123 38.4436 80.0117 38.1947 79.729 38.1232C78.7787 37.8825 77.8493 36.9684 77.8493 35.7566V26.1185C77.8493 22.5014 83.4912 20.6376 85.0296 20.5588C85.0231 20.5619 85.0201 20.5683 85.017 20.5748C83.9996 20.7606 81.9181 22.6593 81.3272 23.5973Z" fill="#C1C1C1"/>
<path d="M134.205 20.5587C134.198 20.5618 134.195 20.5682 134.192 20.5747C134.186 20.5747 134.183 20.5777 134.176 20.5811C134.173 20.578 134.17 20.5811 134.167 20.5811C133.131 20.8117 131.1 22.6724 130.515 23.5978V35.7568C130.515 36.5939 130.809 37.1437 131.188 37.5037C131.567 37.8637 132.031 38.0345 132.379 38.1133C132.67 38.1829 132.878 38.4322 132.878 38.7324V42.0334C132.878 42.3808 132.597 42.6651 132.246 42.6651H129.388V38.7355C129.388 38.4448 129.186 38.1952 128.904 38.1225C127.953 37.8824 127.025 36.9695 127.025 35.7564V26.1184C127.025 22.5016 132.667 20.6378 134.205 20.5587Z" fill="#C1C1C1"/>
<path d="M64.2406 12.981C63.6721 12.981 63.0695 13.0837 62.4679 13.2441C63.9854 13.773 64.7649 15.0683 64.7649 16.8275V27.9622H67.6081C67.9571 27.9622 68.2398 27.6795 68.2398 27.3305V16.8278C68.2398 14.4991 66.8761 12.981 64.2406 12.981Z" fill="#C1C1C1"/>
<path d="M137.97 12.981C137.401 12.981 136.798 13.0837 136.197 13.2441C137.714 13.773 138.494 15.0683 138.494 16.8275V27.9622H141.969V16.8275C141.969 14.4991 140.605 12.981 137.97 12.981Z" fill="#C1C1C1"/>
<path d="M37.8796 14.7861C39.1522 16.2028 39.7881 17.2153 39.7881 20.5555V28.8535H42.6313C42.9803 28.8535 43.263 28.5708 43.263 28.2219V20.5559C43.263 17.2156 42.6267 16.2031 41.3545 14.7864C40.0819 13.3691 35.6286 12.9644 33.629 12.9644C32.8759 12.9644 32.1997 12.9828 31.5873 13.0171C33.7933 13.1643 36.8594 13.6491 37.8796 14.7861Z" fill="#C1C1C1"/>
<path d="M42.6666 32.6179H39.7881C39.7881 32.6179 40.3337 38.4895 37.6975 40.6151C35.9607 42.0158 33.7936 42.4476 32.2028 42.5807C32.9304 42.6395 33.5097 42.6399 33.8105 42.6399C34.9009 42.6399 38.5367 42.741 41.1723 40.6154C43.2906 38.9071 43.3541 34.7788 43.2976 33.2242C43.286 32.885 43.006 32.6179 42.6666 32.6179Z" fill="#C1C1C1"/>
<path d="M116.156 35.7559V20.5723C116.156 18.2443 116.066 15.8148 113.884 14.0939C111.703 12.3734 108.158 12.4743 106.795 12.4743C106.459 12.4743 105.929 12.4743 105.291 12.5138C106.906 12.6119 108.958 12.9489 110.41 14.0936C112.591 15.8145 112.682 18.244 112.682 20.572V35.7556C112.682 37.1726 113.954 38.1848 115.045 38.1848V42.6643H118.52V38.1848C117.429 38.1855 116.156 37.1732 116.156 35.7559Z" fill="#C1C1C1"/>
<path d="M151.239 0.335083C150.634 0.335083 150.05 0.401623 149.502 0.524586C151.834 1.04526 153.525 2.58583 153.525 4.40604C153.525 6.22596 151.834 7.76652 149.502 8.2875C150.05 8.41016 150.634 8.4767 151.239 8.4767C154.421 8.4767 157 6.65403 157 4.40604C157 2.15775 154.421 0.335083 151.239 0.335083Z" fill="#C1C1C1"/>
</svg>
