<svg width="195" height="42" viewBox="0 0 195 42" fill="none" xmlns="http://www.w3.org/2000/svg">
<path d="M194.817 19.0163V15.583H190.567V10.2577L190.43 10.3035L186.438 11.5242L186.362 11.5547V15.583H180.055V13.34C180.055 12.2871 180.284 11.4937 180.756 10.9596C181.213 10.4256 181.868 10.1662 182.706 10.1662C183.3 10.1662 183.925 10.3035 184.549 10.5934L184.702 10.6697V7.03809L184.625 7.00757C184.047 6.79395 183.254 6.68713 182.264 6.68713C181.03 6.68713 179.903 6.96179 178.913 7.49585C177.922 8.02991 177.161 8.79286 176.612 9.76942C176.079 10.746 175.805 11.8599 175.805 13.1111V15.583H172.849V19.0163H175.805V33.4664H180.055V19.0163H186.362V28.2021C186.362 31.9863 188.145 33.8937 191.648 33.8937C192.227 33.8937 192.837 33.8326 193.446 33.6953C194.071 33.558 194.513 33.4206 194.756 33.2833L194.817 33.2528V29.7738L194.65 29.8958C194.421 30.0484 194.132 30.1705 193.797 30.2621C193.461 30.3536 193.172 30.3994 192.959 30.3994C192.136 30.3994 191.527 30.1705 191.146 29.7433C190.765 29.3008 190.567 28.5225 190.567 27.4544V19.0163H194.817ZM163.358 30.4146C161.82 30.4146 160.601 29.8958 159.748 28.8888C158.879 27.8817 158.453 26.4321 158.453 24.5858C158.453 22.6937 158.895 21.2136 159.748 20.176C160.601 19.1536 161.804 18.6348 163.328 18.6348C164.805 18.6348 165.979 19.1384 166.816 20.1149C167.654 21.1067 168.096 22.5716 168.096 24.4942C168.096 26.4321 167.7 27.9275 166.893 28.9193C166.085 29.9111 164.897 30.4146 163.358 30.4146ZM163.541 15.1558C160.601 15.1558 158.255 16.0256 156.594 17.7193C154.934 19.4283 154.08 21.7781 154.08 24.7231C154.08 27.5155 154.903 29.7738 156.533 31.4065C158.163 33.0544 160.372 33.8784 163.114 33.8784C165.963 33.8784 168.264 33.0087 169.924 31.2691C171.585 29.5449 172.438 27.2103 172.438 24.3264C172.438 21.4882 171.646 19.2147 170.077 17.582C168.507 15.9798 166.314 15.1558 163.541 15.1558ZM147.24 15.1558C145.245 15.1558 143.584 15.6746 142.32 16.6817C141.04 17.704 140.4 19.0315 140.4 20.649C140.4 21.4882 140.537 22.2359 140.811 22.8615C141.086 23.5024 141.512 24.0517 142.076 24.5247C142.639 24.9825 143.508 25.4708 144.666 25.9743C145.641 26.3711 146.357 26.7067 146.814 26.9814C147.255 27.2408 147.575 27.5002 147.758 27.7596C147.926 28.0037 148.017 28.3547 148.017 28.7667C148.017 29.9721 147.118 30.552 145.275 30.552C144.589 30.552 143.813 30.4146 142.959 30.1247C142.106 29.8501 141.314 29.4381 140.583 28.9193L140.4 28.7972V32.9018L140.461 32.9324C141.055 33.207 141.817 33.4512 142.716 33.6343C143.614 33.8174 144.422 33.9089 145.123 33.9089C147.301 33.9089 149.038 33.3901 150.318 32.383C151.597 31.3607 152.252 29.9874 152.252 28.3242C152.252 27.1187 151.902 26.0811 151.216 25.2572C150.531 24.4332 149.343 23.6702 147.682 22.9988C146.357 22.4648 145.519 22.0223 145.168 21.6866C144.833 21.3661 144.666 20.8931 144.666 20.3133C144.666 19.7945 144.879 19.3825 145.305 19.0468C145.747 18.7111 146.357 18.528 147.118 18.528C147.819 18.528 148.55 18.6348 149.266 18.8637C149.982 19.0773 150.622 19.3825 151.14 19.7335L151.308 19.8555V15.9645L151.247 15.934C150.759 15.7204 150.12 15.5525 149.343 15.3999C148.55 15.2321 147.85 15.1558 147.24 15.1558ZM129.325 30.4146C127.786 30.4146 126.567 29.8958 125.714 28.8888C124.846 27.8817 124.419 26.4321 124.419 24.5858C124.419 22.6937 124.861 21.2136 125.714 20.176C126.567 19.1536 127.771 18.6348 129.294 18.6348C130.772 18.6348 131.945 19.1384 132.783 20.1149C133.621 21.1067 134.063 22.5716 134.063 24.4942C134.063 26.4321 133.666 27.9275 132.859 28.9193C132.052 29.9111 130.879 30.4146 129.325 30.4146ZM129.507 15.1558C126.567 15.1558 124.221 16.0256 122.561 17.7193C120.9 19.4283 120.047 21.7934 120.047 24.7384C120.047 27.5307 120.87 29.789 122.5 31.4217C124.13 33.0697 126.339 33.8937 129.081 33.8937C131.93 33.8937 134.23 33.0239 135.891 31.2844C137.551 29.5602 138.404 27.2255 138.404 24.3416C138.404 21.5035 137.612 19.2299 136.043 17.5972C134.474 15.9798 132.28 15.1558 129.507 15.1558ZM113.603 18.6806V15.583H109.413V33.4512H113.603V24.3111C113.603 22.7547 113.953 21.473 114.654 20.5117C115.339 19.5656 116.254 19.0773 117.366 19.0773C117.746 19.0773 118.173 19.1384 118.63 19.2604C119.087 19.3825 119.407 19.5198 119.605 19.6572L119.788 19.7792V15.5373L119.727 15.5068C119.331 15.3389 118.782 15.2626 118.082 15.2626C117.03 15.2626 116.086 15.5983 115.279 16.2697C114.563 16.8648 114.06 17.6582 113.664 18.6653L113.603 18.6806ZM101.888 15.1558C99.968 15.1558 98.2465 15.5678 96.784 16.3918C95.3215 17.2157 94.1941 18.3754 93.4172 19.8555C92.6555 21.3356 92.2594 23.0599 92.2594 24.9978C92.2594 26.6915 92.6402 28.2326 93.3867 29.6059C94.1332 30.9792 95.1844 32.0473 96.525 32.7798C97.8656 33.5275 99.4043 33.8937 101.111 33.8937C103.106 33.8937 104.813 33.4969 106.168 32.7035L106.229 32.673V28.8277L106.046 28.9498C105.422 29.4076 104.736 29.7585 103.99 30.0179C103.243 30.2773 102.573 30.4146 101.979 30.4146C100.334 30.4146 99.0082 29.8958 98.0484 28.8735C97.0887 27.8512 96.6012 26.4168 96.6012 24.6163C96.6012 22.8005 97.1039 21.3356 98.1094 20.2523C99.1148 19.1689 100.44 18.6196 102.04 18.6196C103.426 18.6196 104.767 19.0926 106.031 20.0081L106.214 20.1302V16.0713L106.153 16.0408C105.681 15.7662 105.026 15.5525 104.218 15.3847C103.426 15.2473 102.634 15.1558 101.888 15.1558ZM89.3801 15.583H85.1906V33.4512H89.3801V15.583ZM87.3234 7.98414C86.6379 7.98414 86.0285 8.21302 85.541 8.68604C85.0383 9.15907 84.7945 9.7389 84.7945 10.4408C84.7945 11.1275 85.0383 11.7073 85.541 12.1651C86.0285 12.6228 86.6379 12.8517 87.3387 12.8517C88.0395 12.8517 88.6488 12.6228 89.1363 12.1651C89.6391 11.7073 89.8828 11.1275 89.8828 10.4408C89.8828 9.76942 89.6391 9.18959 89.1516 8.7013C88.6641 8.21302 88.0395 7.98414 87.3234 7.98414ZM76.8422 14.2708V33.4664H81.123V8.5182H75.1969L67.6559 27.0424L60.3434 8.5182H54.1734V33.4512H58.1953V14.2708H58.3324L66.0562 33.4664H69.0879L76.6898 14.2708H76.8422Z" fill="#C1C1C1"/>
<path d="M19.9265 19.9624H0.1828V0.18689H19.9265V19.9624Z" fill="#C1C1C1"/>
<path d="M41.7269 19.9624H21.9832V0.18689H41.7269V19.9624Z" fill="#C1C1C1"/>
<path d="M19.9265 41.8131H0.1828V22.0376H19.9265V41.8131Z" fill="#C1C1C1"/>
<path d="M41.7269 41.8131H21.9832V22.0376H41.7269V41.8131Z" fill="#C1C1C1"/>
</svg>
