<svg width="143" height="43" viewBox="0 0 143 43" fill="none" xmlns="http://www.w3.org/2000/svg">
<path fill-rule="evenodd" clip-rule="evenodd" d="M0.513 42.7033H29.6818V0.811523H0.513V42.7033ZM4.7172 38.4852H25.463V5.02958H4.7172V38.4852Z" fill="#C1C1C1"/>
<path fill-rule="evenodd" clip-rule="evenodd" d="M49.0573 19.6064H47.2523C44.8831 16.2507 42.5317 12.9162 40.1843 9.14762H40.1673V19.6064H38.1721V5.02368H39.9787C42.3479 8.35659 44.6953 11.6676 47.0216 15.4159H47.0637V5.02368H49.0573V19.6064Z" fill="#C1C1C1"/>
<path fill-rule="evenodd" clip-rule="evenodd" d="M54.7518 5.02393L49.7252 19.6066H51.8864L53.1507 15.6263H57.5395L58.6816 19.6066H61.4677L56.8312 5.02393H54.7518ZM53.7983 13.8349C54.3778 11.9177 54.9598 10.1474 55.4803 7.896H55.5224C56.1027 10.1474 56.624 11.9177 57.1639 13.8349H53.7983Z" fill="#C1C1C1"/>
<path fill-rule="evenodd" clip-rule="evenodd" d="M63.8145 19.6064V6.97896H59.9883V5.02368H70.1305V6.97896H66.3075V19.6064H63.8145Z" fill="#C1C1C1"/>
<mask id="mask0_1_459" style="mask-type:alpha" maskUnits="userSpaceOnUse" x="0" y="0" width="143" height="43">
<path d="M0.513 42.7033H142.769V0.811523H0.513V42.7033Z" fill="white"/>
</mask>
<g mask="url(#mask0_1_459)">
<path fill-rule="evenodd" clip-rule="evenodd" d="M70.9395 19.6066H73.4163V5.02393H70.9395V19.6066Z" fill="#C1C1C1"/>
<path fill-rule="evenodd" clip-rule="evenodd" d="M81.1054 19.8532C84.9073 19.8532 87.2757 16.4594 87.2757 12.1034C87.2757 8.02168 84.6613 4.77234 81.1054 4.77234C77.5528 4.77234 74.927 8.02168 74.927 12.1034C74.927 16.4594 77.3003 19.8532 81.1054 19.8532ZM81.1054 17.7705C78.5047 17.7705 77.5909 14.896 77.5909 12.1034C77.5909 9.41715 78.6294 6.855 81.1054 6.855C83.5782 6.855 84.6135 9.41715 84.6135 12.1034C84.6135 14.896 83.7013 17.7705 81.1054 17.7705Z" fill="#C1C1C1"/>
<path fill-rule="evenodd" clip-rule="evenodd" d="M99.6829 19.6064H97.8762C95.5046 16.2507 93.1556 12.9162 90.8091 9.14762H90.7888V19.6064H88.7968V5.02368H90.6018C92.9703 8.35659 95.3192 11.6676 97.6423 15.4159H97.686V5.02368H99.6829V19.6064Z" fill="#C1C1C1"/>
<path fill-rule="evenodd" clip-rule="evenodd" d="M105.379 5.02393L100.35 19.6066H102.513L103.777 15.6263H108.163L109.308 19.6066H112.092L107.456 5.02393H105.379ZM104.421 13.8349C105.004 11.9177 105.583 10.1474 106.106 7.896H106.147C106.729 10.1474 107.248 11.9177 107.787 13.8349H104.421Z" fill="#C1C1C1"/>
<path fill-rule="evenodd" clip-rule="evenodd" d="M112.816 5.02393H115.293V17.6473H120.216V19.6066H112.816V5.02393Z" fill="#C1C1C1"/>
<path fill-rule="evenodd" clip-rule="evenodd" d="M47.5246 31.8035V37.8227C46.1931 38.3444 44.8001 38.7184 43.3908 38.7184C39.1089 38.7184 36.407 35.3839 36.407 31.0928C36.407 27.1125 39.1089 23.6351 43.4726 23.6351C44.8203 23.6351 46.1729 24.1382 47.0042 24.7604L46.1931 26.4894C45.5294 26.0764 44.4884 25.7218 43.5333 25.7218C40.8759 25.7218 39.0652 27.8256 39.0652 31.139C39.0652 34.5936 41.1455 36.6341 43.2856 36.6341C43.9477 36.6341 44.5119 36.5554 45.034 36.282V31.8035H47.5246Z" fill="#C1C1C1"/>
<path fill-rule="evenodd" clip-rule="evenodd" d="M56.4438 25.8478H52.2825V29.8451H56.3563V31.8037H52.2825V36.5085H57.1876V38.4695H49.787V23.886H56.4438V25.8478Z" fill="#C1C1C1"/>
<path fill-rule="evenodd" clip-rule="evenodd" d="M64.1327 38.718C67.9338 38.718 70.3014 35.3227 70.3014 30.9683C70.3014 26.8865 67.6845 23.6348 64.1327 23.6348C60.5744 23.6348 57.9583 26.8865 57.9583 30.9683C57.9583 35.3227 60.3235 38.718 64.1327 38.718ZM64.1327 36.6346C61.532 36.6346 60.6165 33.7625 60.6165 30.9683C60.6165 28.2844 61.6558 25.7215 64.1327 25.7215C66.6039 25.7215 67.6408 28.2844 67.6408 30.9683C67.6408 33.7625 66.7253 36.6346 64.1327 36.6346Z" fill="#C1C1C1"/>
<path fill-rule="evenodd" clip-rule="evenodd" d="M82.2706 31.8035V37.8227C80.9383 38.3444 79.5501 38.7184 78.1352 38.7184C73.8557 38.7184 71.1522 35.3839 71.1522 31.0928C71.1522 27.1125 73.8557 23.6351 78.2202 23.6351C79.572 23.6351 80.9205 24.1382 81.7501 24.7604L80.9383 26.4894C80.2737 26.0764 79.2417 25.7218 78.2833 25.7218C75.6195 25.7218 73.8112 27.8256 73.8112 31.139C73.8112 34.5936 75.8915 36.6341 78.0324 36.6341C78.6994 36.6341 79.2571 36.5554 79.7792 36.282V31.8035H82.2706Z" fill="#C1C1C1"/>
<path fill-rule="evenodd" clip-rule="evenodd" d="M93.3718 38.4692L90.436 32.4306C92.0363 31.5787 92.9558 29.8449 92.9558 28.0949C92.9558 25.2593 91.2285 23.8857 88.4408 23.8857H84.5563V38.4692H87.0558V32.9701H88.1769L90.5218 38.4692H93.3718ZM87.0558 25.8475H88.155C89.6266 25.8475 90.4595 26.6978 90.4595 28.2003C90.4595 30.1564 89.2769 31.0302 88.0919 31.0927C87.8418 31.1179 87.2582 31.1389 87.0558 31.1568V25.8475Z" fill="#C1C1C1"/>
<path fill-rule="evenodd" clip-rule="evenodd" d="M98.4402 23.8861L93.4096 38.4696H95.5708L96.84 34.4884H101.227L102.364 38.4696H105.154L100.517 23.8861H98.4402ZM97.4851 32.6987C98.0655 30.7791 98.6458 29.0104 99.1687 26.7606H99.21C99.792 29.0104 100.311 30.7791 100.852 32.6987H97.4851Z" fill="#C1C1C1"/>
<path fill-rule="evenodd" clip-rule="evenodd" d="M109.478 31.0928C109.219 31.1164 108.609 31.1358 108.437 31.1529V25.8476H109.556C111.011 25.8476 111.845 26.6979 111.845 28.1997C111.845 30.1566 110.664 31.0304 109.478 31.0928ZM109.828 23.8859H105.942V38.4694H108.437V32.9694H109.556C112.53 32.9694 114.34 30.5525 114.34 28.095C114.34 25.2586 112.613 23.8859 109.828 23.8859Z" fill="#C1C1C1"/>
<path fill-rule="evenodd" clip-rule="evenodd" d="M125.893 38.4692H123.4V31.4521H118.22V38.4692H115.755V23.8857H118.22V29.4903H123.4V23.9271H125.893V38.4692Z" fill="#C1C1C1"/>
<path fill-rule="evenodd" clip-rule="evenodd" d="M128.281 38.4698H130.76V23.8864H128.281V38.4698Z" fill="#C1C1C1"/>
<path fill-rule="evenodd" clip-rule="evenodd" d="M141.977 26.5339C141.374 26.1574 140.38 25.7217 139.42 25.7217C136.88 25.7217 135.037 27.8255 135.037 31.1389C135.037 34.5943 137.071 36.634 139.484 36.634C140.441 36.634 141.332 36.3208 141.977 35.9038L142.665 37.7179C141.913 38.238 140.586 38.7183 139.383 38.7183C135.1 38.7183 132.397 35.3838 132.397 31.0927C132.397 27.1123 135.077 23.635 139.42 23.635C140.711 23.635 141.913 24.1802 142.77 24.7603L141.977 26.5339Z" fill="#C1C1C1"/>
</g>
</svg>
